<?xml version="1.0" encoding="us-ascii" standalone="no"?><svg xmlns="http://www.w3.org/2000/svg" xmlns:xlink="http://www.w3.org/1999/xlink" contentStyleType="text/css" height="373px" preserveAspectRatio="none" style="width:1741px;height:373px;background:#FFFFFF;" version="1.1" viewBox="0 0 1741 373" width="1741px" zoomAndPan="magnify"><defs/><g><g id="elem_tbl_film"><rect fill="#F1F1F1" height="117.7813" style="stroke:#181818;stroke-width:0.5;" width="172" x="11.5" y="22.5"/><text fill="#000000" font-family="sans-serif" font-size="14" lengthAdjust="spacing" textLength="56" x="69.5" y="37.4951">tbl_film</text><line style="stroke:#181818;stroke-width:0.5;" x1="12.5" x2="182.5" y1="42.7969" y2="42.7969"/><ellipse cx="22.5" cy="56.4453" fill="none" rx="3" ry="3" style="stroke:#038048;stroke-width:1.0;"/><text fill="#000000" font-family="sans-serif" font-size="14" lengthAdjust="spacing" textLength="45" x="31.5" y="59.792">id: INT</text><ellipse cx="22.5" cy="72.7422" fill="#84BE84" rx="3" ry="3" style="stroke:#038048;stroke-width:1.0;"/><text fill="#000000" font-family="sans-serif" font-size="14" lengthAdjust="spacing" textLength="146" x="31.5" y="76.0889">title: VARCHAR(255)</text><ellipse cx="22.5" cy="89.0391" fill="none" rx="3" ry="3" style="stroke:#038048;stroke-width:1.0;"/><text fill="#000000" font-family="sans-serif" font-size="14" lengthAdjust="spacing" textLength="128" x="31.5" y="92.3857">description: TEXT</text><ellipse cx="22.5" cy="105.3359" fill="none" rx="3" ry="3" style="stroke:#038048;stroke-width:1.0;"/><text fill="#000000" font-family="sans-serif" font-size="14" lengthAdjust="spacing" textLength="92" x="31.5" y="108.6826">duration: INT</text><line style="stroke:#181818;stroke-width:1.0;" x1="12.5" x2="182.5" y1="115.9844" y2="115.9844"/><text fill="#000000" font-family="sans-serif" font-size="14" lengthAdjust="spacing" textLength="149" x="17.5" y="132.9795">PK tbl_film_pkey (id)</text></g><g id="elem_tbl_hall"><rect fill="#F1F1F1" height="117.7813" style="stroke:#181818;stroke-width:0.5;" width="181" x="7" y="215.5"/><text fill="#000000" font-family="sans-serif" font-size="14" lengthAdjust="spacing" textLength="53" x="71" y="230.4951">tbl_hall</text><line style="stroke:#181818;stroke-width:0.5;" x1="8" x2="187" y1="235.7969" y2="235.7969"/><ellipse cx="18" cy="249.4453" fill="none" rx="3" ry="3" style="stroke:#038048;stroke-width:1.0;"/><text fill="#000000" font-family="sans-serif" font-size="14" lengthAdjust="spacing" textLength="45" x="27" y="252.792">id: INT</text><ellipse cx="18" cy="265.7422" fill="#84BE84" rx="3" ry="3" style="stroke:#038048;stroke-width:1.0;"/><text fill="#000000" font-family="sans-serif" font-size="14" lengthAdjust="spacing" textLength="155" x="27" y="269.0889">name: VARCHAR(255)</text><ellipse cx="18" cy="282.0391" fill="none" rx="3" ry="3" style="stroke:#038048;stroke-width:1.0;"/><text fill="#000000" font-family="sans-serif" font-size="14" lengthAdjust="spacing" textLength="65" x="27" y="285.3857">rows: INT</text><ellipse cx="18" cy="298.3359" fill="none" rx="3" ry="3" style="stroke:#038048;stroke-width:1.0;"/><text fill="#000000" font-family="sans-serif" font-size="14" lengthAdjust="spacing" textLength="60" x="27" y="301.6826">cols: INT</text><line style="stroke:#181818;stroke-width:1.0;" x1="8" x2="187" y1="308.9844" y2="308.9844"/><text fill="#000000" font-family="sans-serif" font-size="14" lengthAdjust="spacing" textLength="146" x="13" y="325.9795">PK tbl_hall_pkey (id)</text></g><g id="elem_tbl_place"><rect fill="#F1F1F1" height="134.0781" style="stroke:#181818;stroke-width:0.5;" width="428" x="267" y="232"/><text fill="#000000" font-family="sans-serif" font-size="14" lengthAdjust="spacing" textLength="67" x="447.5" y="246.9951">tbl_place</text><line style="stroke:#181818;stroke-width:0.5;" x1="268" x2="694" y1="252.2969" y2="252.2969"/><ellipse cx="278" cy="265.9453" fill="none" rx="3" ry="3" style="stroke:#038048;stroke-width:1.0;"/><text fill="#000000" font-family="sans-serif" font-size="14" lengthAdjust="spacing" textLength="45" x="287" y="269.292">id: INT</text><ellipse cx="278" cy="282.2422" fill="none" rx="3" ry="3" style="stroke:#038048;stroke-width:1.0;"/><text fill="#000000" font-family="sans-serif" font-size="14" lengthAdjust="spacing" textLength="77" x="287" y="285.5889">hall_id: INT</text><ellipse cx="278" cy="298.5391" fill="none" rx="3" ry="3" style="stroke:#038048;stroke-width:1.0;"/><text fill="#000000" font-family="sans-serif" font-size="14" lengthAdjust="spacing" textLength="58" x="287" y="301.8857">row: INT</text><ellipse cx="278" cy="314.8359" fill="none" rx="3" ry="3" style="stroke:#038048;stroke-width:1.0;"/><text fill="#000000" font-family="sans-serif" font-size="14" lengthAdjust="spacing" textLength="53" x="287" y="318.1826">col: INT</text><line style="stroke:#181818;stroke-width:1.0;" x1="268" x2="694" y1="325.4844" y2="325.4844"/><text fill="#000000" font-family="sans-serif" font-size="14" lengthAdjust="spacing" textLength="160" x="273" y="342.4795">PK tbl_place_pkey (id)</text><text fill="#000000" font-family="sans-serif" font-size="14" lengthAdjust="spacing" textLength="416" x="273" y="358.7764">FK tbl_place_hall_id_fkey (hall_id) REFERENCES tbl_hall(id)</text></g><g id="elem_tbl_show"><rect fill="#F1F1F1" height="182.9688" style="stroke:#181818;stroke-width:0.5;" width="434" x="264" y="7"/><text fill="#000000" font-family="sans-serif" font-size="14" lengthAdjust="spacing" textLength="64" x="449" y="21.9951">tbl_show</text><line style="stroke:#181818;stroke-width:0.5;" x1="265" x2="697" y1="27.2969" y2="27.2969"/><ellipse cx="275" cy="40.9453" fill="none" rx="3" ry="3" style="stroke:#038048;stroke-width:1.0;"/><text fill="#000000" font-family="sans-serif" font-size="14" lengthAdjust="spacing" textLength="45" x="284" y="44.292">id: INT</text><ellipse cx="275" cy="57.2422" fill="none" rx="3" ry="3" style="stroke:#038048;stroke-width:1.0;"/><text fill="#000000" font-family="sans-serif" font-size="14" lengthAdjust="spacing" textLength="80" x="284" y="60.5889">film_id: INT</text><ellipse cx="275" cy="73.5391" fill="none" rx="3" ry="3" style="stroke:#038048;stroke-width:1.0;"/><text fill="#000000" font-family="sans-serif" font-size="14" lengthAdjust="spacing" textLength="77" x="284" y="76.8857">hall_id: INT</text><ellipse cx="275" cy="89.8359" fill="none" rx="3" ry="3" style="stroke:#038048;stroke-width:1.0;"/><text fill="#000000" font-family="sans-serif" font-size="14" lengthAdjust="spacing" textLength="81" x="284" y="93.1826">date: DATE</text><ellipse cx="275" cy="106.1328" fill="none" rx="3" ry="3" style="stroke:#038048;stroke-width:1.0;"/><text fill="#000000" font-family="sans-serif" font-size="14" lengthAdjust="spacing" textLength="168" x="284" y="109.4795">time_start: TIMESTAMP</text><ellipse cx="275" cy="122.4297" fill="none" rx="3" ry="3" style="stroke:#038048;stroke-width:1.0;"/><text fill="#000000" font-family="sans-serif" font-size="14" lengthAdjust="spacing" textLength="160" x="284" y="125.7764">time_end: TIMESTAMP</text><line style="stroke:#181818;stroke-width:1.0;" x1="265" x2="697" y1="133.0781" y2="133.0781"/><text fill="#000000" font-family="sans-serif" font-size="14" lengthAdjust="spacing" textLength="157" x="270" y="150.0732">PK tbl_show_pkey (id)</text><text fill="#000000" font-family="sans-serif" font-size="14" lengthAdjust="spacing" textLength="422" x="270" y="166.3701">FK tbl_show_film_id_fkey (film_id) REFERENCES tbl_film(id)</text><text fill="#000000" font-family="sans-serif" font-size="14" lengthAdjust="spacing" textLength="413" x="270" y="182.667">FK tbl_show_hall_id_fkey (hall_id) REFERENCES tbl_hall(id)</text></g><g id="elem_tbl_price"><rect fill="#F1F1F1" height="166.6719" style="stroke:#181818;stroke-width:0.5;" width="468" x="774" y="96"/><text fill="#000000" font-family="sans-serif" font-size="14" lengthAdjust="spacing" textLength="65" x="975.5" y="110.9951">tbl_price</text><line style="stroke:#181818;stroke-width:0.5;" x1="775" x2="1241" y1="116.2969" y2="116.2969"/><ellipse cx="785" cy="129.9453" fill="none" rx="3" ry="3" style="stroke:#038048;stroke-width:1.0;"/><text fill="#000000" font-family="sans-serif" font-size="14" lengthAdjust="spacing" textLength="49" x="794" y="133.292">id : INT</text><ellipse cx="785" cy="146.2422" fill="none" rx="3" ry="3" style="stroke:#038048;stroke-width:1.0;"/><text fill="#000000" font-family="sans-serif" font-size="14" lengthAdjust="spacing" textLength="92" x="794" y="149.5889">show_id : INT</text><ellipse cx="785" cy="162.5391" fill="none" rx="3" ry="3" style="stroke:#038048;stroke-width:1.0;"/><text fill="#000000" font-family="sans-serif" font-size="14" lengthAdjust="spacing" textLength="95" x="794" y="165.8857">place_id : INT</text><ellipse cx="785" cy="178.8359" fill="none" rx="3" ry="3" style="stroke:#038048;stroke-width:1.0;"/><text fill="#000000" font-family="sans-serif" font-size="14" lengthAdjust="spacing" textLength="101" x="794" y="182.1826">price : MONEY</text><line style="stroke:#181818;stroke-width:1.0;" x1="775" x2="1241" y1="189.4844" y2="189.4844"/><text fill="#000000" font-family="sans-serif" font-size="14" lengthAdjust="spacing" textLength="158" x="780" y="206.4795">PK tbl_price_pkey (id)</text><text fill="#000000" font-family="sans-serif" font-size="14" lengthAdjust="spacing" textLength="456" x="780" y="222.7764">FK tbl_price_place_id_fkey (place_id) REFERENCES tbl_place(id)</text><text fill="#000000" font-family="sans-serif" font-size="14" lengthAdjust="spacing" textLength="447" x="780" y="239.0732">FK tbl_price_show_id_fkey (show_id) REFERENCES tbl_show(id)</text><text fill="#000000" font-family="sans-serif" font-size="14" lengthAdjust="spacing" textLength="404" x="780" y="255.3701">CONSTRAINT tbl_price_unique UNIQUE (place_id,show_id)</text></g><g id="elem_tbl_ticket"><rect fill="#F1F1F1" height="150.375" style="stroke:#181818;stroke-width:0.5;" width="416" x="1318" y="96"/><text fill="#000000" font-family="sans-serif" font-size="14" lengthAdjust="spacing" textLength="72" x="1490" y="110.9951">tbl_ticket</text><line style="stroke:#181818;stroke-width:0.5;" x1="1319" x2="1733" y1="116.2969" y2="116.2969"/><ellipse cx="1329" cy="129.9453" fill="none" rx="3" ry="3" style="stroke:#038048;stroke-width:1.0;"/><text fill="#000000" font-family="sans-serif" font-size="14" lengthAdjust="spacing" textLength="45" x="1338" y="133.292">id: INT</text><ellipse cx="1329" cy="146.2422" fill="none" rx="3" ry="3" style="stroke:#038048;stroke-width:1.0;"/><text fill="#000000" font-family="sans-serif" font-size="14" lengthAdjust="spacing" textLength="88" x="1338" y="149.5889">show_id: INT</text><ellipse cx="1329" cy="162.5391" fill="none" rx="3" ry="3" style="stroke:#038048;stroke-width:1.0;"/><text fill="#000000" font-family="sans-serif" font-size="14" lengthAdjust="spacing" textLength="91" x="1338" y="165.8857">place_id: INT</text><ellipse cx="1329" cy="178.8359" fill="none" rx="3" ry="3" style="stroke:#038048;stroke-width:1.0;"/><text fill="#000000" font-family="sans-serif" font-size="14" lengthAdjust="spacing" textLength="97" x="1338" y="182.1826">price: MONEY</text><ellipse cx="1329" cy="195.1328" fill="none" rx="3" ry="3" style="stroke:#038048;stroke-width:1.0;"/><text fill="#000000" font-family="sans-serif" font-size="14" lengthAdjust="spacing" textLength="109" x="1338" y="198.4795">paid: BOOLEAN</text><line style="stroke:#181818;stroke-width:1.0;" x1="1319" x2="1733" y1="205.7813" y2="205.7813"/><text fill="#000000" font-family="sans-serif" font-size="14" lengthAdjust="spacing" textLength="165" x="1324" y="222.7764">PK tbl_ticket_pkey (id)</text><text fill="#000000" font-family="sans-serif" font-size="14" lengthAdjust="spacing" textLength="404" x="1324" y="239.0732">CONSTRAINT tbl_price_unique UNIQUE (place_id,show_id)</text></g><!--link tbl_film to tbl_show--><g id="link_tbl_film_tbl_show"><path codeLine="67" d="M192.5,55 C227.389,55 210.111,55 245,55 " fill="none" id="tbl_film-tbl_show" style="stroke:#181818;stroke-width:1.0;"/><line style="stroke:#181818;stroke-width:1.0;" x1="188.5" x2="188.5" y1="59" y2="51"/><line style="stroke:#181818;stroke-width:1.0;" x1="191.5" x2="191.5" y1="59" y2="51"/><line style="stroke:#181818;stroke-width:1.0;" x1="192.5" x2="184.5" y1="55" y2="55"/><line style="stroke:#181818;stroke-width:1.0;" x1="255" x2="263" y1="55" y2="49"/><line style="stroke:#181818;stroke-width:1.0;" x1="255" x2="263" y1="55" y2="61"/><line style="stroke:#181818;stroke-width:1.0;" x1="255" x2="263" y1="55" y2="55"/><ellipse cx="249" cy="55" fill="none" rx="4" ry="4" style="stroke:#181818;stroke-width:1.0;"/></g><!--link tbl_hall to tbl_show--><g id="link_tbl_hall_tbl_show"><path codeLine="68" d="M197.5,248 C282.68,248 159.82,71 245,71 " fill="none" id="tbl_hall-tbl_show" style="stroke:#181818;stroke-width:1.0;"/><line style="stroke:#181818;stroke-width:1.0;" x1="193.5" x2="193.5" y1="252" y2="244"/><line style="stroke:#181818;stroke-width:1.0;" x1="196.5" x2="196.5" y1="252" y2="244"/><line style="stroke:#181818;stroke-width:1.0;" x1="197.5" x2="189.5" y1="248" y2="248"/><line style="stroke:#181818;stroke-width:1.0;" x1="255" x2="263" y1="71" y2="65"/><line style="stroke:#181818;stroke-width:1.0;" x1="255" x2="263" y1="71" y2="77"/><line style="stroke:#181818;stroke-width:1.0;" x1="255" x2="263" y1="71" y2="71"/><ellipse cx="249" cy="71" fill="none" rx="4" ry="4" style="stroke:#181818;stroke-width:1.0;"/></g><!--link tbl_hall to tbl_place--><g id="link_tbl_hall_tbl_place"><path codeLine="69" d="M197.5,248 C234.355,248 211.145,280 248,280 " fill="none" id="tbl_hall-tbl_place" style="stroke:#181818;stroke-width:1.0;"/><line style="stroke:#181818;stroke-width:1.0;" x1="193.5" x2="193.5" y1="252" y2="244"/><line style="stroke:#181818;stroke-width:1.0;" x1="196.5" x2="196.5" y1="252" y2="244"/><line style="stroke:#181818;stroke-width:1.0;" x1="197.5" x2="189.5" y1="248" y2="248"/><line style="stroke:#181818;stroke-width:1.0;" x1="258" x2="266" y1="280" y2="274"/><line style="stroke:#181818;stroke-width:1.0;" x1="258" x2="266" y1="280" y2="286"/><line style="stroke:#181818;stroke-width:1.0;" x1="258" x2="266" y1="280" y2="280"/><ellipse cx="252" cy="280" fill="none" rx="4" ry="4" style="stroke:#181818;stroke-width:1.0;"/></g><!--link tbl_place to tbl_price--><g id="link_tbl_place_tbl_price"><path codeLine="70" d="M704,264 C761.512,264 697.488,160 755,160 " fill="none" id="tbl_place-tbl_price" style="stroke:#181818;stroke-width:1.0;"/><line style="stroke:#181818;stroke-width:1.0;" x1="700" x2="700" y1="268" y2="260"/><line style="stroke:#181818;stroke-width:1.0;" x1="703" x2="703" y1="268" y2="260"/><line style="stroke:#181818;stroke-width:1.0;" x1="704" x2="696" y1="264" y2="264"/><line style="stroke:#181818;stroke-width:1.0;" x1="765" x2="773" y1="160" y2="154"/><line style="stroke:#181818;stroke-width:1.0;" x1="765" x2="773" y1="160" y2="166"/><line style="stroke:#181818;stroke-width:1.0;" x1="765" x2="773" y1="160" y2="160"/><ellipse cx="759" cy="160" fill="none" rx="4" ry="4" style="stroke:#181818;stroke-width:1.0;"/></g><!--link tbl_show to tbl_price--><g id="link_tbl_show_tbl_price"><path codeLine="71" d="M707,39 C764.092,39 697.908,144 755,144 " fill="none" id="tbl_show-tbl_price" style="stroke:#181818;stroke-width:1.0;"/><line style="stroke:#181818;stroke-width:1.0;" x1="703" x2="703" y1="43" y2="35"/><line style="stroke:#181818;stroke-width:1.0;" x1="706" x2="706" y1="43" y2="35"/><line style="stroke:#181818;stroke-width:1.0;" x1="707" x2="699" y1="39" y2="39"/><line style="stroke:#181818;stroke-width:1.0;" x1="765" x2="773" y1="144" y2="138"/><line style="stroke:#181818;stroke-width:1.0;" x1="765" x2="773" y1="144" y2="150"/><line style="stroke:#181818;stroke-width:1.0;" x1="765" x2="773" y1="144" y2="144"/><ellipse cx="759" cy="144" fill="none" rx="4" ry="4" style="stroke:#181818;stroke-width:1.0;"/></g><!--link tbl_price to tbl_ticket--><g id="link_tbl_price_tbl_ticket"><path codeLine="72" d="M1251,144 C1283.89,144 1276.11,144 1309,144 " fill="none" id="tbl_price-tbl_ticket" style="stroke:#181818;stroke-width:1.0;stroke-dasharray:7.0,7.0;"/><line style="stroke:#181818;stroke-width:1.0;" x1="1247" x2="1247" y1="148" y2="140"/><line style="stroke:#181818;stroke-width:1.0;" x1="1250" x2="1250" y1="148" y2="140"/><line style="stroke:#181818;stroke-width:1.0;" x1="1251" x2="1243" y1="144" y2="144"/><line style="stroke:#181818;stroke-width:1.0;" x1="1313" x2="1313" y1="140" y2="148"/><line style="stroke:#181818;stroke-width:1.0;" x1="1310" x2="1310" y1="140" y2="148"/><line style="stroke:#181818;stroke-width:1.0;" x1="1309" x2="1317" y1="144" y2="144"/></g><!--link tbl_price to tbl_ticket--><g id="link_tbl_price_tbl_ticket"><path codeLine="73" d="M1251,160 C1283.89,160 1276.11,160 1309,160 " fill="none" id="tbl_price-tbl_ticket-1" style="stroke:#181818;stroke-width:1.0;stroke-dasharray:7.0,7.0;"/><line style="stroke:#181818;stroke-width:1.0;" x1="1247" x2="1247" y1="164" y2="156"/><line style="stroke:#181818;stroke-width:1.0;" x1="1250" x2="1250" y1="164" y2="156"/><line style="stroke:#181818;stroke-width:1.0;" x1="1251" x2="1243" y1="160" y2="160"/><line style="stroke:#181818;stroke-width:1.0;" x1="1313" x2="1313" y1="156" y2="164"/><line style="stroke:#181818;stroke-width:1.0;" x1="1310" x2="1310" y1="156" y2="164"/><line style="stroke:#181818;stroke-width:1.0;" x1="1309" x2="1317" y1="160" y2="160"/></g><!--SRC=[fL9DJy904BttL-mHed0muRAtYaiaIekb6ZsHqYwoKcXjbn03_dUtszdIZzsOA9UoCs_UctapCLrpn1EKiVSDHn7BQCXPihUiPFKX_YA-YfTh5k_GoKBYTuLOXD7KyU756OyfHY-sDxwtlTxDQDI7J4JpC6DfGOQHJrvLHNJ8WZAeM0O3-Pa_L6BBT4k_K8z5VUkxqSacY6D39_jWfsyaIuvv7HWcSMuIB_YDucaSXDIWBWkR8Q7RaZMfIkAQR96Qr5F0lbnB2Bpwo2CJuX5dJ1PLyvgsyqroD7GjlVvra2ZWmjaxsoVLqdTqcVCWusApqnbP-FPiNi_HVTJED2SkUj8FB3FG5ymBhywyHLnR_Y-xqemrjepgLaZwLgnSKJieMJ2QkGvvqwsyo1jMNgQ05OPGpyuKCg6dW6Q10LuTWY9UrOzTP-5xjfYZndFOiyy3HS_EzEcPN5gvLemj0paBjvGRBWvgTFvrxAkx9q910RbrtKTYEnf7IzcMfN-UHzqNncAnv_DWa9mgjp26YxJK6UbHS7X6b1HkmY3KmaapiEhJkYXeSJ26rGq9y71uFjViqgAhWzR0LUu7]--></g></svg>