<?xml version="1.0" encoding="us-ascii" standalone="no"?><svg xmlns="http://www.w3.org/2000/svg" xmlns:xlink="http://www.w3.org/1999/xlink" contentStyleType="text/css" height="373px" preserveAspectRatio="none" style="width:1256px;height:373px;background:#FFFFFF;" version="1.1" viewBox="0 0 1256 373" width="1256px" zoomAndPan="magnify"><defs/><g><g id="elem_tbl_film"><rect fill="#F1F1F1" height="117.7813" style="stroke:#181818;stroke-width:0.5;" width="172" x="11.5" y="22.5"/><text fill="#000000" font-family="sans-serif" font-size="14" lengthAdjust="spacing" textLength="56" x="69.5" y="37.4951">tbl_film</text><line style="stroke:#181818;stroke-width:0.5;" x1="12.5" x2="182.5" y1="42.7969" y2="42.7969"/><ellipse cx="22.5" cy="56.4453" fill="none" rx="3" ry="3" style="stroke:#038048;stroke-width:1.0;"/><text fill="#000000" font-family="sans-serif" font-size="14" lengthAdjust="spacing" textLength="45" x="31.5" y="59.792">id: INT</text><ellipse cx="22.5" cy="72.7422" fill="#84BE84" rx="3" ry="3" style="stroke:#038048;stroke-width:1.0;"/><text fill="#000000" font-family="sans-serif" font-size="14" lengthAdjust="spacing" textLength="146" x="31.5" y="76.0889">title: VARCHAR(255)</text><ellipse cx="22.5" cy="89.0391" fill="none" rx="3" ry="3" style="stroke:#038048;stroke-width:1.0;"/><text fill="#000000" font-family="sans-serif" font-size="14" lengthAdjust="spacing" textLength="128" x="31.5" y="92.3857">description: TEXT</text><ellipse cx="22.5" cy="105.3359" fill="none" rx="3" ry="3" style="stroke:#038048;stroke-width:1.0;"/><text fill="#000000" font-family="sans-serif" font-size="14" lengthAdjust="spacing" textLength="92" x="31.5" y="108.6826">duration: INT</text><line style="stroke:#181818;stroke-width:1.0;" x1="12.5" x2="182.5" y1="115.9844" y2="115.9844"/><text fill="#000000" font-family="sans-serif" font-size="14" lengthAdjust="spacing" textLength="149" x="17.5" y="132.9795">PK tbl_film_pkey (id)</text></g><g id="elem_tbl_hall"><rect fill="#F1F1F1" height="85.1875" style="stroke:#181818;stroke-width:0.5;" width="181" x="7" y="215.5"/><text fill="#000000" font-family="sans-serif" font-size="14" lengthAdjust="spacing" textLength="53" x="71" y="230.4951">tbl_hall</text><line style="stroke:#181818;stroke-width:0.5;" x1="8" x2="187" y1="235.7969" y2="235.7969"/><ellipse cx="18" cy="249.4453" fill="none" rx="3" ry="3" style="stroke:#038048;stroke-width:1.0;"/><text fill="#000000" font-family="sans-serif" font-size="14" lengthAdjust="spacing" textLength="45" x="27" y="252.792">id: INT</text><ellipse cx="18" cy="265.7422" fill="#84BE84" rx="3" ry="3" style="stroke:#038048;stroke-width:1.0;"/><text fill="#000000" font-family="sans-serif" font-size="14" lengthAdjust="spacing" textLength="155" x="27" y="269.0889">name: VARCHAR(255)</text><line style="stroke:#181818;stroke-width:1.0;" x1="8" x2="187" y1="276.3906" y2="276.3906"/><text fill="#000000" font-family="sans-serif" font-size="14" lengthAdjust="spacing" textLength="146" x="13" y="293.3857">PK tbl_hall_pkey (id)</text></g><g id="elem_tbl_place"><rect fill="#F1F1F1" height="134.0781" style="stroke:#181818;stroke-width:0.5;" width="428" x="267" y="232"/><text fill="#000000" font-family="sans-serif" font-size="14" lengthAdjust="spacing" textLength="67" x="447.5" y="246.9951">tbl_place</text><line style="stroke:#181818;stroke-width:0.5;" x1="268" x2="694" y1="252.2969" y2="252.2969"/><ellipse cx="278" cy="265.9453" fill="none" rx="3" ry="3" style="stroke:#038048;stroke-width:1.0;"/><text fill="#000000" font-family="sans-serif" font-size="14" lengthAdjust="spacing" textLength="45" x="287" y="269.292">id: INT</text><ellipse cx="278" cy="282.2422" fill="none" rx="3" ry="3" style="stroke:#038048;stroke-width:1.0;"/><text fill="#000000" font-family="sans-serif" font-size="14" lengthAdjust="spacing" textLength="77" x="287" y="285.5889">hall_id: INT</text><ellipse cx="278" cy="298.5391" fill="none" rx="3" ry="3" style="stroke:#038048;stroke-width:1.0;"/><text fill="#000000" font-family="sans-serif" font-size="14" lengthAdjust="spacing" textLength="58" x="287" y="301.8857">row: INT</text><ellipse cx="278" cy="314.8359" fill="none" rx="3" ry="3" style="stroke:#038048;stroke-width:1.0;"/><text fill="#000000" font-family="sans-serif" font-size="14" lengthAdjust="spacing" textLength="53" x="287" y="318.1826">col: INT</text><line style="stroke:#181818;stroke-width:1.0;" x1="268" x2="694" y1="325.4844" y2="325.4844"/><text fill="#000000" font-family="sans-serif" font-size="14" lengthAdjust="spacing" textLength="160" x="273" y="342.4795">PK tbl_place_pkey (id)</text><text fill="#000000" font-family="sans-serif" font-size="14" lengthAdjust="spacing" textLength="416" x="273" y="358.7764">FK tbl_place_hall_id_fkey (hall_id) REFERENCES tbl_hall(id)</text></g><g id="elem_tbl_show"><rect fill="#F1F1F1" height="182.9688" style="stroke:#181818;stroke-width:0.5;" width="434" x="264" y="7"/><text fill="#000000" font-family="sans-serif" font-size="14" lengthAdjust="spacing" textLength="64" x="449" y="21.9951">tbl_show</text><line style="stroke:#181818;stroke-width:0.5;" x1="265" x2="697" y1="27.2969" y2="27.2969"/><ellipse cx="275" cy="40.9453" fill="none" rx="3" ry="3" style="stroke:#038048;stroke-width:1.0;"/><text fill="#000000" font-family="sans-serif" font-size="14" lengthAdjust="spacing" textLength="45" x="284" y="44.292">id: INT</text><ellipse cx="275" cy="57.2422" fill="none" rx="3" ry="3" style="stroke:#038048;stroke-width:1.0;"/><text fill="#000000" font-family="sans-serif" font-size="14" lengthAdjust="spacing" textLength="80" x="284" y="60.5889">film_id: INT</text><ellipse cx="275" cy="73.5391" fill="none" rx="3" ry="3" style="stroke:#038048;stroke-width:1.0;"/><text fill="#000000" font-family="sans-serif" font-size="14" lengthAdjust="spacing" textLength="77" x="284" y="76.8857">hall_id: INT</text><ellipse cx="275" cy="89.8359" fill="none" rx="3" ry="3" style="stroke:#038048;stroke-width:1.0;"/><text fill="#000000" font-family="sans-serif" font-size="14" lengthAdjust="spacing" textLength="81" x="284" y="93.1826">date: DATE</text><ellipse cx="275" cy="106.1328" fill="none" rx="3" ry="3" style="stroke:#038048;stroke-width:1.0;"/><text fill="#000000" font-family="sans-serif" font-size="14" lengthAdjust="spacing" textLength="168" x="284" y="109.4795">time_start: TIMESTAMP</text><ellipse cx="275" cy="122.4297" fill="none" rx="3" ry="3" style="stroke:#038048;stroke-width:1.0;"/><text fill="#000000" font-family="sans-serif" font-size="14" lengthAdjust="spacing" textLength="160" x="284" y="125.7764">time_end: TIMESTAMP</text><line style="stroke:#181818;stroke-width:1.0;" x1="265" x2="697" y1="133.0781" y2="133.0781"/><text fill="#000000" font-family="sans-serif" font-size="14" lengthAdjust="spacing" textLength="157" x="270" y="150.0732">PK tbl_show_pkey (id)</text><text fill="#000000" font-family="sans-serif" font-size="14" lengthAdjust="spacing" textLength="422" x="270" y="166.3701">FK tbl_show_film_id_fkey (film_id) REFERENCES tbl_film(id)</text><text fill="#000000" font-family="sans-serif" font-size="14" lengthAdjust="spacing" textLength="413" x="270" y="182.667">FK tbl_show_hall_id_fkey (hall_id) REFERENCES tbl_hall(id)</text></g><g id="elem_tbl_ticket"><rect fill="#F1F1F1" height="182.9688" style="stroke:#181818;stroke-width:0.5;" width="475" x="774" y="96"/><text fill="#000000" font-family="sans-serif" font-size="14" lengthAdjust="spacing" textLength="72" x="975.5" y="110.9951">tbl_ticket</text><line style="stroke:#181818;stroke-width:0.5;" x1="775" x2="1248" y1="116.2969" y2="116.2969"/><ellipse cx="785" cy="129.9453" fill="none" rx="3" ry="3" style="stroke:#038048;stroke-width:1.0;"/><text fill="#000000" font-family="sans-serif" font-size="14" lengthAdjust="spacing" textLength="45" x="794" y="133.292">id: INT</text><ellipse cx="785" cy="146.2422" fill="none" rx="3" ry="3" style="stroke:#038048;stroke-width:1.0;"/><text fill="#000000" font-family="sans-serif" font-size="14" lengthAdjust="spacing" textLength="88" x="794" y="149.5889">show_id: INT</text><ellipse cx="785" cy="162.5391" fill="none" rx="3" ry="3" style="stroke:#038048;stroke-width:1.0;"/><text fill="#000000" font-family="sans-serif" font-size="14" lengthAdjust="spacing" textLength="91" x="794" y="165.8857">place_id: INT</text><ellipse cx="785" cy="178.8359" fill="none" rx="3" ry="3" style="stroke:#038048;stroke-width:1.0;"/><text fill="#000000" font-family="sans-serif" font-size="14" lengthAdjust="spacing" textLength="97" x="794" y="182.1826">price: MONEY</text><ellipse cx="785" cy="195.1328" fill="none" rx="3" ry="3" style="stroke:#038048;stroke-width:1.0;"/><text fill="#000000" font-family="sans-serif" font-size="14" lengthAdjust="spacing" textLength="109" x="794" y="198.4795">paid: BOOLEAN</text><ellipse cx="785" cy="211.4297" fill="none" rx="3" ry="3" style="stroke:#038048;stroke-width:1.0;"/><text fill="#000000" font-family="sans-serif" font-size="14" lengthAdjust="spacing" textLength="133" x="794" y="214.7764">booked: BOOLEAN</text><line style="stroke:#181818;stroke-width:1.0;" x1="775" x2="1248" y1="222.0781" y2="222.0781"/><text fill="#000000" font-family="sans-serif" font-size="14" lengthAdjust="spacing" textLength="165" x="780" y="239.0732">PK tbl_ticket_pkey (id)</text><text fill="#000000" font-family="sans-serif" font-size="14" lengthAdjust="spacing" textLength="463" x="780" y="255.3701">FK tbl_ticket_place_id_fkey (place_id) REFERENCES tbl_place(id)</text><text fill="#000000" font-family="sans-serif" font-size="14" lengthAdjust="spacing" textLength="454" x="780" y="271.667">FK tbl_ticket_show_id_fkey (show_id) REFERENCES tbl_show(id)</text></g><!--link tbl_film to tbl_show--><g id="link_tbl_film_tbl_show"><path codeLine="55" d="M192.5,55 C227.389,55 210.111,55 245,55 " fill="none" id="tbl_film-tbl_show" style="stroke:#181818;stroke-width:1.0;"/><line style="stroke:#181818;stroke-width:1.0;" x1="188.5" x2="188.5" y1="59" y2="51"/><line style="stroke:#181818;stroke-width:1.0;" x1="191.5" x2="191.5" y1="59" y2="51"/><line style="stroke:#181818;stroke-width:1.0;" x1="192.5" x2="184.5" y1="55" y2="55"/><line style="stroke:#181818;stroke-width:1.0;" x1="255" x2="263" y1="55" y2="49"/><line style="stroke:#181818;stroke-width:1.0;" x1="255" x2="263" y1="55" y2="61"/><line style="stroke:#181818;stroke-width:1.0;" x1="255" x2="263" y1="55" y2="55"/><ellipse cx="249" cy="55" fill="none" rx="4" ry="4" style="stroke:#181818;stroke-width:1.0;"/></g><!--link tbl_hall to tbl_show--><g id="link_tbl_hall_tbl_show"><path codeLine="56" d="M197.5,248 C282.68,248 159.82,71 245,71 " fill="none" id="tbl_hall-tbl_show" style="stroke:#181818;stroke-width:1.0;"/><line style="stroke:#181818;stroke-width:1.0;" x1="193.5" x2="193.5" y1="252" y2="244"/><line style="stroke:#181818;stroke-width:1.0;" x1="196.5" x2="196.5" y1="252" y2="244"/><line style="stroke:#181818;stroke-width:1.0;" x1="197.5" x2="189.5" y1="248" y2="248"/><line style="stroke:#181818;stroke-width:1.0;" x1="255" x2="263" y1="71" y2="65"/><line style="stroke:#181818;stroke-width:1.0;" x1="255" x2="263" y1="71" y2="77"/><line style="stroke:#181818;stroke-width:1.0;" x1="255" x2="263" y1="71" y2="71"/><ellipse cx="249" cy="71" fill="none" rx="4" ry="4" style="stroke:#181818;stroke-width:1.0;"/></g><!--link tbl_hall to tbl_place--><g id="link_tbl_hall_tbl_place"><path codeLine="57" d="M197.5,248 C234.355,248 211.145,280 248,280 " fill="none" id="tbl_hall-tbl_place" style="stroke:#181818;stroke-width:1.0;"/><line style="stroke:#181818;stroke-width:1.0;" x1="193.5" x2="193.5" y1="252" y2="244"/><line style="stroke:#181818;stroke-width:1.0;" x1="196.5" x2="196.5" y1="252" y2="244"/><line style="stroke:#181818;stroke-width:1.0;" x1="197.5" x2="189.5" y1="248" y2="248"/><line style="stroke:#181818;stroke-width:1.0;" x1="258" x2="266" y1="280" y2="274"/><line style="stroke:#181818;stroke-width:1.0;" x1="258" x2="266" y1="280" y2="286"/><line style="stroke:#181818;stroke-width:1.0;" x1="258" x2="266" y1="280" y2="280"/><ellipse cx="252" cy="280" fill="none" rx="4" ry="4" style="stroke:#181818;stroke-width:1.0;"/></g><!--link tbl_place to tbl_ticket--><g id="link_tbl_place_tbl_ticket"><path codeLine="58" d="M704,264 C761.645,264 697.855,160 755.5,160 " fill="none" id="tbl_place-tbl_ticket" style="stroke:#181818;stroke-width:1.0;"/><line style="stroke:#181818;stroke-width:1.0;" x1="700" x2="700" y1="268" y2="260"/><line style="stroke:#181818;stroke-width:1.0;" x1="703" x2="703" y1="268" y2="260"/><line style="stroke:#181818;stroke-width:1.0;" x1="704" x2="696" y1="264" y2="264"/><line style="stroke:#181818;stroke-width:1.0;" x1="765.5" x2="773.5" y1="160" y2="154"/><line style="stroke:#181818;stroke-width:1.0;" x1="765.5" x2="773.5" y1="160" y2="166"/><line style="stroke:#181818;stroke-width:1.0;" x1="765.5" x2="773.5" y1="160" y2="160"/><ellipse cx="759.5" cy="160" fill="none" rx="4" ry="4" style="stroke:#181818;stroke-width:1.0;"/></g><!--link tbl_show to tbl_ticket--><g id="link_tbl_show_tbl_ticket"><path codeLine="59" d="M707,39 C764.22,39 698.28,144 755.5,144 " fill="none" id="tbl_show-tbl_ticket" style="stroke:#181818;stroke-width:1.0;"/><line style="stroke:#181818;stroke-width:1.0;" x1="703" x2="703" y1="43" y2="35"/><line style="stroke:#181818;stroke-width:1.0;" x1="706" x2="706" y1="43" y2="35"/><line style="stroke:#181818;stroke-width:1.0;" x1="707" x2="699" y1="39" y2="39"/><line style="stroke:#181818;stroke-width:1.0;" x1="765.5" x2="773.5" y1="144" y2="138"/><line style="stroke:#181818;stroke-width:1.0;" x1="765.5" x2="773.5" y1="144" y2="150"/><line style="stroke:#181818;stroke-width:1.0;" x1="765.5" x2="773.5" y1="144" y2="144"/><ellipse cx="759.5" cy="144" fill="none" rx="4" ry="4" style="stroke:#181818;stroke-width:1.0;"/></g><!--SRC=[fL6nRi8m4Dtp5Hv1LPPABDvIwgge9Q0GLUqKcTWK5uEHSOKgwBytSSvf3B4wb2NSkxldzzv9lZB8AAJ5-zeW9ZGlZL2xA5BBZ-elCajPh8JSebE4gjyD4WoZIPf3POIH7AEN91i_9jdWTZGQGeVnGwd5lYR3A2UlReDzQjg0ZYMExMV-r3vMx3Vy2mq46qRVdf8rbJAWP4UtVK9yyde_IBwNjEG1ThleGreTksMfPCYI9UuyMxSUkYrWBrPs1AeXoiW3oKWw9ejMV8_imreT0wfjbdyQOTHKoTqdEMcFkkN5mL1jgijDfcIH9zDvjyTtxBBZEwurzHks7T05Vg6wyblZlUl_Yik8SiDD831BxqFDXIumBSegikai9MyEelN8tMpsJ98KiALI6tw1-ZarOlgJSZru7zowyigkRGGum1PGG7N5KECkC9S_neAXypcErQcTmHWk5hcO-wVWCC4fgzWV0yYVQqnWxAn7lq_q3uB17m00]--></g></svg>