<?xml version="1.0" encoding="us-ascii" standalone="no"?><svg xmlns="http://www.w3.org/2000/svg" xmlns:xlink="http://www.w3.org/1999/xlink" contentStyleType="text/css" height="406px" preserveAspectRatio="none" style="width:1741px;height:406px;background:#FFFFFF;" version="1.1" viewBox="0 0 1741 406" width="1741px" zoomAndPan="magnify"><defs/><g><g id="elem_tbl_film"><rect fill="#F1F1F1" height="117.7813" style="stroke:#181818;stroke-width:0.5;" width="172" x="11.5" y="23"/><text fill="#000000" font-family="sans-serif" font-size="14" lengthAdjust="spacing" textLength="56" x="69.5" y="37.9951">tbl_film</text><line style="stroke:#181818;stroke-width:0.5;" x1="12.5" x2="182.5" y1="43.2969" y2="43.2969"/><ellipse cx="22.5" cy="56.9453" fill="none" rx="3" ry="3" style="stroke:#038048;stroke-width:1.0;"/><text fill="#000000" font-family="sans-serif" font-size="14" lengthAdjust="spacing" textLength="45" x="31.5" y="60.292">id: INT</text><ellipse cx="22.5" cy="73.2422" fill="#84BE84" rx="3" ry="3" style="stroke:#038048;stroke-width:1.0;"/><text fill="#000000" font-family="sans-serif" font-size="14" lengthAdjust="spacing" textLength="146" x="31.5" y="76.5889">title: VARCHAR(255)</text><ellipse cx="22.5" cy="89.5391" fill="none" rx="3" ry="3" style="stroke:#038048;stroke-width:1.0;"/><text fill="#000000" font-family="sans-serif" font-size="14" lengthAdjust="spacing" textLength="128" x="31.5" y="92.8857">description: TEXT</text><ellipse cx="22.5" cy="105.8359" fill="none" rx="3" ry="3" style="stroke:#038048;stroke-width:1.0;"/><text fill="#000000" font-family="sans-serif" font-size="14" lengthAdjust="spacing" textLength="92" x="31.5" y="109.1826">duration: INT</text><line style="stroke:#181818;stroke-width:1.0;" x1="12.5" x2="182.5" y1="116.4844" y2="116.4844"/><text fill="#000000" font-family="sans-serif" font-size="14" lengthAdjust="spacing" textLength="149" x="17.5" y="133.4795">PK tbl_film_pkey (id)</text></g><g id="elem_tbl_hall"><rect fill="#F1F1F1" height="117.7813" style="stroke:#181818;stroke-width:0.5;" width="181" x="7" y="224"/><text fill="#000000" font-family="sans-serif" font-size="14" lengthAdjust="spacing" textLength="53" x="71" y="238.9951">tbl_hall</text><line style="stroke:#181818;stroke-width:0.5;" x1="8" x2="187" y1="244.2969" y2="244.2969"/><ellipse cx="18" cy="257.9453" fill="none" rx="3" ry="3" style="stroke:#038048;stroke-width:1.0;"/><text fill="#000000" font-family="sans-serif" font-size="14" lengthAdjust="spacing" textLength="45" x="27" y="261.292">id: INT</text><ellipse cx="18" cy="274.2422" fill="#84BE84" rx="3" ry="3" style="stroke:#038048;stroke-width:1.0;"/><text fill="#000000" font-family="sans-serif" font-size="14" lengthAdjust="spacing" textLength="155" x="27" y="277.5889">name: VARCHAR(255)</text><ellipse cx="18" cy="290.5391" fill="none" rx="3" ry="3" style="stroke:#038048;stroke-width:1.0;"/><text fill="#000000" font-family="sans-serif" font-size="14" lengthAdjust="spacing" textLength="65" x="27" y="293.8857">rows: INT</text><ellipse cx="18" cy="306.8359" fill="none" rx="3" ry="3" style="stroke:#038048;stroke-width:1.0;"/><text fill="#000000" font-family="sans-serif" font-size="14" lengthAdjust="spacing" textLength="60" x="27" y="310.1826">cols: INT</text><line style="stroke:#181818;stroke-width:1.0;" x1="8" x2="187" y1="317.4844" y2="317.4844"/><text fill="#000000" font-family="sans-serif" font-size="14" lengthAdjust="spacing" textLength="146" x="13" y="334.4795">PK tbl_hall_pkey (id)</text></g><g id="elem_tbl_place"><rect fill="#F1F1F1" height="150.375" style="stroke:#181818;stroke-width:0.5;" width="428" x="267" y="249.5"/><text fill="#000000" font-family="sans-serif" font-size="14" lengthAdjust="spacing" textLength="67" x="447.5" y="264.4951">tbl_place</text><line style="stroke:#181818;stroke-width:0.5;" x1="268" x2="694" y1="269.7969" y2="269.7969"/><ellipse cx="278" cy="283.4453" fill="none" rx="3" ry="3" style="stroke:#038048;stroke-width:1.0;"/><text fill="#000000" font-family="sans-serif" font-size="14" lengthAdjust="spacing" textLength="45" x="287" y="286.792">id: INT</text><ellipse cx="278" cy="299.7422" fill="none" rx="3" ry="3" style="stroke:#038048;stroke-width:1.0;"/><text fill="#000000" font-family="sans-serif" font-size="14" lengthAdjust="spacing" textLength="77" x="287" y="303.0889">hall_id: INT</text><ellipse cx="278" cy="316.0391" fill="none" rx="3" ry="3" style="stroke:#038048;stroke-width:1.0;"/><text fill="#000000" font-family="sans-serif" font-size="14" lengthAdjust="spacing" textLength="58" x="287" y="319.3857">row: INT</text><ellipse cx="278" cy="332.3359" fill="none" rx="3" ry="3" style="stroke:#038048;stroke-width:1.0;"/><text fill="#000000" font-family="sans-serif" font-size="14" lengthAdjust="spacing" textLength="53" x="287" y="335.6826">col: INT</text><ellipse cx="278" cy="348.6328" fill="none" rx="3" ry="3" style="stroke:#038048;stroke-width:1.0;"/><text fill="#000000" font-family="sans-serif" font-size="14" lengthAdjust="spacing" textLength="87" x="287" y="351.9795">markup: INT</text><line style="stroke:#181818;stroke-width:1.0;" x1="268" x2="694" y1="359.2813" y2="359.2813"/><text fill="#000000" font-family="sans-serif" font-size="14" lengthAdjust="spacing" textLength="160" x="273" y="376.2764">PK tbl_place_pkey (id)</text><text fill="#000000" font-family="sans-serif" font-size="14" lengthAdjust="spacing" textLength="416" x="273" y="392.5732">FK tbl_place_hall_id_fkey (hall_id) REFERENCES tbl_hall(id)</text></g><g id="elem_tbl_show"><rect fill="#F1F1F1" height="199.2656" style="stroke:#181818;stroke-width:0.5;" width="434" x="264" y="7"/><text fill="#000000" font-family="sans-serif" font-size="14" lengthAdjust="spacing" textLength="64" x="449" y="21.9951">tbl_show</text><line style="stroke:#181818;stroke-width:0.5;" x1="265" x2="697" y1="27.2969" y2="27.2969"/><ellipse cx="275" cy="40.9453" fill="none" rx="3" ry="3" style="stroke:#038048;stroke-width:1.0;"/><text fill="#000000" font-family="sans-serif" font-size="14" lengthAdjust="spacing" textLength="45" x="284" y="44.292">id: INT</text><ellipse cx="275" cy="57.2422" fill="none" rx="3" ry="3" style="stroke:#038048;stroke-width:1.0;"/><text fill="#000000" font-family="sans-serif" font-size="14" lengthAdjust="spacing" textLength="80" x="284" y="60.5889">film_id: INT</text><ellipse cx="275" cy="73.5391" fill="none" rx="3" ry="3" style="stroke:#038048;stroke-width:1.0;"/><text fill="#000000" font-family="sans-serif" font-size="14" lengthAdjust="spacing" textLength="77" x="284" y="76.8857">hall_id: INT</text><ellipse cx="275" cy="89.8359" fill="none" rx="3" ry="3" style="stroke:#038048;stroke-width:1.0;"/><text fill="#000000" font-family="sans-serif" font-size="14" lengthAdjust="spacing" textLength="138" x="284" y="93.1826">base_price: MONEY</text><ellipse cx="275" cy="106.1328" fill="none" rx="3" ry="3" style="stroke:#038048;stroke-width:1.0;"/><text fill="#000000" font-family="sans-serif" font-size="14" lengthAdjust="spacing" textLength="81" x="284" y="109.4795">date: DATE</text><ellipse cx="275" cy="122.4297" fill="none" rx="3" ry="3" style="stroke:#038048;stroke-width:1.0;"/><text fill="#000000" font-family="sans-serif" font-size="14" lengthAdjust="spacing" textLength="168" x="284" y="125.7764">time_start: TIMESTAMP</text><ellipse cx="275" cy="138.7266" fill="none" rx="3" ry="3" style="stroke:#038048;stroke-width:1.0;"/><text fill="#000000" font-family="sans-serif" font-size="14" lengthAdjust="spacing" textLength="160" x="284" y="142.0732">time_end: TIMESTAMP</text><line style="stroke:#181818;stroke-width:1.0;" x1="265" x2="697" y1="149.375" y2="149.375"/><text fill="#000000" font-family="sans-serif" font-size="14" lengthAdjust="spacing" textLength="157" x="270" y="166.3701">PK tbl_show_pkey (id)</text><text fill="#000000" font-family="sans-serif" font-size="14" lengthAdjust="spacing" textLength="422" x="270" y="182.667">FK tbl_show_film_id_fkey (film_id) REFERENCES tbl_film(id)</text><text fill="#000000" font-family="sans-serif" font-size="14" lengthAdjust="spacing" textLength="413" x="270" y="198.9639">FK tbl_show_hall_id_fkey (hall_id) REFERENCES tbl_hall(id)</text></g><g id="elem_tbl_price"><rect fill="#F1F1F1" height="166.6719" style="stroke:#181818;stroke-width:0.5;" width="468" x="774" y="104.5"/><text fill="#000000" font-family="sans-serif" font-size="14" lengthAdjust="spacing" textLength="65" x="975.5" y="119.4951">tbl_price</text><line style="stroke:#181818;stroke-width:0.5;" x1="775" x2="1241" y1="124.7969" y2="124.7969"/><ellipse cx="785" cy="138.4453" fill="none" rx="3" ry="3" style="stroke:#038048;stroke-width:1.0;"/><text fill="#000000" font-family="sans-serif" font-size="14" lengthAdjust="spacing" textLength="49" x="794" y="141.792">id : INT</text><ellipse cx="785" cy="154.7422" fill="none" rx="3" ry="3" style="stroke:#038048;stroke-width:1.0;"/><text fill="#000000" font-family="sans-serif" font-size="14" lengthAdjust="spacing" textLength="92" x="794" y="158.0889">show_id : INT</text><ellipse cx="785" cy="171.0391" fill="none" rx="3" ry="3" style="stroke:#038048;stroke-width:1.0;"/><text fill="#000000" font-family="sans-serif" font-size="14" lengthAdjust="spacing" textLength="95" x="794" y="174.3857">place_id : INT</text><ellipse cx="785" cy="187.3359" fill="none" rx="3" ry="3" style="stroke:#038048;stroke-width:1.0;"/><text fill="#000000" font-family="sans-serif" font-size="14" lengthAdjust="spacing" textLength="101" x="794" y="190.6826">price : MONEY</text><line style="stroke:#181818;stroke-width:1.0;" x1="775" x2="1241" y1="197.9844" y2="197.9844"/><text fill="#000000" font-family="sans-serif" font-size="14" lengthAdjust="spacing" textLength="158" x="780" y="214.9795">PK tbl_price_pkey (id)</text><text fill="#000000" font-family="sans-serif" font-size="14" lengthAdjust="spacing" textLength="456" x="780" y="231.2764">FK tbl_price_place_id_fkey (place_id) REFERENCES tbl_place(id)</text><text fill="#000000" font-family="sans-serif" font-size="14" lengthAdjust="spacing" textLength="447" x="780" y="247.5732">FK tbl_price_show_id_fkey (show_id) REFERENCES tbl_show(id)</text><text fill="#000000" font-family="sans-serif" font-size="14" lengthAdjust="spacing" textLength="404" x="780" y="263.8701">CONSTRAINT tbl_price_unique UNIQUE (place_id,show_id)</text></g><g id="elem_tbl_ticket"><rect fill="#F1F1F1" height="150.375" style="stroke:#181818;stroke-width:0.5;" width="416" x="1318" y="104.5"/><text fill="#000000" font-family="sans-serif" font-size="14" lengthAdjust="spacing" textLength="72" x="1490" y="119.4951">tbl_ticket</text><line style="stroke:#181818;stroke-width:0.5;" x1="1319" x2="1733" y1="124.7969" y2="124.7969"/><ellipse cx="1329" cy="138.4453" fill="none" rx="3" ry="3" style="stroke:#038048;stroke-width:1.0;"/><text fill="#000000" font-family="sans-serif" font-size="14" lengthAdjust="spacing" textLength="45" x="1338" y="141.792">id: INT</text><ellipse cx="1329" cy="154.7422" fill="none" rx="3" ry="3" style="stroke:#038048;stroke-width:1.0;"/><text fill="#000000" font-family="sans-serif" font-size="14" lengthAdjust="spacing" textLength="88" x="1338" y="158.0889">show_id: INT</text><ellipse cx="1329" cy="171.0391" fill="none" rx="3" ry="3" style="stroke:#038048;stroke-width:1.0;"/><text fill="#000000" font-family="sans-serif" font-size="14" lengthAdjust="spacing" textLength="91" x="1338" y="174.3857">place_id: INT</text><ellipse cx="1329" cy="187.3359" fill="none" rx="3" ry="3" style="stroke:#038048;stroke-width:1.0;"/><text fill="#000000" font-family="sans-serif" font-size="14" lengthAdjust="spacing" textLength="97" x="1338" y="190.6826">price: MONEY</text><ellipse cx="1329" cy="203.6328" fill="none" rx="3" ry="3" style="stroke:#038048;stroke-width:1.0;"/><text fill="#000000" font-family="sans-serif" font-size="14" lengthAdjust="spacing" textLength="109" x="1338" y="206.9795">paid: BOOLEAN</text><line style="stroke:#181818;stroke-width:1.0;" x1="1319" x2="1733" y1="214.2813" y2="214.2813"/><text fill="#000000" font-family="sans-serif" font-size="14" lengthAdjust="spacing" textLength="165" x="1324" y="231.2764">PK tbl_ticket_pkey (id)</text><text fill="#000000" font-family="sans-serif" font-size="14" lengthAdjust="spacing" textLength="404" x="1324" y="247.5732">CONSTRAINT tbl_price_unique UNIQUE (place_id,show_id)</text></g><!--link tbl_film to tbl_show--><g id="link_tbl_film_tbl_show"><path codeLine="69" d="M192.5,55.5 C227.389,55.5 210.111,55.5 245,55.5 " fill="none" id="tbl_film-tbl_show" style="stroke:#181818;stroke-width:1.0;"/><line style="stroke:#181818;stroke-width:1.0;" x1="188.5" x2="188.5" y1="59.5" y2="51.5"/><line style="stroke:#181818;stroke-width:1.0;" x1="191.5" x2="191.5" y1="59.5" y2="51.5"/><line style="stroke:#181818;stroke-width:1.0;" x1="192.5" x2="184.5" y1="55.5" y2="55.5"/><line style="stroke:#181818;stroke-width:1.0;" x1="255" x2="263" y1="55.5" y2="49.5"/><line style="stroke:#181818;stroke-width:1.0;" x1="255" x2="263" y1="55.5" y2="61.5"/><line style="stroke:#181818;stroke-width:1.0;" x1="255" x2="263" y1="55.5" y2="55.5"/><ellipse cx="249" cy="55.5" fill="none" rx="4" ry="4" style="stroke:#181818;stroke-width:1.0;"/></g><!--link tbl_hall to tbl_show--><g id="link_tbl_hall_tbl_show"><path codeLine="70" d="M197.5,256.5 C285.974,256.5 156.526,71.5 245,71.5 " fill="none" id="tbl_hall-tbl_show" style="stroke:#181818;stroke-width:1.0;"/><line style="stroke:#181818;stroke-width:1.0;" x1="193.5" x2="193.5" y1="260.5" y2="252.5"/><line style="stroke:#181818;stroke-width:1.0;" x1="196.5" x2="196.5" y1="260.5" y2="252.5"/><line style="stroke:#181818;stroke-width:1.0;" x1="197.5" x2="189.5" y1="256.5" y2="256.5"/><line style="stroke:#181818;stroke-width:1.0;" x1="255" x2="263" y1="71.5" y2="65.5"/><line style="stroke:#181818;stroke-width:1.0;" x1="255" x2="263" y1="71.5" y2="77.5"/><line style="stroke:#181818;stroke-width:1.0;" x1="255" x2="263" y1="71.5" y2="71.5"/><ellipse cx="249" cy="71.5" fill="none" rx="4" ry="4" style="stroke:#181818;stroke-width:1.0;"/></g><!--link tbl_hall to tbl_place--><g id="link_tbl_hall_tbl_place"><path codeLine="71" d="M197.5,256.5 C236.075,256.5 209.425,297.5 248,297.5 " fill="none" id="tbl_hall-tbl_place" style="stroke:#181818;stroke-width:1.0;"/><line style="stroke:#181818;stroke-width:1.0;" x1="193.5" x2="193.5" y1="260.5" y2="252.5"/><line style="stroke:#181818;stroke-width:1.0;" x1="196.5" x2="196.5" y1="260.5" y2="252.5"/><line style="stroke:#181818;stroke-width:1.0;" x1="197.5" x2="189.5" y1="256.5" y2="256.5"/><line style="stroke:#181818;stroke-width:1.0;" x1="258" x2="266" y1="297.5" y2="291.5"/><line style="stroke:#181818;stroke-width:1.0;" x1="258" x2="266" y1="297.5" y2="303.5"/><line style="stroke:#181818;stroke-width:1.0;" x1="258" x2="266" y1="297.5" y2="297.5"/><ellipse cx="252" cy="297.5" fill="none" rx="4" ry="4" style="stroke:#181818;stroke-width:1.0;"/></g><!--link tbl_place to tbl_price--><g id="link_tbl_place_tbl_price"><path codeLine="72" d="M704,281.5 C764.774,281.5 694.226,168.5 755,168.5 " fill="none" id="tbl_place-tbl_price" style="stroke:#181818;stroke-width:1.0;"/><line style="stroke:#181818;stroke-width:1.0;" x1="700" x2="700" y1="285.5" y2="277.5"/><line style="stroke:#181818;stroke-width:1.0;" x1="703" x2="703" y1="285.5" y2="277.5"/><line style="stroke:#181818;stroke-width:1.0;" x1="704" x2="696" y1="281.5" y2="281.5"/><line style="stroke:#181818;stroke-width:1.0;" x1="765" x2="773" y1="168.5" y2="162.5"/><line style="stroke:#181818;stroke-width:1.0;" x1="765" x2="773" y1="168.5" y2="174.5"/><line style="stroke:#181818;stroke-width:1.0;" x1="765" x2="773" y1="168.5" y2="168.5"/><ellipse cx="759" cy="168.5" fill="none" rx="4" ry="4" style="stroke:#181818;stroke-width:1.0;"/></g><!--link tbl_show to tbl_price--><g id="link_tbl_show_tbl_price"><path codeLine="73" d="M707,39.5 C767.033,39.5 694.967,152.5 755,152.5 " fill="none" id="tbl_show-tbl_price" style="stroke:#181818;stroke-width:1.0;"/><line style="stroke:#181818;stroke-width:1.0;" x1="703" x2="703" y1="43.5" y2="35.5"/><line style="stroke:#181818;stroke-width:1.0;" x1="706" x2="706" y1="43.5" y2="35.5"/><line style="stroke:#181818;stroke-width:1.0;" x1="707" x2="699" y1="39.5" y2="39.5"/><line style="stroke:#181818;stroke-width:1.0;" x1="765" x2="773" y1="152.5" y2="146.5"/><line style="stroke:#181818;stroke-width:1.0;" x1="765" x2="773" y1="152.5" y2="158.5"/><line style="stroke:#181818;stroke-width:1.0;" x1="765" x2="773" y1="152.5" y2="152.5"/><ellipse cx="759" cy="152.5" fill="none" rx="4" ry="4" style="stroke:#181818;stroke-width:1.0;"/></g><!--link tbl_price to tbl_ticket--><g id="link_tbl_price_tbl_ticket"><path codeLine="77" d="M1251,152.5 C1283.89,152.5 1276.11,152.5 1309,152.5 " fill="none" id="tbl_price-tbl_ticket" style="stroke:#181818;stroke-width:1.0;stroke-dasharray:7.0,7.0;"/><line style="stroke:#181818;stroke-width:1.0;" x1="1247" x2="1247" y1="156.5" y2="148.5"/><line style="stroke:#181818;stroke-width:1.0;" x1="1250" x2="1250" y1="156.5" y2="148.5"/><line style="stroke:#181818;stroke-width:1.0;" x1="1251" x2="1243" y1="152.5" y2="152.5"/><line style="stroke:#181818;stroke-width:1.0;" x1="1313" x2="1313" y1="148.5" y2="156.5"/><line style="stroke:#181818;stroke-width:1.0;" x1="1310" x2="1310" y1="148.5" y2="156.5"/><line style="stroke:#181818;stroke-width:1.0;" x1="1309" x2="1317" y1="152.5" y2="152.5"/></g><!--link tbl_price to tbl_ticket--><g id="link_tbl_price_tbl_ticket"><path codeLine="78" d="M1251,168.5 C1283.89,168.5 1276.11,168.5 1309,168.5 " fill="none" id="tbl_price-tbl_ticket-1" style="stroke:#181818;stroke-width:1.0;stroke-dasharray:7.0,7.0;"/><line style="stroke:#181818;stroke-width:1.0;" x1="1247" x2="1247" y1="172.5" y2="164.5"/><line style="stroke:#181818;stroke-width:1.0;" x1="1250" x2="1250" y1="172.5" y2="164.5"/><line style="stroke:#181818;stroke-width:1.0;" x1="1251" x2="1243" y1="168.5" y2="168.5"/><line style="stroke:#181818;stroke-width:1.0;" x1="1313" x2="1313" y1="164.5" y2="172.5"/><line style="stroke:#181818;stroke-width:1.0;" x1="1310" x2="1310" y1="164.5" y2="172.5"/><line style="stroke:#181818;stroke-width:1.0;" x1="1309" x2="1317" y1="168.5" y2="168.5"/></g><!--SRC=[fL9TJy8m57tVh-YR4iK74r_sDh54eWmTm-WJALkHoc1pAp66-T_joktejbOJvMNShtFEFRq9NNB4KvIprnL7CSjfn5cwTPnqyIR-8hv8vakMRD3UGU9tXbZief4VGiGPJwYBdhnWSEi5fvTNLpsenBI8SfPLO2uAyREQY7SvEIGLIhylFmztDTayMzDFTChYdlFLKB8YIM9HiYKRiv0y_IZqnYXD2XjvXMybpn8IKGkx76oc16-BLWyt95_lCfiEIQK9gKf3lGHyywLiWQY70Zp40VO7U5glOrYaMAKVbZsa-x-kjY25K9UpI3W-dlZuHRqjuI9puuMuFeyDdHUSv5pSm6YCfw4tVj1hT1ktAqqdAgrc8sG5z88F47LygFB6yN_PA0tGV4IwHHA-bJiyNJifKNGVMwTGrIsdS2W1AYoXmiuMic260B600547eChNyuE9Fmq3J-oXuUosx7r7qSmVFSxmKSgvGcmPo5cqfjnoYJ1ZygzZN_CACrArN4yczzZp3OuUQ5kM_daVTL-kAnwsBFlzT5-xvRfmaOuw8tCN79wrIn8tso3LwfDck4gdSsGmzi4QpaatLvON5sMfsMNkLao6zbg4qqL7Fy0RqD4FyDy0]--></g></svg>