<svg width="16" height="16" viewBox="0 0 16 16" fill="none" xmlns="http://www.w3.org/2000/svg">
<g clip-path="url(#clip0_957_1400)">
<path d="M8 16C12.4183 16 16 12.4183 16 8C16 3.58172 12.4183 0 8 0C3.58172 0 0 3.58172 0 8C0 12.4183 3.58172 16 8 16Z" fill="#008CFF"/>
<path d="M10.9801 9.10243C10.6351 8.89843 10.2466 8.83943 9.86156 8.82543C9.53856 8.81393 9.05656 8.60193 9.05656 8.00043C9.05656 7.55143 9.41156 7.19043 9.86156 7.17443C10.2466 7.16093 10.6356 7.10143 10.9806 6.89743C11.8371 6.39043 12.2156 5.32693 11.8771 4.37443C11.5386 3.42193 10.5816 2.85593 9.60706 3.03193C8.63256 3.20793 7.92206 4.07493 7.92206 5.08893C7.92206 5.49343 8.06306 5.86593 8.24206 6.21093C8.39306 6.50143 8.46906 7.04093 7.95206 7.34643C7.56706 7.57393 7.08706 7.42993 6.84706 7.03693C6.64506 6.70493 6.40056 6.39393 6.05806 6.19143C5.20156 5.68443 4.11306 5.88143 3.47706 6.65743C3.16847 7.0368 3 7.5109 3 7.99993C3 8.48896 3.16847 8.96306 3.47706 9.34243C4.11306 10.1189 5.20156 10.3154 6.05806 9.80843C6.40056 9.60643 6.64506 9.29543 6.84756 8.96343C7.01356 8.69093 7.42856 8.34343 7.95206 8.65343C8.33606 8.88093 8.45506 9.37843 8.24206 9.78893C8.06256 10.1339 7.92206 10.5064 7.92206 10.9114C7.92206 11.9249 8.63256 12.7919 9.60706 12.9679C10.5816 13.1439 11.5386 12.5779 11.8771 11.6254C12.2151 10.6729 11.8371 9.60943 10.9806 9.10243H10.9801Z" fill="white"/>
</g>
<defs>
<clipPath id="clip0_957_1400">
<rect width="16" height="16" fill="white"/>
</clipPath>
</defs>
</svg>
