<svg width="16" height="16" viewBox="0 0 16 16" fill="none" xmlns="http://www.w3.org/2000/svg">
<g clip-path="url(#clip0_957_1186)">
<path d="M7.99998 16C12.4182 16 16 12.4182 16 7.99998C16 3.58171 12.4182 0 7.99998 0C3.58171 0 0 3.58171 0 7.99998C0 12.4182 3.58171 16 7.99998 16Z" fill="#328332"/>
<path d="M7.99449 8.27648L4.634 7.98798L7.99399 6.08699V8.27648H7.99449ZM7.99449 10.5065V13.9765C6.82599 12.1575 5.538 10.1555 4.5 8.53498C5.725 9.22498 7.00399 9.94648 7.99449 10.507V10.5065ZM7.99449 5.47249L4.5 7.42248L7.99449 2V5.47249Z" fill="white"/>
<path d="M11.3546 7.98798L7.99414 8.27648V6.08699L11.3541 7.98798H11.3546ZM7.99414 10.507C8.98414 9.94698 10.2626 9.22498 11.4881 8.53498C10.4501 10.156 9.16214 12.158 7.99414 13.976V10.507ZM7.99414 5.47249V2L11.4881 7.42248L7.99414 5.47249Z" fill="white" fill-opacity="0.601"/>
<path opacity="0.2" fill-rule="evenodd" clip-rule="evenodd" d="M7.99414 8.27678L11.3541 7.98828L7.99414 9.87578V8.27678Z" fill="white"/>
<path opacity="0.603" fill-rule="evenodd" clip-rule="evenodd" d="M7.9933 8.27678L4.63281 7.98828L7.9933 9.87578V8.27678Z" fill="white"/>
</g>
<defs>
<clipPath id="clip0_957_1186">
<rect width="16" height="16" rx="3.62026" fill="white"/>
</clipPath>
</defs>
</svg>
