<svg width="16" height="16" viewBox="0 0 16 16" fill="none" xmlns="http://www.w3.org/2000/svg">
<g clip-path="url(#clip0_957_1327)">
<path d="M8.00002 16C12.4183 16 16 12.4183 16 8.00002C16 3.58173 12.4183 0 8.00002 0C3.58173 0 0 3.58173 0 8.00002C0 12.4183 3.58173 16 8.00002 16Z" fill="#FF007A"/>
<path d="M6.13063 2.88533C5.98813 2.86333 5.98213 2.86033 6.04913 2.85033C6.17763 2.83033 6.48163 2.85783 6.69113 2.90733C7.17963 3.02383 7.62413 3.32133 8.09913 3.84983L8.22513 3.98983L8.40513 3.96133C9.16514 3.83883 9.93864 3.93633 10.5851 4.23483C10.7631 4.31683 11.0436 4.48033 11.0786 4.52283C11.0901 4.53583 11.1106 4.62233 11.1241 4.71433C11.1721 5.03283 11.1481 5.27683 11.0511 5.45933C10.9981 5.55834 10.9951 5.58934 11.0306 5.67434C11.0475 5.70944 11.0739 5.73912 11.1067 5.75998C11.1396 5.78084 11.1777 5.79205 11.2166 5.79234C11.3776 5.79234 11.5506 5.53234 11.6306 5.17083L11.6626 5.02733L11.7256 5.09883C12.0716 5.49084 12.3431 6.02534 12.3896 6.40534L12.4021 6.50484L12.3436 6.41484C12.2436 6.25984 12.1436 6.15384 12.0146 6.06834C11.7826 5.91484 11.5371 5.86284 10.8871 5.82834C10.3001 5.79734 9.96764 5.74734 9.63864 5.63984C9.07814 5.45733 8.79564 5.21383 8.12963 4.34033C7.83413 3.95233 7.65113 3.73783 7.46963 3.56533C7.05613 3.17233 6.65013 2.96633 6.13063 2.88533Z" fill="white"/>
<path d="M11.2114 3.75178C11.2264 3.49178 11.2614 3.32028 11.3324 3.16378C11.3604 3.10178 11.3869 3.05078 11.3909 3.05078C11.3864 3.08588 11.3772 3.1202 11.3634 3.15278C11.3119 3.30478 11.3034 3.51278 11.3389 3.75428C11.3839 4.06128 11.4099 4.10528 11.7339 4.43679C11.8864 4.59229 12.0634 4.78829 12.1274 4.87279L12.2439 5.02579L12.1274 4.91629C11.9849 4.78279 11.6569 4.52129 11.5844 4.48429C11.5359 4.45929 11.5284 4.45979 11.4984 4.48929C11.4709 4.51729 11.4649 4.55829 11.4614 4.75379C11.4554 5.05779 11.4139 5.25379 11.3134 5.44879C11.2594 5.55379 11.2509 5.53179 11.2999 5.41229C11.3364 5.32329 11.3399 5.28429 11.3399 4.98979C11.3399 4.39779 11.2694 4.25579 10.8569 4.01178C10.7327 3.93976 10.6053 3.87369 10.4749 3.81378C10.4104 3.78794 10.3479 3.75753 10.2879 3.72278C10.2994 3.71128 10.7014 3.82828 10.8629 3.89078C11.1039 3.98328 11.1434 3.99528 11.1729 3.98378C11.1924 3.97628 11.2019 3.91928 11.2114 3.75178ZM6.40785 4.76429C6.11834 4.36579 5.93934 3.75428 5.97784 3.29728L5.98984 3.15578L6.05584 3.16778C6.17984 3.19028 6.39335 3.26978 6.49335 3.33078C6.76735 3.49728 6.88635 3.71678 7.00685 4.27978C7.04235 4.44479 7.08885 4.63129 7.11035 4.69479C7.14435 4.79629 7.27435 5.03379 7.38035 5.18829C7.45635 5.29929 7.40535 5.35179 7.23735 5.33679C6.98035 5.31329 6.63235 5.07329 6.40785 4.76429ZM10.8604 7.7318C9.50685 7.18679 9.03035 6.71379 9.03035 5.91579C9.03035 5.79829 9.03435 5.70229 9.03885 5.70229C9.04385 5.70229 9.09635 5.74079 9.15535 5.78829C9.42985 6.00829 9.73736 6.10229 10.5879 6.22629C11.0884 6.29979 11.3704 6.35879 11.6304 6.44479C12.4564 6.71879 12.9674 7.27479 13.0894 8.0318C13.1244 8.2518 13.1039 8.6643 13.0464 8.8818C13.0014 9.0538 12.8629 9.3633 12.8264 9.3753C12.8164 9.3783 12.8064 9.3398 12.8034 9.2863C12.7894 9.0023 12.6459 8.7253 12.4044 8.5178C12.1299 8.2823 11.7614 8.0943 10.8599 7.7318H10.8604ZM9.91036 7.9578C9.89437 7.86122 9.87249 7.76571 9.84486 7.6718L9.80986 7.56879L9.87436 7.6408C9.96286 7.7408 10.0334 7.8678 10.0924 8.0378C10.1379 8.1673 10.1429 8.2058 10.1424 8.4163C10.1424 8.6233 10.1369 8.6663 10.0949 8.7833C10.0365 8.95486 9.93868 9.11035 9.80936 9.2373C9.56186 9.4893 9.24435 9.6283 8.78535 9.6863C8.70535 9.6963 8.47335 9.7133 8.26885 9.7238C7.75385 9.7508 7.41535 9.8058 7.11085 9.9128C7.08339 9.92511 7.05389 9.93223 7.02385 9.9338C7.01185 9.9213 7.21885 9.7978 7.39035 9.7153C7.63185 9.5988 7.87185 9.5353 8.41035 9.4458C8.67635 9.4013 8.95135 9.3478 9.02085 9.3263C9.67986 9.1243 10.0184 8.6033 9.90986 7.9578H9.91036Z" fill="white"/>
<path d="M10.5299 9.05832C10.3499 8.67181 10.3089 8.29831 10.4074 7.95031C10.4179 7.91331 10.4349 7.88281 10.4449 7.88281C10.4787 7.89506 10.5106 7.91225 10.5394 7.93381C10.6224 7.98981 10.7884 8.08381 11.2309 8.32481C11.7834 8.62631 12.0984 8.85982 12.3129 9.12582C12.5004 9.35932 12.6164 9.62532 12.6724 9.94932C12.7039 10.1328 12.6854 10.5743 12.6384 10.7593C12.4899 11.3423 12.1444 11.8003 11.6524 12.0673C11.606 12.0942 11.5579 12.1181 11.5084 12.1388C11.5014 12.1388 11.5274 12.0723 11.5669 11.9903C11.7319 11.6443 11.7514 11.3073 11.6259 10.9323C11.5494 10.7028 11.3929 10.4223 11.0774 9.94932C10.7104 9.39932 10.6204 9.25232 10.5299 9.05832ZM5.44638 11.1438C5.94888 10.7198 6.57338 10.4188 7.14288 10.3263C7.38788 10.2863 7.79688 10.3023 8.02388 10.3603C8.38788 10.4533 8.71389 10.6623 8.88339 10.9108C9.04839 11.1538 9.11989 11.3658 9.19339 11.8368C9.22339 12.0228 9.25489 12.2093 9.26439 12.2518C9.31939 12.4958 9.42789 12.6913 9.56189 12.7893C9.77439 12.9448 10.1409 12.9543 10.5009 12.8143C10.5385 12.7971 10.5782 12.7846 10.6189 12.7773C10.6319 12.7903 10.4509 12.9118 10.3229 12.9758C10.1718 13.0567 10.0027 13.0976 9.83139 13.0948C9.50139 13.0948 9.22739 12.9273 8.99889 12.5848C8.95389 12.5173 8.85289 12.3158 8.77389 12.1363C8.53288 11.5863 8.41388 11.4183 8.13388 11.2348C7.88938 11.0748 7.57488 11.0463 7.33838 11.1623C7.02738 11.3148 6.94088 11.7123 7.16338 11.9638C7.25188 12.0638 7.41688 12.1503 7.55188 12.1668C7.61077 12.1746 7.67065 12.1697 7.72747 12.1524C7.7843 12.135 7.83673 12.1057 7.88124 12.0664C7.92576 12.027 7.9613 11.9786 7.98548 11.9243C8.00965 11.8701 8.0219 11.8112 8.02138 11.7518C8.02138 11.5858 7.95738 11.4918 7.79738 11.4193C7.57888 11.3208 7.34388 11.4358 7.34488 11.6413C7.34538 11.7288 7.38338 11.7838 7.47138 11.8238C7.52788 11.8488 7.52888 11.8513 7.48288 11.8418C7.28238 11.7998 7.23538 11.5583 7.39688 11.3978C7.59038 11.2048 7.99088 11.2898 8.12838 11.5528C8.18638 11.6633 8.19288 11.8838 8.14238 12.0168C8.02988 12.3143 7.70088 12.4703 7.36738 12.3853C7.14038 12.3273 7.04788 12.2648 6.77438 11.9828C6.29888 11.4928 6.11438 11.3978 5.42838 11.2908L5.29688 11.2703L5.44688 11.1438H5.44638Z" fill="white"/>
<path fill-rule="evenodd" clip-rule="evenodd" d="M3.09766 1.67575L3.14566 1.73425C4.99966 4.00426 5.95767 5.18226 6.01867 5.26626C6.11867 5.40526 6.08117 5.52976 5.90917 5.62776C5.81366 5.68226 5.61666 5.73726 5.51866 5.73726C5.40716 5.73726 5.28166 5.68376 5.19016 5.59726C5.12566 5.53576 4.86516 5.14676 4.26366 4.21326C3.98199 3.77205 3.69664 3.3332 3.40766 2.89675C3.38316 2.87375 3.38366 2.87425 4.21666 4.36476C4.73966 5.30076 4.91666 5.63126 4.91666 5.67576C4.91666 5.76576 4.89166 5.81276 4.78066 5.93676C4.59566 6.14326 4.51316 6.37526 4.45316 6.85527C4.38616 7.39377 4.19816 7.77377 3.67616 8.42427C3.37116 8.80527 3.32116 8.87527 3.24366 9.02877C3.14666 9.22177 3.12016 9.33027 3.10916 9.57427C3.09766 9.83228 3.12016 9.99928 3.19916 10.2458C3.26816 10.4618 3.34016 10.6048 3.52416 10.8898C3.68316 11.1363 3.77466 11.3193 3.77466 11.3908C3.77466 11.4478 3.78566 11.4478 4.03216 11.3923C4.62166 11.2593 5.10016 11.0248 5.36966 10.7378C5.53616 10.5603 5.57516 10.4623 5.57666 10.2188C5.57716 10.0598 5.57166 10.0263 5.52866 9.93478C5.45866 9.78578 5.33116 9.66177 5.05016 9.46977C4.68166 9.21777 4.52466 9.01477 4.48116 8.73627C4.44516 8.50777 4.48666 8.34627 4.69066 7.91927C4.90116 7.47727 4.95366 7.28927 4.98916 6.84377C5.01166 6.55577 5.04316 6.44227 5.12616 6.35126C5.21216 6.25626 5.29016 6.22376 5.50366 6.19476C5.85167 6.14726 6.07317 6.05726 6.25517 5.88976C6.41317 5.74376 6.47917 5.60326 6.48917 5.39226L6.49717 5.23226L6.40867 5.12926C6.28167 4.98126 5.23116 3.82226 3.25666 1.65125L3.20366 1.59375L3.09766 1.67625V1.67575ZM3.95466 9.86678C3.98954 9.80501 3.99996 9.7324 3.98385 9.66332C3.96773 9.59424 3.92627 9.53373 3.86766 9.49377C3.75366 9.41777 3.57616 9.45377 3.57616 9.55277C3.57616 9.58277 3.59266 9.60477 3.63016 9.62427C3.69366 9.65677 3.69816 9.69377 3.64866 9.76828C3.59816 9.84428 3.60216 9.91128 3.66016 9.95678C3.75316 10.0298 3.88516 9.98928 3.95516 9.86678H3.95466ZM6.71667 6.27876C6.55317 6.32876 6.39467 6.50227 6.34517 6.68377C6.31517 6.79427 6.33217 6.98877 6.37717 7.04877C6.44967 7.14577 6.52017 7.17127 6.71017 7.16977C7.08217 7.16727 7.40517 7.00777 7.44317 6.80827C7.47417 6.64477 7.33167 6.41827 7.13617 6.31826C7.03517 6.26726 6.82067 6.24676 6.71667 6.27876ZM7.15167 6.61877C7.20917 6.53727 7.18367 6.44877 7.08667 6.38976C6.90067 6.27626 6.61967 6.36976 6.61967 6.54577C6.61967 6.63277 6.76617 6.72827 6.90017 6.72827C6.99017 6.72827 7.11217 6.67477 7.15167 6.61877Z" fill="white"/>
</g>
<defs>
<clipPath id="clip0_957_1327">
<rect width="16" height="16" rx="3.62028" fill="white"/>
</clipPath>
</defs>
</svg>
