<svg width="16" height="16" viewBox="0 0 16 16" fill="none" xmlns="http://www.w3.org/2000/svg">
<path d="M13.8989 3.10938C14.265 3.60071 14.5749 4.13451 14.8223 4.70005L7.80279 10.072L4.86914 8.16287V5.86604L7.80279 7.77521L13.8989 3.10938Z" fill="#21A038"/>
<path d="M1.87404 7.99925C1.87404 7.89618 1.87646 7.7938 1.88131 7.69201L0.103433 7.60156C0.0973813 7.73349 0.0937521 7.86668 0.0937521 8.00111C0.0929957 9.05142 0.291991 10.0915 0.679327 11.0618C1.06666 12.032 1.63471 12.9134 2.35089 13.6552L3.61197 12.3466C3.06069 11.7766 2.62335 11.099 2.3251 10.353C2.02684 9.60691 1.87356 8.80699 1.87404 7.99925Z" fill="url(#paint0_linear_933_337)"/>
<path d="M7.80078 1.847C7.9 1.847 7.99861 1.85077 8.09664 1.85579L8.1856 0.00942897C8.05816 0.00314669 7.92985 5.93341e-06 7.80078 5.93341e-06C6.7886 -0.0012755 5.7862 0.205018 4.85107 0.60704C3.91594 1.00906 3.06651 1.5989 2.35156 2.34267L3.61265 3.6519C4.16174 3.07938 4.81442 2.62519 5.53317 2.31544C6.25192 2.00569 7.02253 1.84649 7.80078 1.847Z" fill="url(#paint1_linear_933_337)"/>
<path d="M7.80146 14.1519C7.70224 14.1519 7.60358 14.1519 7.50498 14.1437L7.41602 15.9895C7.54389 15.9962 7.67239 15.9996 7.80146 15.9996C8.81321 16.0006 9.81513 15.7942 10.7498 15.3921C11.6844 14.9899 12.5333 14.4 13.2477 13.6562L11.989 12.3477C11.4398 12.9199 10.7872 13.3738 10.0686 13.6834C9.34999 13.9931 8.57952 14.1523 7.80146 14.1519Z" fill="url(#paint2_linear_933_337)"/>
<path d="M11.1416 2.92128L12.6399 1.77476C11.2704 0.623503 9.56099 -0.00319576 7.79883 1.22551e-05V1.84763C8.99208 1.8461 10.1576 2.22047 11.1416 2.92128Z" fill="url(#paint3_linear_933_337)"/>
<path d="M15.5072 8.00003C15.5082 7.51938 15.4677 7.03957 15.3862 6.56641L13.7276 7.83542C13.7276 7.89011 13.7276 7.94475 13.7276 8.00003C13.728 8.85962 13.5544 9.70973 13.2181 10.4952C12.8818 11.2807 12.3903 11.9841 11.7754 12.5597L12.9717 13.9324C13.7712 13.1832 14.41 12.2679 14.8467 11.246C15.2836 10.224 15.5086 9.11809 15.5072 8.00003Z" fill="#21A038"/>
<path d="M7.80019 14.1517C6.97213 14.152 6.15325 13.9717 5.39654 13.6226C4.63986 13.2735 3.96223 12.7633 3.40754 12.125L2.08594 13.3664C2.80753 14.1964 3.68911 14.8597 4.67352 15.3133C5.65793 15.7669 6.72316 16.0006 7.80019 15.9993V14.1517Z" fill="url(#paint4_linear_933_337)"/>
<path d="M3.8262 3.43909L2.63046 2.06641C1.83082 2.81549 1.19178 3.7307 0.754769 4.75269C0.317766 5.77466 0.0925586 6.8806 0.0937547 7.99876H1.87405C1.87368 7.13921 2.04727 6.28911 2.38356 5.50362C2.71985 4.71816 3.21134 4.01478 3.8262 3.43909Z" fill="url(#paint5_linear_933_337)"/>
<defs>
<linearGradient id="paint0_linear_933_337" x1="2.71094" y1="13.4246" x2="0.632021" y2="7.63587" gradientUnits="userSpaceOnUse">
<stop offset="0.14" stop-color="#F1E813"/>
<stop offset="0.3" stop-color="#E6E418"/>
<stop offset="0.58" stop-color="#C9DA26"/>
<stop offset="0.89" stop-color="#A2CC39"/>
</linearGradient>
<linearGradient id="paint1_linear_933_337" x1="2.85987" y1="2.66935" x2="7.91601" y2="0.813375" gradientUnits="userSpaceOnUse">
<stop offset="0.06" stop-color="#0FA7DF"/>
<stop offset="0.54" stop-color="#0098F8"/>
<stop offset="0.92" stop-color="#0290EA"/>
</linearGradient>
<linearGradient id="paint2_linear_933_337" x1="7.29864" y1="14.8844" x2="12.9838" y2="13.6473" gradientUnits="userSpaceOnUse">
<stop offset="0.12" stop-color="#A2CC39"/>
<stop offset="0.28" stop-color="#86C239"/>
<stop offset="0.87" stop-color="#219F38"/>
</linearGradient>
<linearGradient id="paint3_linear_933_337" x1="7.42852" y1="0.618817" x2="12.3025" y2="2.06762" gradientUnits="userSpaceOnUse">
<stop offset="0.06" stop-color="#0290EA"/>
<stop offset="0.79" stop-color="#0C89CA"/>
</linearGradient>
<linearGradient id="paint4_linear_933_337" x1="2.53252" y1="13.1415" x2="7.85149" y2="15.0563" gradientUnits="userSpaceOnUse">
<stop offset="0.13" stop-color="#F1E813"/>
<stop offset="0.3" stop-color="#EAE616"/>
<stop offset="0.53" stop-color="#D8DF1F"/>
<stop offset="0.8" stop-color="#BAD52D"/>
<stop offset="0.98" stop-color="#A2CC39"/>
</linearGradient>
<linearGradient id="paint5_linear_933_337" x1="0.756976" y1="8.2224" x2="3.01514" y2="2.5641" gradientUnits="userSpaceOnUse">
<stop offset="0.07" stop-color="#A2CC39"/>
<stop offset="0.26" stop-color="#81C45E"/>
<stop offset="0.92" stop-color="#0FA7DF"/>
</linearGradient>
</defs>
</svg>
