<?xml version="1.0" encoding="UTF-8"?>
<svg xmlns="http://www.w3.org/2000/svg" xmlns:xlink="http://www.w3.org/1999/xlink" width="16px" height="16px" viewBox="0 0 16 16" version="1.1">
<defs>
<linearGradient id="linear0" gradientUnits="userSpaceOnUse" x1="-0.0000027" y1="256" x2="512" y2="256" gradientTransform="matrix(0.03125,0,0,0.03125,0,0)">
<stop offset="0" style="stop-color:rgb(20%,70.588235%,61.568627%);stop-opacity:1;"/>
<stop offset="1" style="stop-color:rgb(0%,63.137255%,52.156863%);stop-opacity:1;"/>
</linearGradient>
<linearGradient id="linear1" gradientUnits="userSpaceOnUse" x1="42.666664" y1="256.000519" x2="469.333344" y2="256.000519" gradientTransform="matrix(0.03125,0,0,0.03125,0,0)">
<stop offset="0" style="stop-color:rgb(0%,63.137255%,52.156863%);stop-opacity:1;"/>
<stop offset="1" style="stop-color:rgb(20%,70.588235%,61.568627%);stop-opacity:1;"/>
</linearGradient>
<filter id="alpha" filterUnits="objectBoundingBox" x="0%" y="0%" width="100%" height="100%">
  <feColorMatrix type="matrix" in="SourceGraphic" values="0 0 0 0 1 0 0 0 0 1 0 0 0 0 1 0 0 0 1 0"/>
</filter>
<mask id="mask0">
  <g filter="url(#alpha)">
<rect x="0" y="0" width="16" height="16" style="fill:rgb(0%,0%,0%);fill-opacity:0.301961;stroke:none;"/>
  </g>
</mask>
<clipPath id="clip1">
  <rect x="0" y="0" width="16" height="16"/>
</clipPath>
<g id="surface5" clip-path="url(#clip1)">
<path style=" stroke:none;fill-rule:nonzero;fill:rgb(0%,0%,0%);fill-opacity:1;" d="M 4.5 6.765625 L 12 6.765625 L 12 7.664062 L 4.5 7.664062 Z M 4.5 6.765625 "/>
</g>
<mask id="mask1">
  <g filter="url(#alpha)">
<rect x="0" y="0" width="16" height="16" style="fill:rgb(0%,0%,0%);fill-opacity:0.301961;stroke:none;"/>
  </g>
</mask>
<clipPath id="clip2">
  <rect x="0" y="0" width="16" height="16"/>
</clipPath>
<g id="surface8" clip-path="url(#clip2)">
<path style=" stroke:none;fill-rule:nonzero;fill:rgb(0%,0%,0%);fill-opacity:1;" d="M 11.996094 6.453125 C 11.984375 6.035156 11.640625 5.695312 11.21875 5.695312 L 5.28125 5.695312 C 4.859375 5.695312 4.515625 6.035156 4.503906 6.453125 Z M 11.996094 6.453125 "/>
</g>
<mask id="mask2">
  <g filter="url(#alpha)">
<rect x="0" y="0" width="16" height="16" style="fill:rgb(0%,0%,0%);fill-opacity:0.301961;stroke:none;"/>
  </g>
</mask>
<clipPath id="clip3">
  <rect x="0" y="0" width="16" height="16"/>
</clipPath>
<g id="surface11" clip-path="url(#clip3)">
<path style=" stroke:none;fill-rule:nonzero;fill:rgb(0%,0%,0%);fill-opacity:1;" d="M 4.5 7.976562 L 4.5 10.023438 C 4.5 10.453125 4.851562 10.804688 5.28125 10.804688 L 11.21875 10.804688 C 11.648438 10.804688 12 10.453125 12 10.023438 L 12 7.976562 Z M 10.09375 9.035156 L 10.40625 9.035156 L 10.40625 9.347656 L 10.09375 9.347656 Z M 9.3125 9.035156 L 9.625 9.035156 L 9.625 9.347656 L 9.3125 9.347656 Z M 11.1875 10.078125 L 7.984375 10.078125 L 7.984375 9.765625 L 11.1875 9.765625 Z M 11.1875 9.347656 L 10.875 9.347656 L 10.875 9.035156 L 11.1875 9.035156 Z M 11.1875 9.347656 "/>
</g>
</defs>
<g id="surface1">
<path style=" stroke:none;fill-rule:nonzero;fill:url(#linear0);" d="M 16 8 C 16 12.417969 12.417969 16 8 16 C 3.582031 16 0 12.417969 0 8 C 0 3.582031 3.582031 0 8 0 C 12.417969 0 16 3.582031 16 8 Z M 16 8 "/>
<path style=" stroke:none;fill-rule:nonzero;fill:url(#linear1);" d="M 8 14.667969 C 4.324219 14.667969 1.332031 11.675781 1.332031 8 C 1.332031 4.324219 4.324219 1.332031 8 1.332031 C 11.675781 1.332031 14.667969 4.324219 14.667969 8 C 14.667969 11.675781 11.675781 14.667969 8 14.667969 Z M 8 14.667969 "/>
<use xlink:href="#surface5" mask="url(#mask0)"/>
<use xlink:href="#surface8" mask="url(#mask1)"/>
<use xlink:href="#surface11" mask="url(#mask2)"/>
<path style=" stroke:none;fill-rule:nonzero;fill:rgb(100%,100%,100%);fill-opacity:1;" d="M 4.25 6.515625 L 11.75 6.515625 L 11.75 7.414062 L 4.25 7.414062 Z M 4.25 6.515625 "/>
<path style=" stroke:none;fill-rule:nonzero;fill:rgb(100%,100%,100%);fill-opacity:1;" d="M 11.746094 6.203125 C 11.734375 5.785156 11.390625 5.445312 10.96875 5.445312 L 5.03125 5.445312 C 4.609375 5.445312 4.265625 5.785156 4.253906 6.203125 Z M 11.746094 6.203125 "/>
<path style=" stroke:none;fill-rule:nonzero;fill:rgb(100%,100%,100%);fill-opacity:1;" d="M 4.25 7.726562 L 4.25 9.773438 C 4.25 10.203125 4.601562 10.554688 5.03125 10.554688 L 10.96875 10.554688 C 11.398438 10.554688 11.75 10.203125 11.75 9.773438 L 11.75 7.726562 Z M 9.84375 8.785156 L 10.15625 8.785156 L 10.15625 9.097656 L 9.84375 9.097656 Z M 9.0625 8.785156 L 9.375 8.785156 L 9.375 9.097656 L 9.0625 9.097656 Z M 10.9375 9.828125 L 7.734375 9.828125 L 7.734375 9.515625 L 10.9375 9.515625 Z M 10.9375 9.097656 L 10.625 9.097656 L 10.625 8.785156 L 10.9375 8.785156 Z M 10.9375 9.097656 "/>
</g>
</svg>
