<svg width="17" height="16" viewBox="0 0 17 16" fill="none" xmlns="http://www.w3.org/2000/svg">
<rect x="0.800781" width="16" height="16" rx="8" fill="#FFDD2D"/>
<path d="M15.619 7.60121L15.8008 7.02301L15.1995 7.04174C15.1488 7.04174 14.7795 7.03132 14.4213 6.77319C14.448 6.77579 14.4747 6.77944 14.502 6.77944C14.8706 6.77944 15.2273 6.55876 15.3703 6.24341L15.629 5.67354C15.3048 5.67769 15.0084 5.63709 15.0084 5.63709C15.0058 5.6366 14.7722 5.6069 14.502 5.33265C14.3082 5.13594 14.0683 5.03186 13.8086 5.03186C13.6949 5.03186 13.5933 5.05214 13.5058 5.07972C13.5195 5.03341 13.5326 4.98658 13.5399 4.93818C13.6226 4.40475 13.277 3.99778 13.277 3.99828L12.825 3.44195L12.5449 4.0956C12.5438 4.09769 12.4731 4.25068 12.3463 4.32563C12.3081 4.13359 12.2143 3.91761 12.0138 3.71102C11.6357 3.32173 11.1753 3.26396 10.9344 3.26396C10.8229 3.26396 10.7433 3.27592 10.7239 3.27906L10.1782 3.38573C10.2096 3.26447 10.2766 3.05371 10.3992 2.86376L10.7003 2.39746L9.94247 2.48333L9.70104 1.97382L9.23389 2.21321L8.80183 1.78906L8.37082 2.21321L7.90208 1.97382L7.66116 2.48333L6.90388 2.39746L7.20554 2.86376C7.32809 3.05371 7.39512 3.26396 7.42602 3.38523L6.90547 3.28323L6.88764 3.2801C6.86145 3.27592 6.78238 3.26396 6.6703 3.26396C6.42942 3.26396 5.96906 3.32224 5.59196 3.71102C5.39085 3.9171 5.29712 4.13359 5.25837 4.32563C5.13268 4.25173 5.06248 4.10082 5.06248 4.10082L4.7818 3.4435L4.32246 4.00348C4.26645 4.07583 3.98941 4.45834 4.0648 4.93921C4.07268 4.98709 4.08526 5.03395 4.09887 5.08026C4.01193 5.05268 3.91032 5.03235 3.79667 5.03235C3.53692 5.03235 3.29704 5.13646 3.10276 5.33316C2.83354 5.60642 2.60102 5.63709 2.60313 5.63709C2.60313 5.63709 2.35749 5.68083 1.97727 5.67406L2.23443 6.24393C2.3774 6.55981 2.73459 6.77996 3.10276 6.77996C3.13049 6.77996 3.1572 6.77633 3.18445 6.77371C2.82727 7.03186 2.45807 7.04228 2.41354 7.04277L1.80078 7.02301L1.98618 7.60069C2.0794 7.89836 2.39102 8.39174 2.98805 8.44482C2.92311 8.71545 2.7791 9.01834 2.46278 9.14895L2.00662 9.33577L2.25538 9.76616C2.39572 9.99827 2.72517 10.2699 3.19441 10.2699C3.29599 10.2694 3.39392 10.2595 3.48822 10.2398C3.5123 10.3459 3.54266 10.4521 3.57827 10.5572C3.71812 10.9704 3.59765 11.2588 3.5961 11.2619L3.37089 11.7308L3.87365 11.8624C3.87993 11.8645 4.03182 11.9057 4.22191 11.9057C4.30834 11.9057 4.39057 11.8968 4.46809 11.8786C4.52673 11.8651 4.58277 11.8468 4.6367 11.825C4.70165 11.941 4.78074 12.0467 4.87293 12.1414C5.19499 12.4698 5.65116 12.6363 6.22934 12.6363H6.23142L6.64413 12.6311L5.79152 12.9829L6.43883 13.2936C6.67395 13.4076 6.95313 13.5424 7.23695 13.6454L7.15632 13.865L7.37942 13.966C7.39931 13.9749 7.82823 14.1659 8.54154 14.2065C8.54154 14.2065 8.71383 14.2143 8.80865 14.2143C8.90344 14.2143 9.07364 14.2059 9.07364 14.2059C9.78222 14.1643 10.208 13.9754 10.2279 13.966L10.4515 13.8645L10.3698 13.6444C10.6621 13.5382 10.9512 13.3983 11.1763 13.2889L11.8116 12.9824L10.9616 12.6301L11.3759 12.6353C11.9546 12.6353 12.4113 12.4688 12.7328 12.1398C12.8245 12.0457 12.9036 11.94 12.969 11.8239C13.023 11.8458 13.0795 11.864 13.1382 11.8775C13.2152 11.8958 13.2974 11.9046 13.3838 11.9046C13.5708 11.9046 13.7242 11.8635 13.7284 11.8624L14.2333 11.7297L14.0133 11.2697C14.0081 11.2577 13.8876 10.9699 14.0275 10.5562C14.0631 10.4505 14.0929 10.3444 14.117 10.2387C14.2118 10.2585 14.3108 10.2689 14.4129 10.2689C15.0105 10.2689 15.297 9.85101 15.3525 9.76044L15.5986 9.33474L15.1425 9.14843C14.8256 9.0178 14.6821 8.71439 14.6177 8.44428C15.2064 8.39434 15.5227 7.90096 15.619 7.60121ZM7.46585 3.58454L7.45954 3.58612L7.46477 3.57935L7.46585 3.58454Z" fill="white"/>
<path d="M8.80277 3.55859C8.31987 3.5591 7.95797 3.71627 7.87891 3.90103L8.80277 4.26324L9.72661 3.90103C9.64805 3.71627 9.28616 3.5591 8.80277 3.55859Z" fill="white"/>
<path d="M8.81161 13.1491H8.81059H8.80271H8.79384H8.79329C8.50054 13.1512 8.09779 13.0914 7.90347 13.0352L7.66992 13.6633C7.82389 13.718 8.34552 13.8221 8.80271 13.8221C9.25885 13.8221 9.78102 13.7174 9.93447 13.6633L9.70144 13.0352C9.50658 13.0919 9.10437 13.1512 8.81161 13.1491Z" fill="white"/>
<path d="M10.5787 12.5234C10.4048 12.6213 10.0167 12.7681 9.79102 12.8362L9.98059 13.3551C10.3299 13.2604 10.618 13.1495 10.8562 13.0309L10.4629 12.9007L10.5787 12.5234Z" fill="white"/>
<path d="M7.0256 12.5234L7.14187 12.9007L6.74805 13.0309C6.98579 13.1495 7.27541 13.2604 7.62315 13.3551L7.81276 12.8362C7.58808 12.7681 7.19948 12.6208 7.0256 12.5234Z" fill="white"/>
<path d="M8.80306 2.95656C9.16704 2.95656 9.52422 3.04296 9.79866 3.19494C9.8238 3.11114 9.85887 3.00965 9.90657 2.90351L9.80285 2.91598L9.69391 2.92743L9.64783 2.82907L9.50907 2.53763L9.25609 2.66879L9.15762 2.71875L9.07907 2.64172L8.80411 2.37109L8.5297 2.64172L8.45112 2.71875L8.35266 2.66879L8.09816 2.53763L7.96094 2.82907L7.9138 2.92743L7.80486 2.91598L7.70117 2.90351C7.74885 3.01019 7.7834 3.11114 7.80906 3.19494C8.08401 3.04296 8.44014 2.95656 8.80306 2.95656Z" fill="white"/>
<path d="M14.3596 6.3259C14.4067 6.34203 14.4549 6.34932 14.5026 6.34932C14.7084 6.34932 14.9074 6.21712 14.976 6.06567C14.976 6.06567 14.5984 6.04277 14.1926 5.6332C14.0632 5.50048 13.9265 5.46094 13.8092 5.46094C13.6269 5.46094 13.4902 5.55668 13.4902 5.55668C13.9804 5.81588 14.0805 6.23222 14.3596 6.3259Z" fill="white"/>
<path d="M3.10182 6.34932C3.14948 6.34932 3.19767 6.34203 3.24375 6.3259C3.52395 6.23222 3.6245 5.81588 4.11469 5.55668C4.11469 5.55668 3.97747 5.46094 3.79625 5.46094C3.67843 5.46094 3.54173 5.50048 3.41187 5.6332C3.00649 6.04277 2.62891 6.06567 2.62891 6.06567C2.69645 6.21712 2.89598 6.34932 3.10182 6.34932Z" fill="white"/>
<path d="M14.492 8.02008C14.5005 8.02057 14.5078 8.02057 14.5167 8.02057C15.0304 8.02057 15.2048 7.47363 15.2048 7.47363H15.1949C15.1006 7.47363 14.3365 7.45176 13.7966 6.76948C13.441 6.32088 13.1498 5.92638 12.5742 5.77131L12.5177 5.7614L12.5051 5.70418C12.4894 5.61672 12.5496 5.53503 12.6863 5.44657C13.4802 4.92978 12.9414 4.27091 12.9414 4.27091C12.9414 4.27091 12.7146 4.7981 12.2071 4.7981C12.1951 4.7981 12.182 4.79758 12.1694 4.79758C12.1118 4.79447 12.0562 4.79239 12.0002 4.78042L11.9065 4.7622C11.9065 4.7622 12.051 4.37137 11.7022 4.01225C11.4393 3.74112 11.1193 3.69531 10.9345 3.69531C10.8412 3.69531 10.7821 3.7073 10.7821 3.7073C10.9575 3.93524 11.0842 4.31308 10.8816 4.5462C10.7066 4.74659 10.2793 4.75647 10.2793 5.05519C10.2793 5.18165 10.3982 5.32947 10.6119 5.46216C11.2544 5.86445 11.8923 6.39791 12.1573 7.11295C12.4889 8.00498 12.1154 8.59669 11.5823 8.93602C11.5823 8.93602 11.7494 9.08901 11.9918 9.10828C12.0411 9.11296 12.0892 9.11505 12.1343 9.11505C12.646 9.11505 12.9104 8.87669 12.9104 8.87669C12.9104 8.87669 12.867 9.20611 12.6004 9.51214C12.3548 9.79471 12.0322 9.96074 11.5404 9.96802C11.5404 9.96802 11.5247 10.1949 11.7425 10.3911C11.8819 10.515 12.204 10.5556 12.204 10.5556C12.204 10.5556 11.6012 10.6768 11.5346 11.5616C11.4985 12.0409 11.3754 12.2074 11.3754 12.2074H11.3864C12.7853 12.2074 12.7491 11.0151 12.7491 11.0151C12.7491 11.0151 12.8465 11.368 13.2367 11.4601C13.2838 11.4726 13.3341 11.4773 13.3823 11.4773C13.508 11.4773 13.6169 11.4481 13.6169 11.4481C13.6169 11.4481 13.4127 11.0198 13.6153 10.4208C13.7835 9.92379 13.7562 9.55531 13.7562 9.55531C13.7562 9.55531 13.9448 9.83842 14.4119 9.84105H14.4167C14.8058 9.84105 14.9754 9.54803 14.9754 9.54803C14.0427 9.16345 14.1349 7.92172 14.1349 7.92172C14.1349 7.92172 14.2559 8.01123 14.492 8.02008ZM14.2113 9.31695C13.8322 9.13118 13.5923 8.63781 13.5342 8.45983C13.4714 9.43822 12.9906 10.1174 12.4286 10.7711C12.1369 11.1098 12.0353 11.4393 12.0353 11.4393C12.0353 11.4393 12.0914 11.0661 12.3438 10.7622C12.868 10.1361 13.366 9.35704 13.4033 8.45618C13.4289 7.82749 13.266 7.3175 13.012 6.89751C13.154 7.33518 13.1341 7.87124 12.6517 8.37135C12.6517 8.37135 13.6117 7.22799 12.2694 6.05598C11.7321 5.60996 11.1445 5.33467 10.8418 5.13948C11.9353 5.49391 12.4689 5.10359 12.4689 5.10359C12.1196 5.4044 11.6677 5.3992 11.3875 5.356C11.4634 5.39297 11.5425 5.43147 11.6279 5.47675C12.5496 5.97427 13.3781 6.79289 13.5195 7.92692V7.91806C13.7342 9.03125 14.2113 9.31695 14.2113 9.31695Z" fill="white"/>
<path d="M5.40131 10.5556C5.40131 10.5556 5.72337 10.5155 5.8627 10.3911C6.08001 10.1949 6.06486 9.96802 6.06486 9.96802C5.57254 9.96128 5.25048 9.79471 5.00326 9.51265C4.73881 9.20665 4.69481 8.8772 4.69481 8.8772C4.69481 8.8772 4.95926 9.11556 5.47042 9.11556C5.51653 9.11556 5.56418 9.11348 5.6134 9.1088C5.85588 9.08955 6.02346 8.93653 6.02346 8.93653C5.49033 8.59723 5.1164 8.00498 5.44739 7.11295C5.71292 6.39843 6.35028 5.86445 6.99286 5.46216C7.20655 5.32947 7.32542 5.18217 7.32542 5.05519C7.32542 4.75647 6.89861 4.74659 6.7237 4.5462C6.521 4.31308 6.64826 3.93471 6.82317 3.7073C6.82317 3.7073 6.76505 3.69531 6.67129 3.69531C6.48696 3.69531 6.16695 3.74112 5.90407 4.01225C5.55422 4.37137 5.69929 4.7622 5.69929 4.7622L5.60555 4.78042C5.54951 4.79239 5.49347 4.79447 5.43638 4.79758C5.42331 4.79758 5.41175 4.7981 5.3992 4.7981C4.89067 4.7981 4.66494 4.27144 4.66494 4.27144C4.66494 4.27144 4.12602 4.93027 4.91949 5.44706C5.05616 5.53554 5.11586 5.61726 5.10016 5.70469L5.08758 5.76194L5.02997 5.77182C4.45547 5.9269 4.16377 6.32142 3.80815 6.77002C3.26924 7.45124 2.50619 7.47363 2.41088 7.47363H2.40039C2.40039 7.47363 2.57479 8.02057 3.08856 8.02057C3.09693 8.02057 3.10426 8.02057 3.11316 8.02008C3.34939 8.01172 3.47089 7.92172 3.47089 7.92172C3.47089 7.92172 3.562 9.16293 2.63031 9.54803C2.63031 9.54803 2.8 9.84105 3.18912 9.84105H3.19382C3.66149 9.83842 3.84953 9.55531 3.84953 9.55531C3.84953 9.55531 3.82228 9.92379 3.98986 10.4208C4.19256 11.0198 3.98937 11.4481 3.98937 11.4481C3.98937 11.4481 4.09829 11.4773 4.22346 11.4773C4.27214 11.4773 4.32193 11.4726 4.36853 11.4601C4.75816 11.368 4.85611 11.0151 4.85611 11.0151C4.85611 11.0151 4.82048 12.2074 6.21934 12.2074H6.2293C6.2293 12.2074 6.10675 12.0409 6.07114 11.5616C6.00408 10.6768 5.40131 10.5556 5.40131 10.5556ZM5.17663 10.7711C4.61466 10.1174 4.13444 9.43822 4.07104 8.45983C4.01294 8.63727 3.77409 9.13118 3.39496 9.31695C3.39496 9.31695 3.87153 9.03125 4.0857 7.91806V7.92692C4.22766 6.79343 5.05565 5.97427 5.97792 5.47675C6.06223 5.43093 6.14233 5.39243 6.21777 5.356C5.93757 5.3992 5.48562 5.4044 5.13631 5.10359C5.13631 5.10359 5.66998 5.49391 6.76294 5.13948C6.46025 5.33467 5.87317 5.60996 5.33582 6.05598C3.99303 7.22799 4.95353 8.37135 4.95353 8.37135C4.47065 7.87069 4.45128 7.33518 4.5932 6.89751C4.33868 7.31799 4.1763 7.82749 4.20252 8.45618C4.23916 9.35704 4.73721 10.1361 5.26043 10.7622C5.51336 11.0656 5.57046 11.4393 5.57046 11.4393C5.57046 11.4393 5.46779 11.1098 5.17663 10.7711Z" fill="white"/>
<path d="M7.76772 6.19692C7.79075 6.22137 7.81327 6.24792 7.83475 6.27447C7.84 6.28072 7.84471 6.28644 7.84991 6.29372C7.86982 6.32027 7.89028 6.34837 7.90963 6.37701C7.91382 6.38272 7.91801 6.38948 7.92272 6.39625C7.94629 6.43163 7.96829 6.46806 7.99029 6.50553C8.19194 6.85165 8.51505 7.05823 8.80153 7.05877C9.08852 7.05823 9.41061 6.85165 9.61329 6.50553C9.6358 6.46704 9.65832 6.42957 9.68188 6.39468C9.68556 6.38949 9.68922 6.3848 9.69236 6.37958C9.71227 6.34994 9.73322 6.32079 9.75521 6.29269C9.75992 6.28644 9.76412 6.28124 9.76829 6.27604C9.79082 6.24846 9.81385 6.22137 9.83742 6.19641C9.84164 6.19224 9.84475 6.18861 9.84843 6.18547C9.95107 6.08088 10.0736 6.00125 10.2339 5.95702L10.1627 5.9159H10.1585L9.87463 5.75195L9.58293 5.58594L8.80362 6.00747L8.80153 6.00593L8.79996 6.00747L8.02014 5.58594L7.72895 5.75143L7.44458 5.91538H7.44144L7.36914 5.95648C7.52993 6.00073 7.65197 6.07931 7.75514 6.18393C7.75985 6.1881 7.76299 6.19278 7.76772 6.19692ZM8.48626 6.16309H8.8162H9.14559V6.38792C9.06809 6.29372 8.91726 6.31299 8.91726 6.31299V6.63721C8.91726 6.63721 8.92303 6.79646 8.97907 6.8657H8.8162H8.65279C8.70986 6.79697 8.7151 6.63721 8.7151 6.63721V6.31299C8.7151 6.31299 8.56481 6.29372 8.48626 6.38792V6.16309Z" fill="white"/>
<path d="M8.73578 5.72531V4.40917L7.89258 4.125L8.11517 5.4006L8.73578 5.72531ZM8.55456 4.73237V4.94364L8.51373 4.9249C8.51162 4.92336 8.4519 4.9098 8.34718 4.82759C8.17432 4.69436 8.17121 4.57155 8.17121 4.57155L8.55456 4.73237Z" fill="white"/>
<path d="M9.49024 5.4006L9.7118 4.125L8.86914 4.40917V5.72531L9.49024 5.4006ZM9.05033 4.73237L9.43368 4.57207C9.43368 4.57207 9.43054 4.69488 9.2572 4.82811C9.15297 4.91034 9.09273 4.92385 9.09065 4.92544L9.04979 4.94418V4.73237H9.05033Z" fill="white"/>
<path d="M7.54255 8.77463C7.62476 8.80429 7.72428 8.81057 7.7751 8.81057C7.77718 8.80429 7.77981 8.7965 7.78243 8.78713C7.78714 8.77203 7.79131 8.75747 7.79447 8.74082C7.8086 8.66795 7.81385 8.5852 7.81488 8.53212C7.78032 8.51077 7.73162 8.47279 7.70437 8.41605C7.67295 8.35049 7.62844 8.32031 7.56296 8.32031C7.47815 8.32031 7.38701 8.37079 7.34827 8.39472C7.31736 8.57635 7.45196 8.74133 7.54255 8.77463Z" fill="white"/>
<path d="M9.40647 8.07812C9.24988 8.24725 8.94351 8.54183 8.9283 8.55691L8.90998 8.57564L7.94163 8.56054C7.94109 8.65581 7.9254 8.73699 7.91019 8.7963C7.90759 8.80621 7.90497 8.81663 7.90234 8.82702L9.05451 9.0326C9.17446 8.94929 9.5044 8.7099 9.63217 8.61624C9.53895 8.48093 9.53008 8.32066 9.55102 8.2077C9.49025 8.16867 9.44365 8.12498 9.40647 8.07812Z" fill="white"/>
<path d="M9.53929 6.91951C9.31618 7.13968 9.10198 7.22086 8.91083 7.23959C8.87627 7.24322 8.84118 7.24531 8.80557 7.24531H8.80294H8.80083C8.76522 7.24531 8.72961 7.24322 8.69506 7.23959C8.66153 7.23648 8.62646 7.23126 8.59134 7.22346C8.57878 7.27291 8.56306 7.37648 8.60814 7.4743C8.64846 7.5633 8.73067 7.62938 8.85059 7.67312L8.89091 7.68874L8.89145 7.73191C8.89145 7.74493 8.90087 8.0249 9.20829 8.10245C9.25857 8.05094 9.30414 8.00462 9.33766 7.96613C9.27481 7.81937 9.30779 7.66946 9.39893 7.59611C9.39473 7.6117 9.35495 7.97912 9.65136 8.11547L9.70005 8.13839L9.68541 8.18988C9.6807 8.20552 9.58171 8.56096 9.94044 8.69313L10.0038 8.71709L9.97554 8.7785C9.96926 8.79204 9.82839 9.11469 10.1599 9.29786H10.8789V8.73062C10.6234 8.69941 10.515 8.49537 10.4872 8.35069C10.3683 8.33042 10.2762 8.27942 10.2133 8.19613C10.0625 7.99891 10.1924 7.81831 10.1939 7.80841C10.1934 7.81 10.1939 8.00254 10.3133 8.12121C10.3725 8.17843 10.4427 8.22266 10.549 8.23257L10.6014 8.23725L10.6061 8.29033C10.6072 8.30178 10.6359 8.56201 10.8795 8.6031L10.8789 7.44466C10.8789 7.26509 10.9318 7.08449 10.9952 6.91797H9.53929V6.91951Z" fill="white"/>
<path d="M7.60336 7.4522L7.58398 8.19017L7.6683 8.20267L7.87463 7.49489L7.76988 7.27734L7.60336 7.4522Z" fill="white"/>
<path d="M9.87884 10.8372C9.88515 10.8372 9.89248 10.8382 9.8993 10.8398C10.0276 10.8762 10.0601 11.3363 10.2853 11.3774C10.3072 11.3821 10.3277 11.3831 10.3455 11.3831C10.4104 11.3831 10.4492 11.3555 10.4911 11.3066C10.4911 11.3066 10.378 11.1297 10.2931 11.0105C10.1805 10.8544 10.0931 10.6655 9.88355 10.6655C9.87884 10.6655 9.87256 10.6655 9.86734 10.666C9.7982 10.6696 9.7558 10.703 9.7558 10.703C9.67094 10.6498 9.59185 10.6316 9.52011 10.6316C9.38866 10.6316 9.28654 10.6915 9.23575 10.6915H9.23364L8.76543 10.6457C8.69212 10.6389 8.63451 10.5656 8.61357 10.5369C8.60832 10.5291 8.6057 10.5244 8.6057 10.5244C8.6057 10.5119 8.60569 10.4989 8.60467 10.4875C8.58894 10.107 8.29253 9.94415 8.18725 9.94155C8.18725 9.94155 8.19983 9.86923 8.17104 9.84164L8.06786 9.966L7.729 9.79688L7.97042 10.0774L7.76566 10.3058C7.74001 10.3319 7.74315 10.3673 7.75362 10.3818L7.84213 10.4594L7.95418 10.3917C7.95997 10.3876 7.96993 10.3865 7.98246 10.3865C8.01336 10.3865 8.05999 10.3943 8.10188 10.3943C8.14744 10.3943 8.18725 10.3844 8.19198 10.3418C8.17783 10.4828 8.04638 10.7279 8.1328 10.9205L8.19669 11.0657L7.78295 11.0063L7.58918 11.3316C7.52949 11.4399 7.52002 11.557 7.57763 11.6204L7.64993 11.7105C7.64993 11.7105 7.75154 11.6033 7.77456 11.533L7.74158 11.4971C7.71381 11.4669 7.71538 11.4399 7.73216 11.4071L7.85363 11.2067L8.34227 11.3212L8.36792 11.2775C8.40094 11.2228 8.44859 11.2062 8.50097 11.2062C8.52243 11.2062 8.54443 11.2088 8.56746 11.2124C8.65808 11.2301 8.80734 11.2541 8.9566 11.2541C9.12053 11.2541 9.28286 11.2249 9.36928 11.1287C9.54628 11.3894 9.90504 11.431 9.87676 11.5632L9.78251 12.0097C9.84483 12.0071 9.90504 12.003 9.96213 11.9951L10.0517 11.5304C10.0616 11.48 10.0711 11.4118 10.0711 11.4118C10.0365 11.3769 9.95271 11.303 9.90555 11.2135C9.8422 11.0927 9.87676 11.0298 9.81758 10.8726C9.81969 10.8736 9.83749 10.8372 9.87884 10.8372ZM8.05108 10.1846C8.027 10.1841 8.00971 10.1638 8.01077 10.1398C8.01288 10.1169 8.03225 10.0987 8.05582 10.1008C8.0799 10.1019 8.09717 10.1227 8.09614 10.1456C8.09403 10.1684 8.07414 10.1862 8.05108 10.1846Z" fill="white"/>
<path d="M7.38445 11.2564C7.38445 11.2564 7.5463 11.1903 7.56096 11.1429L7.5395 11.0893C7.5243 11.0544 7.52641 11.0164 7.55574 10.9956L7.73065 10.8754L8.02289 10.9311C8.02289 10.9311 7.96999 10.8655 7.97524 10.7775L7.69661 10.7188L7.4337 10.878C7.32111 10.9618 7.31272 11.0987 7.3499 11.1798L7.38445 11.2564Z" fill="white"/>
<path d="M9.44922 12.0156C9.50158 12.0136 9.55919 12.0125 9.62259 12.0125C9.62259 12.0125 9.77288 11.5759 9.78126 11.5618C9.69695 11.5249 9.52203 11.4328 9.45447 11.3906C9.49901 11.4567 9.60738 11.5327 9.58592 11.591L9.44922 12.0156Z" fill="white"/>
<path d="M10.8793 9.42578H6.72461V10.9787C6.72461 11.6137 7.18705 12.0113 7.86947 12.0113C8.4398 12.0113 8.59009 12.0331 8.80221 12.2423C8.9483 12.0977 9.06931 12.0436 9.31753 12.0232L9.32332 11.9993L9.45423 11.597C9.4469 11.5882 9.23272 11.3462 9.23272 11.3462C9.14786 11.3743 9.07664 11.3789 8.95671 11.3789C8.83362 11.3789 8.69483 11.3649 8.54455 11.3368C8.52934 11.3332 8.51521 11.3321 8.50106 11.3321C8.48274 11.3321 8.48115 11.3337 8.47644 11.3425L8.45025 11.3852L8.40259 11.4633L8.31305 11.443L7.91449 11.3498L7.86005 11.4393L7.86841 11.4487L7.91712 11.5018L7.89566 11.571C7.86633 11.6616 7.771 11.7672 7.74221 11.7963L7.64271 11.9025L7.55209 11.7885L7.48401 11.7037C7.41227 11.6241 7.39549 11.5018 7.43584 11.3737C7.43476 11.3748 7.43321 11.3753 7.43164 11.3753L7.31905 11.4216L7.26823 11.3124L7.23262 11.2348C7.17133 11.0985 7.19387 10.8991 7.35883 10.7789L7.67989 10.5988L7.98523 10.6587C7.99256 10.6295 8.00355 10.5255 8.01242 10.4989C8.00668 10.4984 8.00092 10.4968 7.99516 10.4968L7.81919 10.5619L7.6495 10.4453C7.6495 10.4453 7.58301 10.3818 7.6432 10.3183L7.80766 10.0711L7.39133 9.55173L8.03128 9.81299L8.07371 9.76043L8.16014 9.65792L8.25807 9.75055C8.28583 9.77707 8.30153 9.80985 8.30937 9.84263C8.48586 9.91082 8.80169 10.1122 8.82943 10.4396L8.73044 10.4791V10.4817C8.75298 10.5083 8.77182 10.5192 8.77761 10.5202L9.23426 10.565C9.24579 10.5629 9.26046 10.5577 9.27669 10.553C9.33327 10.5338 9.41862 10.5062 9.51971 10.5062C9.60192 10.5062 9.68153 10.5249 9.75797 10.5603C9.78625 10.5499 9.82083 10.5421 9.86064 10.5395L9.88263 10.539C10.1272 10.539 10.2487 10.7206 10.3461 10.8653C10.3624 10.8903 10.3786 10.9142 10.3954 10.9376C10.4807 11.0573 10.5923 11.2327 10.597 11.24L10.6473 11.318L10.5855 11.3894C10.5378 11.444 10.4666 11.508 10.344 11.508C10.3189 11.508 10.2912 11.5054 10.2613 11.4997C10.2351 11.495 10.2115 11.4872 10.1885 11.4779C10.1848 11.5018 10.1801 11.5304 10.1754 11.5549L10.0952 11.9701C10.5745 11.853 10.8787 11.4934 10.8787 10.9793L10.8793 9.42578Z" fill="#FFDD2D"/>
<path d="M6.72459 9.29889H9.95541C9.79408 9.13342 9.79619 8.9237 9.83757 8.78733C9.79043 8.76494 9.75168 8.7379 9.71712 8.70875C9.59089 8.80138 9.20543 9.08032 9.10488 9.15007L9.08342 9.16463L7.81549 8.93669H7.78982C7.75946 8.93669 7.71494 8.93566 7.66624 8.92993C7.65262 8.98666 7.60338 9.02569 7.54682 9.02569C7.54054 9.02569 7.53321 9.02518 7.52639 9.02361C7.49341 9.01787 7.46459 9.00122 7.44521 8.97364C7.42533 8.9466 7.41748 8.91433 7.42324 8.88101L7.42795 8.85394C7.29701 8.76235 7.17657 8.55782 7.22998 8.34236L7.23521 8.31946L7.25353 8.30646C7.25615 8.30438 7.27815 8.28981 7.31065 8.27106L7.21846 8.25701C7.1839 8.25078 7.16085 8.21901 7.1661 8.1852C7.17186 8.15085 7.20433 8.12638 7.23837 8.13314L7.4578 8.16752L7.47771 7.39935L7.80448 7.05586L8.00821 7.4821L7.79298 8.22112L7.98675 8.2513C8.02079 8.25649 8.04436 8.28824 8.03911 8.32311C8.03389 8.35383 8.0077 8.37514 7.9768 8.37514C7.97366 8.37514 7.96998 8.37514 7.96687 8.37465L7.80919 8.34915C7.8113 8.35383 7.81444 8.3564 7.81652 8.36163C7.8333 8.39595 7.87048 8.42096 7.89251 8.43136L8.85926 8.44646C8.90012 8.40691 9.0017 8.30801 9.10593 8.20341C8.86816 8.1139 8.78176 7.90989 8.76707 7.77457C8.63407 7.71838 8.54242 7.63406 8.4916 7.52424C8.4298 7.38842 8.45182 7.25259 8.46803 7.18649C8.3392 7.13966 8.20358 7.05431 8.06531 6.91797H6.60938C6.67169 7.08449 6.72459 7.26507 6.72459 7.44464V9.29889Z" fill="#FFDD2D"/>
<path d="M8.05685 10.0978C8.03328 10.0957 8.01336 10.114 8.01182 10.1368C8.01022 10.1608 8.02803 10.1811 8.05214 10.1816C8.07517 10.1837 8.09559 10.166 8.09768 10.1425C8.09768 10.1196 8.08093 10.0983 8.05685 10.0978Z" fill="black"/>
<path d="M10.8746 12.9133L10.6352 12.8223L10.7012 12.5766L10.774 12.3086C10.774 12.3086 10.3498 12.5371 9.75224 12.7088C9.58252 12.7572 9.45423 12.7791 9.45423 12.7791V12.9612C9.45423 12.9612 9.13475 13.0164 8.81163 13.0164H8.80797H8.80327H8.79696H8.79331C8.47016 13.0164 8.1507 12.9612 8.1507 12.9612V12.7791C8.1507 12.7791 8.02187 12.7572 7.85272 12.7088C7.25514 12.5371 6.83144 12.3086 6.83144 12.3086L6.90321 12.5766L6.97077 12.8223L6.73089 12.9133L6.46484 13.0122C6.77018 13.1585 7.19282 13.3718 7.57985 13.4769L7.48874 13.7247C7.48874 13.7247 7.97944 13.9469 8.79696 13.949V13.9495H8.79959H8.80327H8.8064H8.80851V13.949C9.62706 13.9469 10.1172 13.7247 10.1172 13.7247L10.0256 13.4769C10.4127 13.3718 10.8363 13.1585 11.1401 13.0122L10.8746 12.9133ZM6.74872 13.0289L7.14255 12.8988L7.0263 12.5215C7.19964 12.6193 7.58876 12.7661 7.81395 12.8342L7.62383 13.3531C7.27611 13.2579 6.98649 13.147 6.74872 13.0289ZM8.80327 13.8189C8.34607 13.8189 7.8239 13.7143 7.67045 13.6602L7.90403 13.032C8.0978 13.0882 8.50107 13.1481 8.79382 13.146H8.79436H8.80327H8.81111H8.81217C9.10492 13.1481 9.50714 13.0882 9.70196 13.032L9.935 13.6602C9.78155 13.7148 9.25992 13.8189 8.80327 13.8189ZM9.98162 13.3531L9.79204 12.8342C10.0178 12.7661 10.4058 12.6193 10.5797 12.5215L10.464 12.8988L10.8573 13.0289C10.619 13.147 10.3309 13.2579 9.98162 13.3531Z" fill="black"/>
<path d="M8.80285 3.11201C9.28992 3.11201 9.67957 3.27231 9.8948 3.44353C9.8948 3.44353 9.95869 3.06101 10.1771 2.72326L9.78483 2.76749L9.57953 2.33397L9.18517 2.5359L8.80285 2.16016L8.42158 2.5359L8.0267 2.33397L7.82194 2.76749L7.42969 2.72326C7.64806 3.06101 7.71197 3.44353 7.71197 3.44353C7.92774 3.27231 8.31632 3.11201 8.80285 3.11201ZM7.80414 2.91947L7.91308 2.93092L7.96019 2.83253L8.09743 2.54109L8.35193 2.67172L8.4504 2.72171L8.52898 2.64467L8.80339 2.37405L9.07834 2.64467L9.15689 2.72171L9.25534 2.67172L9.50829 2.54109L9.6471 2.83253L9.69318 2.93092L9.80212 2.91947L9.90579 2.90697C9.85814 3.01365 9.82307 3.11461 9.79793 3.19841C9.52349 3.04643 9.16631 2.96006 8.80233 2.96006C8.43993 2.96006 8.08328 3.04643 7.80782 3.19841C7.78214 3.11461 7.74758 3.01314 7.69993 2.90697L7.80414 2.91947Z" fill="black"/>
<path d="M14.5163 8.18619C15.1464 8.18619 15.3569 7.5492 15.3658 7.52213L15.436 7.29784L15.1997 7.30512H15.1987C15.1154 7.30512 14.4205 7.2869 13.9276 6.66447L13.881 6.60671C13.5589 6.19973 13.2536 5.81306 12.7079 5.63663C12.7236 5.62259 12.7462 5.60488 12.7771 5.5851C13.0667 5.39567 13.2353 5.16565 13.2777 4.89867C13.3395 4.49687 13.0819 4.17681 13.0703 4.16381L12.8949 3.94836L12.7854 4.20389C12.7781 4.22003 12.5938 4.6291 12.2062 4.6291H12.1774C12.1507 4.6275 12.1256 4.62647 12.1004 4.62442C12.114 4.44173 12.0805 4.15913 11.8229 3.89424C11.5133 3.57521 11.1331 3.52734 10.9341 3.52734C10.8278 3.52734 10.7571 3.54035 10.7497 3.54139L10.4847 3.59343L10.6481 3.80733C10.7765 3.97231 10.8927 4.27675 10.755 4.43602C10.711 4.48648 10.6204 4.52759 10.5335 4.56871C10.3549 4.6504 10.1113 4.76387 10.1113 5.05321C10.1113 5.24057 10.2574 5.43627 10.5225 5.6028C11.307 6.09306 11.7909 6.60462 11.9999 7.16929C12.323 8.03789 11.9014 8.53332 11.4918 8.79406L11.308 8.91165L11.4688 9.05841C11.4903 9.07717 11.6872 9.24943 11.9779 9.27442C12.0328 9.27804 12.0857 9.28118 12.135 9.28118C12.3214 9.28118 12.4801 9.25203 12.6089 9.213C12.5733 9.27493 12.5298 9.33789 12.4749 9.40139C12.2408 9.67097 11.9527 9.79378 11.5384 9.80005L11.3845 9.80265L11.3725 9.95618C11.3709 9.98685 11.3593 10.2716 11.6306 10.5135C11.672 10.551 11.7223 10.5817 11.7747 10.6072C11.5908 10.7717 11.4039 11.0579 11.3678 11.5487C11.3373 11.9582 11.2389 12.1097 11.2378 12.1113L11.0676 12.3694L11.3751 12.3735C11.883 12.3735 12.2722 12.2341 12.5419 11.9582C12.7011 11.7948 12.7922 11.6106 12.8462 11.4472C12.9347 11.5221 13.0489 11.5877 13.1976 11.6226C13.2542 11.6356 13.3159 11.6429 13.3825 11.6429C13.526 11.6429 13.6459 11.6127 13.6595 11.6096L13.8559 11.5575L13.769 11.3754C13.7627 11.3608 13.5988 10.9955 13.7753 10.474C13.8512 10.2487 13.8899 10.0467 13.9088 9.88954C14.0324 9.95359 14.1979 10.0066 14.4121 10.0072C14.8981 10.0072 15.1123 9.64652 15.1222 9.63142L15.2181 9.46593L15.0406 9.39308C14.4613 9.15418 14.333 8.5125 14.3074 8.16486C14.3597 8.17474 14.4194 8.18411 14.487 8.18619H14.5163ZM14.9756 9.54661C14.9756 9.54661 14.8059 9.8396 14.4168 9.8396H14.4121C13.9449 9.837 13.7564 9.55387 13.7564 9.55387C13.7564 9.55387 13.7836 9.92235 13.615 10.4193C13.4123 11.0183 13.6166 11.4467 13.6166 11.4467C13.6166 11.4467 13.5076 11.4758 13.3819 11.4758C13.3338 11.4758 13.2835 11.4711 13.2363 11.4586C12.8462 11.3665 12.7488 11.0137 12.7488 11.0137C12.7488 11.0137 12.7849 12.206 11.3861 12.206H11.3751C11.3751 12.206 11.4981 12.0394 11.5348 11.5601C11.6013 10.6754 12.2041 10.5541 12.2041 10.5541C12.2041 10.5541 11.8826 10.5141 11.7432 10.3897C11.5254 10.1935 11.5406 9.96658 11.5406 9.96658C12.0328 9.95981 12.3549 9.79329 12.6006 9.51067C12.8666 9.20466 12.9106 8.87524 12.9106 8.87524C12.9106 8.87524 12.6461 9.1136 12.1344 9.1136C12.0894 9.1136 12.0412 9.11152 11.992 9.10684C11.75 9.08759 11.5825 8.93458 11.5825 8.93458C12.1151 8.59525 12.489 8.00302 12.1575 7.11099C11.892 6.39644 11.2541 5.86249 10.612 5.46018C10.3983 5.32751 10.2794 5.18021 10.2794 5.05321C10.2794 4.75451 10.7068 4.74514 10.8822 4.54424C11.0844 4.31111 10.9577 3.93274 10.7822 3.70533C10.7822 3.70533 10.8414 3.69334 10.9346 3.69334C11.1195 3.69334 11.4395 3.73966 11.7024 4.01028C12.0517 4.36938 11.9066 4.76022 11.9066 4.76022L12.0004 4.77844C12.0564 4.7904 12.1119 4.79248 12.1695 4.79508C12.1821 4.79508 12.1947 4.79562 12.2072 4.79562C12.7147 4.79562 12.9415 4.26843 12.9415 4.26843C12.9415 4.26843 13.4809 4.9278 12.687 5.44405C12.5503 5.53253 12.4901 5.61425 12.5058 5.70168L12.5183 5.75893L12.5749 5.76881C13.1505 5.92388 13.4417 6.3184 13.7973 6.767C14.3372 7.44929 15.1013 7.47113 15.1956 7.47113H15.2055C15.2055 7.47113 15.0311 8.0181 14.5174 8.0181C14.509 8.0181 14.5016 8.0181 14.4927 8.01758C14.2565 8.00925 14.1356 7.91922 14.1356 7.91922C14.1356 7.91922 14.0428 9.16146 14.9756 9.54661Z" fill="black"/>
<path d="M13.4099 5.70411C13.6451 5.82851 13.7818 5.99504 13.9017 6.14283C14.0195 6.287 14.1316 6.42594 14.3065 6.4837C14.3688 6.50506 14.4348 6.51494 14.5019 6.51494C14.7648 6.51494 15.0287 6.35515 15.1288 6.13398L15.2293 5.91229L14.9858 5.8977C14.9743 5.89719 14.6611 5.86909 14.3123 5.51468C14.1688 5.36949 13.9954 5.29297 13.8085 5.29297C13.5801 5.29297 13.411 5.40644 13.3921 5.41786L13.168 5.57453L13.4099 5.70411ZM13.809 5.46055C13.9263 5.46055 14.063 5.50012 14.1924 5.63281C14.5982 6.04241 14.9758 6.06528 14.9758 6.06528C14.9072 6.21621 14.7082 6.34893 14.5024 6.34893C14.4547 6.34893 14.4071 6.34162 14.3594 6.32549C14.0803 6.2318 13.9802 5.81547 13.4895 5.55632C13.4895 5.55632 13.6267 5.46055 13.809 5.46055Z" fill="black"/>
<path d="M13.5195 7.91655V7.92486C13.3782 6.79138 12.5496 5.97275 11.6279 5.4747C11.5425 5.42941 11.4639 5.39092 11.3875 5.35397C11.6682 5.39715 12.1202 5.40237 12.469 5.10156C12.469 5.10156 11.9353 5.49189 10.8418 5.13748C11.1445 5.33262 11.7326 5.60795 12.2695 6.05393C13.6117 7.22596 12.6512 8.36932 12.6512 8.36932C13.1336 7.86918 13.1535 7.33315 13.0115 6.89548C13.2655 7.31545 13.4279 7.82547 13.4027 8.45415C13.3656 9.35501 12.8675 10.1341 12.3433 10.7602C12.0914 11.0641 12.0348 11.4372 12.0348 11.4372C12.0348 11.4372 12.1364 11.1078 12.4281 10.769C12.9901 10.1154 13.4703 9.43619 13.5332 8.45778C13.5913 8.63527 13.8306 9.12916 14.2103 9.31495C14.2114 9.31547 13.7343 9.02973 13.5195 7.91655Z" fill="black"/>
<path d="M6.3657 12.1112C6.36516 12.1097 6.26777 11.9582 6.23635 11.5487C6.19966 11.0579 6.01322 10.7717 5.82889 10.6072C5.88231 10.5822 5.93153 10.5515 5.9729 10.5135C6.24368 10.2715 6.23216 9.98685 6.23059 9.95618L6.22011 9.80265L6.06509 9.80005C5.65187 9.79329 5.36331 9.67045 5.12919 9.40139C5.07474 9.33789 5.03074 9.2749 4.99511 9.213C5.12396 9.25203 5.28161 9.28118 5.46857 9.28118C5.51884 9.28118 5.57069 9.27804 5.62567 9.27441C5.91635 9.2494 6.11328 9.07768 6.13526 9.05841L6.29604 8.91165L6.11223 8.79406C5.70111 8.5328 5.28107 8.03734 5.60368 7.16926C5.81265 6.60462 6.29604 6.09306 7.08161 5.6028C7.3466 5.43627 7.49169 5.24057 7.49169 5.0532C7.49169 4.76387 7.24867 4.64991 7.07011 4.56871C6.98316 4.52759 6.89257 4.48648 6.84855 4.43602C6.7103 4.27726 6.82709 3.97231 6.95489 3.80733L7.11933 3.59343L6.85328 3.54139C6.84543 3.54035 6.77578 3.52734 6.66892 3.52734C6.46993 3.52734 6.09074 3.57521 5.7807 3.89424C5.52252 4.15967 5.48846 4.44225 5.50158 4.62441C5.47641 4.62647 5.4513 4.6275 5.42511 4.6291H5.39683C5.00823 4.6291 4.82442 4.22003 4.81708 4.20389L4.70763 3.94836L4.53058 4.16381C4.52065 4.17681 4.26193 4.49741 4.32476 4.89867C4.36668 5.16564 4.53531 5.39567 4.82493 5.58509C4.85635 5.60485 4.87835 5.62258 4.89407 5.63663C4.34885 5.81306 4.04408 6.20025 3.72196 6.60722L3.67536 6.66498C3.18307 7.28742 2.48654 7.30563 2.40327 7.30563L2.16602 7.29835L2.23829 7.52264C2.24666 7.54971 2.45668 8.1867 3.08723 8.1867L3.11761 8.18565C3.18413 8.18359 3.24382 8.17474 3.29726 8.16435C3.27107 8.51144 3.14275 9.15315 2.56298 9.39254L2.38599 9.46541L2.48183 9.63088C2.49125 9.64598 2.70599 10.0066 3.19303 10.0066C3.40564 10.0061 3.57113 9.95304 3.69525 9.88905C3.71411 10.0462 3.75286 10.2481 3.82882 10.4735C4.0053 10.9949 3.84089 11.3603 3.83458 11.3749L3.74767 11.557L3.94455 11.609C3.95765 11.6122 4.07863 11.6423 4.22161 11.6423C4.28864 11.6423 4.35044 11.6351 4.40597 11.622C4.5552 11.5872 4.67042 11.5216 4.7579 11.4467C4.81129 11.6101 4.90297 11.7943 5.06165 11.9577C5.33189 12.2335 5.72049 12.373 6.22848 12.373L6.53644 12.3689L6.3657 12.1112ZM6.21695 12.2065C4.81811 12.2065 4.85375 11.0142 4.85375 11.0142C4.85375 11.0142 4.75631 11.367 4.36614 11.4592C4.31954 11.4716 4.26978 11.4763 4.2211 11.4763C4.09538 11.4763 3.98698 11.4472 3.98698 11.4472C3.98698 11.4472 4.1902 11.0189 3.9875 10.4199C3.81992 9.92286 3.84714 9.55438 3.84714 9.55438C3.84714 9.55438 3.65913 9.83752 3.19146 9.84009H3.18675C2.79761 9.84009 2.62792 9.5471 2.62792 9.5471C3.56015 9.16251 3.46849 7.92076 3.46849 7.92076C3.46849 7.92076 3.34754 8.0103 3.1108 8.01913C3.10243 8.01967 3.09456 8.01967 3.0862 8.01967C2.57191 8.01967 2.39803 7.4727 2.39803 7.4727H2.40849C2.50329 7.4727 3.26636 7.45083 3.8063 6.76855C4.16189 6.31994 4.45362 5.92597 5.02815 5.77038L5.08576 5.7605L5.09829 5.70325C5.11403 5.61582 5.05431 5.5341 4.91764 5.44564C4.12366 4.92885 4.66309 4.26998 4.66309 4.26998C4.66309 4.26998 4.88882 4.79665 5.39737 4.79665C5.4099 4.79665 5.42143 4.79614 5.43453 4.79614C5.49162 4.793 5.5482 4.79094 5.60368 4.77895L5.69744 4.76073C5.69744 4.76073 5.55237 4.36989 5.90222 4.01082C6.16513 3.73966 6.48511 3.69388 6.66944 3.69388C6.7632 3.69388 6.82135 3.70584 6.82135 3.70584C6.64641 3.93378 6.51969 4.31162 6.72182 4.54478C6.89674 4.74514 7.32357 4.75502 7.32357 5.05374C7.32357 5.18021 7.2047 5.328 6.99101 5.46072C6.3484 5.86303 5.71053 6.39698 5.44551 7.1115C5.11455 8.00353 5.48797 8.59525 6.02163 8.93509C6.02163 8.93509 5.85403 9.0881 5.61155 9.10735C5.56233 9.11203 5.51468 9.11409 5.46857 9.11409C4.95741 9.11409 4.69296 8.87575 4.69296 8.87575C4.69296 8.87575 4.73693 9.20517 5.00141 9.51121C5.24863 9.79377 5.57069 9.96032 6.06301 9.96709C6.06301 9.96709 6.0787 10.194 5.86085 10.3902C5.721 10.5141 5.39946 10.5546 5.39946 10.5546C5.39946 10.5546 6.00277 10.6759 6.06875 11.5606C6.1049 12.04 6.22691 12.2065 6.22691 12.2065H6.21695Z" fill="black"/>
<path d="M3.10138 6.51833C3.16892 6.51833 3.23492 6.50845 3.29726 6.48709C3.47321 6.42933 3.58477 6.29036 3.70261 6.14622C3.82306 5.99843 3.95871 5.83188 4.19385 5.7075L4.43579 5.57841L4.21114 5.42179C4.19228 5.40983 4.02365 5.29688 3.79583 5.29688C3.60834 5.29688 3.43448 5.37288 3.29148 5.51859C2.9427 5.87248 2.63006 5.90112 2.61851 5.90163L2.375 5.91566L2.47502 6.13789C2.57556 6.35803 2.83899 6.51833 3.10138 6.51833ZM3.41143 5.6362C3.54131 5.50351 3.67799 5.46394 3.79583 5.46394C3.97703 5.46394 4.11427 5.55968 4.11427 5.55968C3.62404 5.8194 3.52348 6.2352 3.24331 6.3289C3.19723 6.34501 3.14903 6.35232 3.10138 6.35232C2.89557 6.35232 2.69655 6.22012 2.62846 6.06867C2.62846 6.06816 3.00554 6.04526 3.41143 5.6362Z" fill="black"/>
<path d="M4.20068 8.45415C4.17446 7.82547 4.33684 7.31545 4.59134 6.89548C4.44944 7.33315 4.46881 7.86918 4.95169 8.36932C4.95169 8.36932 3.99119 7.22596 5.33399 6.05393C5.87133 5.60795 6.45893 5.33262 6.7611 5.13748C5.66814 5.49189 5.13448 5.10156 5.13448 5.10156C5.48325 5.40237 5.93522 5.39715 6.21593 5.35343C6.14 5.39038 6.0604 5.42892 5.97605 5.47418C5.05327 5.97224 4.22528 6.79089 4.08338 7.92435V7.9155C3.86915 9.0287 3.39258 9.31441 3.39258 9.31441C3.77176 9.12861 4.01056 8.63527 4.06871 8.45727C4.13206 9.43568 4.61231 10.1148 5.17425 10.7685C5.46595 11.1073 5.56862 11.4367 5.56862 11.4367C5.56862 11.4367 5.51152 11.0636 5.25857 10.7596C4.73538 10.1346 4.23732 9.35501 4.20068 8.45415Z" fill="black"/>
<path d="M8.48633 6.16016V6.38499C8.56439 6.29076 8.71522 6.31003 8.71522 6.31003V6.63426C8.71522 6.63426 8.70997 6.7935 8.6529 6.86274H8.81626H8.97916C8.92312 6.79401 8.91736 6.63426 8.91736 6.63426V6.31003C8.91736 6.31003 9.06819 6.29076 9.14571 6.38499V6.16016H8.81626H8.48633Z" fill="black"/>
<path d="M8.34592 4.82638C8.45012 4.90861 8.51036 4.92214 8.51244 4.92369L8.5533 4.94242V4.73061L8.16992 4.57031C8.16992 4.57085 8.1736 4.69315 8.34592 4.82638Z" fill="black"/>
<path d="M9.25765 4.82638C9.43102 4.69315 9.43413 4.57031 9.43413 4.57031L9.05078 4.73061V4.94242L9.09113 4.92369C9.09375 4.92214 9.15344 4.90861 9.25765 4.82638Z" fill="black"/>
<path d="M9.94906 3.9654C9.94906 3.64431 9.4049 3.35547 8.8042 3.35547H8.80369H8.80212H8.80052C8.19983 3.35547 7.65572 3.64431 7.65572 3.9654L7.66776 4.04452L7.90759 5.41271L7.6667 5.55165L7.04347 5.91337H7.04556C7.04556 5.91337 6.90522 5.98466 6.84028 6.02889C6.60303 6.19285 6.55275 6.4317 6.69051 6.5306C6.72455 6.33593 6.87955 6.13194 7.1697 6.13194C7.37866 6.13194 7.53787 6.23916 7.6667 6.39997C7.69969 6.44055 7.73111 6.48375 7.76044 6.5306C7.79659 6.5894 7.83271 6.64091 7.86887 6.69088H6.26367C6.38152 6.92661 6.49357 7.17643 6.49357 7.44759V10.9781C6.49357 11.8327 7.15504 12.2407 7.87044 12.2407C8.42348 12.2407 8.49784 12.2157 8.80315 12.5176C9.10689 12.2152 9.18128 12.2407 9.73483 12.2407C10.4508 12.2407 11.1112 11.8327 11.1112 10.9781V7.44759C11.1112 7.17643 11.2233 6.92661 11.3416 6.69088H9.73591C9.77152 6.64145 9.80765 6.5894 9.8438 6.5306C9.87362 6.48375 9.90452 6.44055 9.93702 6.39997C10.0669 6.23862 10.2256 6.13194 10.4345 6.13194C10.7247 6.13194 10.8791 6.33542 10.9137 6.5306C11.0515 6.4317 11.0017 6.19285 10.7629 6.02889C10.699 5.98466 10.5587 5.91337 10.5587 5.91337H10.5607L9.93753 5.55165L9.69768 5.41271L9.93753 4.04452L9.94906 3.9654ZM7.89189 4.12465L8.73509 4.40881V5.72497L8.11448 5.39972L7.89189 4.12465ZM8.06629 6.92039C8.20454 7.05724 8.34021 7.1421 8.46904 7.18893C8.45227 7.25501 8.43027 7.39137 8.49259 7.5272C8.5434 7.63648 8.63557 7.7208 8.76808 7.77702C8.78274 7.91233 8.86863 8.1158 9.10689 8.20586C9.00268 8.31045 8.90108 8.40879 8.85973 8.44888L7.89346 8.4338C7.87149 8.42284 7.83428 8.39839 7.81753 8.36353C7.81542 8.35885 7.81228 8.35625 7.81072 8.35103L7.96836 8.37652C7.97204 8.37706 7.97516 8.37706 7.97832 8.37706C8.00868 8.37706 8.03539 8.35625 8.04064 8.32504C8.04589 8.29015 8.02232 8.2584 7.98828 8.2532L7.79451 8.22302L8.00974 7.48454L7.80601 7.0583L7.47921 7.40177L7.45932 8.16994L7.23987 8.13559C7.2058 8.12882 7.17336 8.15381 7.16762 8.18764C7.16237 8.22145 7.1854 8.2532 7.21998 8.25945L7.31214 8.2735C7.27916 8.29223 7.25767 8.3068 7.25505 8.30888L7.23622 8.3219L7.23097 8.3448C7.17755 8.56024 7.29853 8.76479 7.42893 8.85636L7.4242 8.88346C7.419 8.91673 7.42631 8.94899 7.4462 8.97608C7.46506 9.00367 7.49439 9.02031 7.52686 9.02603C7.53368 9.02708 7.54101 9.0276 7.54729 9.0276C7.60385 9.0276 7.65309 8.98856 7.66722 8.93185C7.71593 8.93754 7.76044 8.9386 7.7908 8.9386H7.81648L9.0844 9.16602L9.10586 9.15197C9.20695 9.08171 9.59188 8.80277 9.71808 8.71065C9.75266 8.74032 9.79141 8.76736 9.83855 8.78977C9.79769 8.92612 9.79507 9.13584 9.95688 9.30134H6.72558V7.44808C6.72558 7.26854 6.67268 7.08797 6.61036 6.92144H8.06629V6.92039ZM9.63325 8.61592C9.50493 8.7096 9.175 8.94899 9.05558 9.03228L7.90342 8.82672C7.90604 8.8163 7.90864 8.80642 7.91127 8.796C7.92647 8.73669 7.94166 8.65549 7.94271 8.56024L8.91103 8.57588L8.92938 8.55712C8.94405 8.54256 9.25093 8.248 9.40752 8.07831C9.4447 8.12465 9.49132 8.16891 9.5521 8.20792C9.53113 8.32036 9.54003 8.48063 9.63325 8.61592ZM7.7044 8.41767C7.73165 8.47438 7.78087 8.51238 7.81491 8.53371C7.81388 8.58679 7.80863 8.66954 7.79451 8.74241C7.79134 8.75854 7.78715 8.77364 7.78244 8.78872C7.77981 8.79808 7.77721 8.80591 7.7751 8.81213C7.72431 8.81213 7.62428 8.80591 7.54258 8.77624C7.45199 8.74292 7.31685 8.57794 7.34827 8.39631C7.38756 8.37238 7.47816 8.3219 7.56299 8.3219C7.62847 8.32139 7.67298 8.35208 7.7044 8.41767ZM7.58447 8.18918L7.60385 7.45174L7.7704 7.27636L7.87514 7.49391L7.66879 8.20166L7.58447 8.18918ZM9.62278 12.0122C9.55992 12.0122 9.50182 12.0133 9.44941 12.0154L9.58663 11.5912C9.60811 11.5324 9.49969 11.4569 9.4552 11.3908C9.52274 11.433 9.69768 11.5251 9.782 11.5621C9.77307 11.5756 9.62278 12.0122 9.62278 12.0122ZM10.0533 11.5303L9.96373 11.9945C9.90661 12.0023 9.84588 12.0065 9.78356 12.0091L9.87784 11.5626C9.90612 11.4299 9.54736 11.3888 9.37034 11.128C9.28394 11.2248 9.12107 11.2534 8.95766 11.2534C8.8084 11.2534 8.65916 11.2295 8.56852 11.2118C8.54549 11.2082 8.52349 11.2056 8.50203 11.2056C8.44964 11.2056 8.40199 11.2217 8.36901 11.2769L8.34281 11.3206L7.8542 11.2061L7.73268 11.4059C7.71541 11.4382 7.71436 11.4658 7.74212 11.496L7.7751 11.5319C7.75259 11.6027 7.65101 11.7094 7.65101 11.7094L7.57819 11.6193C7.52058 11.5553 7.53 11.4388 7.59023 11.3305L7.78401 11.0052L8.19775 11.0645L8.13332 10.9188C8.04692 10.7263 8.17837 10.4811 8.1925 10.3401C8.18779 10.3828 8.14852 10.3922 8.10242 10.3922C8.06055 10.3922 8.01393 10.3844 7.98303 10.3844C7.97099 10.3844 7.96049 10.3854 7.95475 10.3895L7.84267 10.4572L7.75413 10.3797C7.74369 10.3646 7.74001 10.3297 7.7662 10.3037L7.97099 10.0757L7.72902 9.79522L8.06786 9.96437L8.17104 9.83997C8.19932 9.86758 8.18727 9.9399 8.18727 9.9399C8.29305 9.9425 8.58949 10.1054 8.60521 10.4853C8.60626 10.4968 8.60626 10.5098 8.60626 10.5223C8.60626 10.5223 8.60889 10.5269 8.61408 10.5348C8.63505 10.5634 8.69266 10.6367 8.76597 10.6435L9.23418 10.6893H9.23626C9.28759 10.6893 9.38972 10.6295 9.52066 10.6295C9.59188 10.6295 9.67148 10.6477 9.75632 10.7008C9.75632 10.7008 9.79875 10.6675 9.86788 10.6638C9.87313 10.6633 9.87887 10.6633 9.88412 10.6633C10.0941 10.6633 10.1811 10.8517 10.2937 11.0083C10.3785 11.1275 10.4916 11.3045 10.4916 11.3045C10.4497 11.3539 10.411 11.381 10.346 11.381C10.3282 11.381 10.3078 11.3794 10.2858 11.3753C10.0606 11.3341 10.0281 10.8741 9.89981 10.8376C9.89302 10.8356 9.88569 10.8351 9.87941 10.8351C9.83801 10.8351 9.81969 10.8715 9.81969 10.8715C9.87833 11.0281 9.84431 11.0916 9.90715 11.2124C9.95431 11.3018 10.0381 11.3758 10.0726 11.4106C10.0726 11.4117 10.0632 11.4793 10.0533 11.5303ZM7.5389 11.0911L7.56036 11.1447C7.54624 11.1915 7.38388 11.2581 7.38388 11.2581L7.34881 11.1822C7.3116 11.101 7.31948 10.9641 7.43261 10.8803L7.6955 10.7211L7.97413 10.7799C7.96888 10.8678 8.02178 10.9334 8.02178 10.9334L7.72954 10.8777L7.55462 10.9979C7.52529 11.0182 7.52321 11.0562 7.5389 11.0911ZM10.0973 11.969L10.1774 11.5537C10.1816 11.5293 10.1868 11.5007 10.1905 11.4767C10.213 11.4861 10.2371 11.4939 10.2633 11.4986C10.2931 11.5043 10.3209 11.5069 10.346 11.5069C10.4686 11.5069 10.5398 11.4429 10.5874 11.3882L10.6493 11.3169L10.599 11.2389C10.5943 11.2311 10.4832 11.0562 10.3974 10.9365C10.3806 10.9131 10.3643 10.8897 10.3481 10.8642C10.2507 10.7195 10.1287 10.5379 9.88412 10.5379L9.86212 10.5384C9.8218 10.541 9.78722 10.5488 9.75946 10.5592C9.68247 10.5233 9.6034 10.5051 9.5212 10.5051C9.4201 10.5051 9.33473 10.5327 9.27818 10.5519C9.26194 10.5566 9.24727 10.5618 9.23575 10.5639L8.77855 10.5191C8.77279 10.5181 8.75393 10.5072 8.73141 10.4801V10.478L8.8304 10.4385C8.80266 10.1111 8.48631 9.90972 8.3098 9.84154C8.30198 9.80876 8.28626 9.77598 8.2585 9.74943L8.16003 9.6568L8.07362 9.75985L8.03122 9.81239L7.39121 9.55115L7.80758 10.0705L7.64314 10.3177C7.5829 10.3812 7.64941 10.4447 7.64941 10.4447L7.81908 10.5608L7.99507 10.4957C8.00135 10.4957 8.0066 10.4973 8.01236 10.4978C8.00397 10.5243 7.99299 10.6284 7.98565 10.6576L7.68032 10.5977L7.35926 10.7778C7.1943 10.898 7.17179 11.0973 7.23305 11.2337L7.26866 11.3112L7.31948 11.4205L7.43153 11.3742C7.43313 11.3737 7.4347 11.3732 7.43573 11.3721C7.39541 11.5001 7.41167 11.6219 7.48392 11.702L7.552 11.7874L7.6426 11.9014L7.74212 11.7952C7.77143 11.7661 7.86624 11.6604 7.89555 11.5699L7.91706 11.5007L7.86833 11.4476L7.86048 11.4382L7.91492 11.3487L8.31348 11.4418L8.40302 11.4621L8.4507 11.3841L8.47689 11.3414C8.4816 11.3326 8.48317 11.331 8.50149 11.331C8.51564 11.331 8.52979 11.3326 8.54497 11.3357C8.69526 11.3638 8.83405 11.3779 8.95714 11.3779C9.07653 11.3779 9.14775 11.3732 9.23315 11.3451C9.23315 11.3451 9.44732 11.5865 9.45466 11.5959L9.32374 11.9977L9.31795 12.0221C9.06974 12.0419 8.94875 12.096 8.80266 12.2412C8.59052 12.032 8.44023 12.0102 7.86989 12.0102C7.18748 12.0102 6.72504 11.6126 6.72504 10.9776V9.4252H10.8791L10.8802 10.9776C10.8807 11.4928 10.5765 11.852 10.0973 11.969ZM10.9954 6.92039C10.932 7.08694 10.8791 7.26751 10.8791 7.44705L10.8797 8.60552C10.6362 8.56492 10.6074 8.3042 10.6063 8.29275L10.6016 8.23967L10.5492 8.23498C10.4434 8.22508 10.3733 8.18036 10.3141 8.12308C10.1947 8.00442 10.1941 7.81188 10.1947 7.81034C10.1931 7.82019 10.0632 8.00079 10.2141 8.19804C10.2774 8.2813 10.3691 8.33229 10.4879 8.35262C10.5157 8.49728 10.6241 8.70129 10.8797 8.7325V9.29979H10.1612C9.82965 9.11657 9.97 8.79392 9.9768 8.78041L10.0051 8.71896L9.94173 8.69506C9.58297 8.56284 9.68144 8.20689 9.68667 8.19181L9.70133 8.13976L9.65265 8.11686C9.35619 7.98051 9.39653 7.61258 9.40019 7.59745C9.30908 7.67085 9.27609 7.82073 9.33892 7.96749C9.30488 8.00601 9.25932 8.05282 9.20958 8.10384C8.90267 8.02629 8.89325 7.74578 8.89325 7.73279L8.89271 7.68958L8.85239 7.67397C8.73247 7.62971 8.65023 7.56364 8.60992 7.47464C8.56435 7.37627 8.58058 7.27322 8.59314 7.22379C8.62824 7.23159 8.66333 7.23733 8.69686 7.23993C8.73141 7.24356 8.76702 7.24564 8.80266 7.24564H8.80474H8.80737C8.84298 7.24564 8.87805 7.24356 8.91263 7.23993C9.10378 7.2212 9.31795 7.13948 9.54106 6.91985H10.9954V6.92039ZM9.87573 5.74942L10.1596 5.91337H10.1638L10.235 5.95448C10.0747 5.99871 9.95217 6.07835 9.84954 6.18294C9.84588 6.18608 9.8422 6.19022 9.83855 6.19387C9.81498 6.21886 9.79141 6.24593 9.76941 6.27348C9.76524 6.27871 9.76103 6.28442 9.75632 6.29016C9.73432 6.31825 9.71391 6.34689 9.694 6.37707C9.69086 6.38227 9.68718 6.38747 9.68353 6.39215C9.65998 6.42701 9.63744 6.4645 9.6149 6.503C9.41277 6.84909 9.09014 7.0557 8.80315 7.05622C8.5167 7.0557 8.19409 6.84909 7.99193 6.503C7.96991 6.46556 7.94793 6.4291 7.92436 6.39369C7.91963 6.38695 7.91546 6.38019 7.91127 6.37447C7.89138 6.34584 7.87149 6.31774 7.85103 6.29119C7.84581 6.2839 7.8411 6.27819 7.83585 6.27194C7.81388 6.24539 7.79134 6.21886 7.7688 6.19439C7.76409 6.19076 7.76098 6.18608 7.75627 6.18188C7.65309 6.07729 7.53106 5.99817 7.37027 5.95448L7.44254 5.91337H7.44568L7.72954 5.74942L8.02126 5.58343L8.80052 6.00494L8.80212 6.0034L8.8042 6.00494L9.58349 5.58343L9.87573 5.74942ZM9.49132 5.40021L8.87017 5.72546V4.40881L9.71283 4.12465L9.49132 5.40021ZM8.80266 4.26414L7.8788 3.90139C7.95738 3.71664 8.31976 3.55947 8.80266 3.55896C9.28602 3.55947 9.64843 3.71664 9.72647 3.90139L8.80266 4.26414Z" fill="black"/>
</svg>
