<svg width="16" height="16" viewBox="0 0 16 16" fill="none" xmlns="http://www.w3.org/2000/svg">
<path d="M8 15.9999C12.4183 15.9999 16 12.4182 16 7.99994C16 3.58169 12.4183 0 8 0C3.58172 0 0 3.58169 0 7.99994C0 12.4182 3.58172 15.9999 8 15.9999Z" fill="#C3A634"/>
<path fill-rule="evenodd" clip-rule="evenodd" d="M6.624 7.30497H8.781V8.44796H6.624V10.8569H7.9845C8.523 10.8569 8.9635 10.7844 9.3065 10.6384C9.6495 10.4929 9.9185 10.2914 10.114 10.0335C10.314 9.76516 10.4501 9.45479 10.512 9.12596C10.5842 8.75504 10.6194 8.37785 10.617 7.99997C10.6194 7.62209 10.5842 7.2449 10.512 6.87398C10.4501 6.54513 10.314 6.23474 10.114 5.96648C9.9185 5.70849 9.649 5.50699 9.3065 5.36149C8.9635 5.21549 8.523 5.14299 7.9845 5.14299H6.624V7.30547V7.30497ZM5.241 8.44796H4.5V7.30547H5.241V4H8.5155C9.1205 4 9.644 4.105 10.0865 4.3135C10.529 4.523 10.89 4.80849 11.1705 5.17099C11.4505 5.53299 11.659 5.95698 11.7955 6.44248C11.932 6.92798 12 7.44747 12 7.99997C12.0034 8.52608 11.9345 9.05015 11.795 9.55746C11.659 10.0425 11.4505 10.4669 11.17 10.8289C10.89 11.1914 10.529 11.4769 10.0865 11.6864C9.644 11.8954 9.12 11.9999 8.5155 11.9999H5.241V8.44796Z" fill="white"/>
</svg>
