<svg width="18" height="18" viewBox="0 0 18 18" fill="none" xmlns="http://www.w3.org/2000/svg">
<g filter="url(#filter0_d_957_1234)">
<path d="M9 16.9999C13.4183 16.9999 17 13.4182 17 8.99993C17 4.58169 13.4183 1 9 1C4.58172 1 1 4.58169 1 8.99993C1 13.4182 4.58172 16.9999 9 16.9999Z" fill="black"/>
</g>
<path d="M9 16.9999C13.4183 16.9999 17 13.4182 17 8.99993C17 4.58169 13.4183 1 9 1C4.58172 1 1 4.58169 1 8.99993C1 13.4182 4.58172 16.9999 9 16.9999Z" fill="black"/>
<path style="mix-blend-mode:soft-light" d="M9 16.9999C13.4183 16.9999 17 13.4182 17 8.99993C17 4.58169 13.4183 1 9 1C4.58172 1 1 4.58169 1 8.99993C1 13.4182 4.58172 16.9999 9 16.9999Z" fill="url(#paint0_linear_957_1234)"/>
<path d="M9.00091 16.7322C13.2719 16.7322 16.7342 13.2699 16.7342 8.99889C16.7342 4.72793 13.2719 1.26562 9.00091 1.26562C4.72991 1.26562 1.26758 4.72793 1.26758 8.99889C1.26758 13.2699 4.72991 16.7322 9.00091 16.7322Z" stroke="black" stroke-opacity="0.097" stroke-width="0.533331"/>
<path d="M12.8025 5.42363L11.5225 6.07642L5.33695 9.2268C5.24882 8.54978 5.35051 7.8616 5.63069 7.23901C5.91086 6.61642 6.3585 6.08392 6.92367 5.70089C7.48883 5.31787 8.1493 5.09939 8.83139 5.06983C9.51348 5.04028 10.1904 5.2008 10.7865 5.53349L11.5193 5.16016L11.6287 5.10416C10.9335 4.59968 10.1085 4.30467 9.251 4.25395C8.39354 4.20323 7.53948 4.39893 6.78966 4.81794C6.03985 5.23695 5.42559 5.86177 5.01942 6.61862C4.61326 7.37547 4.43215 8.23274 4.49748 9.0892C4.50971 9.25029 4.474 9.4114 4.39485 9.55223C4.3157 9.69307 4.19664 9.80734 4.05268 9.88066L3.66602 10.078V10.9974L4.80415 10.4172L5.17268 10.2289L5.53588 10.0439L12.0564 6.72122L12.7892 6.34842L14.3039 5.57669V4.65777L12.8025 5.42363ZM14.3044 6.49669L5.90708 10.7719L5.17428 11.1452L3.66655 11.9148V12.8337L5.16415 12.071L6.44468 11.4182L12.6367 8.26307C12.7262 8.94112 12.6252 9.63069 12.345 10.2546C12.0648 10.8785 11.6165 11.4121 11.0503 11.7957C10.4841 12.1793 9.82227 12.3978 9.13894 12.4266C8.45562 12.4555 7.77775 12.2936 7.18122 11.959L7.13588 11.983L6.34122 12.3884C7.03652 12.8931 7.86177 13.1883 8.71948 13.2391C9.57718 13.2898 10.4315 13.094 11.1815 12.6748C11.9315 12.2556 12.5458 11.6304 12.9518 10.8732C13.3579 10.116 13.5387 9.25842 13.4729 8.40174C13.4609 8.2408 13.4966 8.07988 13.5756 7.93917C13.6546 7.79845 13.7735 7.68422 13.9172 7.61081L14.3044 7.41348V6.49722V6.49669Z" fill="white"/>
<defs>
<filter id="filter0_d_957_1234" x="0.466669" y="0.733334" width="17.0667" height="17.0667" filterUnits="userSpaceOnUse" color-interpolation-filters="sRGB">
<feFlood flood-opacity="0" result="BackgroundImageFix"/>
<feColorMatrix in="SourceAlpha" type="matrix" values="0 0 0 0 0 0 0 0 0 0 0 0 0 0 0 0 0 0 127 0" result="hardAlpha"/>
<feOffset dy="0.266666"/>
<feGaussianBlur stdDeviation="0.266666"/>
<feComposite in2="hardAlpha" operator="out"/>
<feColorMatrix type="matrix" values="0 0 0 0 0 0 0 0 0 0 0 0 0 0 0 0 0 0 0.199474 0"/>
<feBlend mode="normal" in2="BackgroundImageFix" result="effect1_dropShadow_957_1234"/>
<feBlend mode="normal" in="SourceGraphic" in2="effect1_dropShadow_957_1234" result="shape"/>
</filter>
<linearGradient id="paint0_linear_957_1234" x1="9" y1="1" x2="9" y2="16.9999" gradientUnits="userSpaceOnUse">
<stop stop-color="white" stop-opacity="0.5"/>
<stop offset="1" stop-opacity="0.5"/>
</linearGradient>
</defs>
</svg>
