<svg width="16" height="16" viewBox="0 0 16 16" fill="none" xmlns="http://www.w3.org/2000/svg">
<g clip-path="url(#clip0_957_1218)">
<path d="M7.99998 16C12.4183 16 16 12.4183 16 7.99998C16 3.58171 12.4183 0 7.99998 0C3.58171 0 0 3.58171 0 7.99998C0 12.4183 3.58171 16 7.99998 16Z" fill="#26A17B"/>
<path fill-rule="evenodd" clip-rule="evenodd" d="M8.96138 8.69214V8.69115C8.90638 8.69515 8.62288 8.71215 7.99038 8.71215C7.48538 8.71215 7.12988 8.69715 7.00488 8.69115V8.69265C5.06089 8.60715 3.60989 8.26865 3.60989 7.86365C3.60989 7.45915 5.06089 7.12065 7.00488 7.03365V8.35565C7.13188 8.36465 7.49588 8.38615 7.99888 8.38615C8.60238 8.38615 8.90488 8.36115 8.96138 8.35615V7.03465C10.9014 7.12115 12.3489 7.45965 12.3489 7.86365C12.3489 8.26865 10.9014 8.60615 8.96138 8.69214ZM8.96138 6.89715V5.71415H11.6684V3.91016H4.29789V5.71415H7.00488V6.89665C4.80489 6.99765 3.15039 7.43365 3.15039 7.95565C3.15039 8.47765 4.80489 8.91314 7.00488 9.01464V12.8056H8.96138V9.01364C11.1579 8.91264 12.8084 8.47715 12.8084 7.95565C12.8084 7.43415 11.1579 6.99865 8.96138 6.89715Z" fill="white"/>
</g>
<defs>
<clipPath id="clip0_957_1218">
<rect width="16" height="16" rx="3.62026" fill="white"/>
</clipPath>
</defs>
</svg>
