<svg width="16" height="16" viewBox="0 0 16 16" fill="none" xmlns="http://www.w3.org/2000/svg">
<path d="M8 16C12.4183 16 16 12.4183 16 8C16 3.58172 12.4183 0 8 0C3.58172 0 0 3.58172 0 8C0 12.4183 3.58172 16 8 16Z" fill="#0AC18E"/>
<path d="M10.6033 5.26541C10.2153 4.27941 9.24228 4.19041 8.10928 4.41041L7.70578 3.00391L6.84978 3.24941L7.24278 4.61941C7.01778 4.68341 6.78878 4.75441 6.56128 4.82441L6.16628 3.44541L5.31078 3.69041L5.71328 5.09691C5.52928 5.15391 5.34828 5.20991 5.17078 5.26091L5.16928 5.25591L3.98828 5.59441L4.25078 6.50941C4.25078 6.50941 4.87978 6.31541 4.87228 6.33041C5.21928 6.23091 5.38978 6.39991 5.47228 6.56441L5.93228 8.16641C5.95578 8.15991 5.98728 8.15191 6.02428 8.14641L5.93378 8.17241L6.57728 10.4174C6.59328 10.5309 6.57928 10.7234 6.33728 10.7934C6.35078 10.7999 5.71428 10.9714 5.71428 10.9714L5.83778 12.0429L6.95178 11.7229C7.15928 11.6644 7.36428 11.6094 7.56478 11.5529L7.97328 12.9754L8.82828 12.7304L8.42478 11.3229C8.65413 11.262 8.88281 11.1987 9.11078 11.1329L9.51178 12.5344L10.3683 12.2889L9.96128 10.8689C11.3768 10.3734 12.2803 9.72191 12.0178 8.33391C11.8068 7.21691 11.1558 6.87791 10.2823 6.91591C10.7063 6.52091 10.8888 5.98641 10.6033 5.26541ZM10.2783 8.65041C10.5833 9.71391 8.72828 10.1149 8.14828 10.2819L7.60778 8.39691C8.18778 8.23041 9.95978 7.54191 10.2778 8.65091L10.2783 8.65041ZM9.11728 6.10541C9.39428 7.07291 7.84378 7.39541 7.36028 7.53391L6.87028 5.82441C7.35328 5.68591 8.82778 5.09691 9.11728 6.10591V6.10541Z" fill="white"/>
</svg>
