<svg width="16" height="16" viewBox="0 0 16 16" fill="none" xmlns="http://www.w3.org/2000/svg">
<g clip-path="url(#clip0_957_1319)">
<path d="M7.99999 16C12.4183 16 16 12.4183 16 7.99999C16 3.58172 12.4183 0 7.99999 0C3.58172 0 0 3.58172 0 7.99999C0 12.4183 3.58172 16 7.99999 16Z" fill="#0F4FE3"/>
<path d="M8.00286 2.04688L5.21598 5.8819L4.04883 11.5511L8.00286 13.9569L11.9569 11.5511L10.7659 5.85807L8.00286 2.04688ZM4.69195 11.289L5.57327 6.97761L7.57411 13.0517L4.69195 11.289ZM5.85911 6.00099L8.00286 3.04731L10.1466 6.00099L8.00286 12.48L5.85911 6.00099ZM8.40779 13.0517L10.4086 6.97761L11.2899 11.289L8.40779 13.0517Z" fill="white"/>
</g>
<defs>
<clipPath id="clip0_957_1319">
<rect width="16" height="16" rx="3.62027" fill="white"/>
</clipPath>
</defs>
</svg>
