<svg width="16" height="16" viewBox="0 0 16 16" fill="none" xmlns="http://www.w3.org/2000/svg">
<g clip-path="url(#clip0_957_1172)">
<path d="M8.00194 16C12.4202 16 16.0019 12.4183 16.0019 8C16.0019 3.58172 12.4202 0 8.00194 0C3.58367 0 0.00195312 3.58172 0.00195312 8C0.00195312 12.4183 3.58367 16 8.00194 16Z" fill="#627EEA"/>
<path d="M8.25 2V6.435L11.9985 8.11L8.25 2Z" fill="white" fill-opacity="0.602"/>
<path d="M8.25095 2L4.50195 8.11L8.25095 6.435V2Z" fill="white"/>
<path d="M8.25 10.9846V13.9981L12.001 8.80859L8.25 10.9846Z" fill="white" fill-opacity="0.602"/>
<path d="M8.25095 13.9981V10.9841L4.50195 8.80859L8.25095 13.9981Z" fill="white"/>
<path d="M8.25 10.288L11.9985 8.1115L8.25 6.4375V10.288Z" fill="white" fill-opacity="0.2"/>
<path d="M4.50195 8.1115L8.25095 10.288V6.4375L4.50195 8.1115Z" fill="white" fill-opacity="0.602"/>
</g>
<defs>
<clipPath id="clip0_957_1172">
<rect width="16" height="16" rx="3.62027" fill="white"/>
</clipPath>
</defs>
</svg>
