<svg width="16" height="16" viewBox="0 0 16 16" fill="none" xmlns="http://www.w3.org/2000/svg">
<path d="M8 15.9999C12.4183 15.9999 16 12.4182 16 7.99993C16 3.58169 12.4183 0 8 0C3.58172 0 0 3.58169 0 7.99993C0 12.4182 3.58172 15.9999 8 15.9999Z" fill="#ECB244"/>
<path d="M7.54801 9.92294H10.6965V11.5979H8.75901C8.79101 12.0769 8.80751 12.5214 8.83951 12.9999H7.20901V11.6149H5.27101C5.27101 11.0684 5.20651 10.5214 5.30351 10.0084C5.35201 9.73494 5.64251 9.49545 5.82001 9.25645C6.43414 8.48901 7.05315 7.7255 7.67701 6.96597C7.91951 6.67497 8.16151 6.40147 8.43601 6.07697H5.41601V4.40199H7.20901V3H8.77501V4.36749H10.729C10.729 4.93148 10.7935 5.47848 10.6965 5.99147C10.648 6.26497 10.3575 6.50447 10.164 6.74347C9.54989 7.5109 8.93088 8.27441 8.30701 9.03395C8.06342 9.33818 7.81029 9.63466 7.54801 9.92294Z" fill="white"/>
</svg>
