<svg width="17" height="16" viewBox="0 0 17 16" fill="none" xmlns="http://www.w3.org/2000/svg">
<rect x="0.800781" width="16" height="16" rx="8" fill="#EE3424"/>
<path d="M8.80295 2.5C9.4837 2.5 9.6976 2.98775 9.8764 3.47543C9.95235 3.68208 11.7205 8.5251 11.7731 8.6704C11.788 8.71057 11.7783 8.77757 11.7157 8.80138C11.6531 8.8249 10.7344 9.1825 10.6837 9.20164C10.6329 9.22063 10.5757 9.19237 10.557 9.14187C10.5382 9.09168 10.1573 8.03584 10.1143 7.91782C9.98768 7.91782 7.62115 7.91782 7.49472 7.91782C7.45155 8.03584 7.06676 9.09379 7.04905 9.14187C7.03157 9.19048 6.97627 9.22282 6.92262 9.20164C6.86875 9.18031 5.94584 8.82263 5.89129 8.80138C5.83855 8.78118 5.81421 8.72105 5.83312 8.6704C5.89792 8.48877 7.63916 3.72383 7.72829 3.47543C7.90068 2.99552 8.12243 2.5 8.80295 2.5ZM5.69298 11.165C5.63805 11.165 5.59375 11.2108 5.59375 11.2669V12.3984C5.59375 12.4549 5.63813 12.5 5.69298 12.5H11.913C11.9675 12.5 12.0114 12.4549 12.0114 12.3984V11.2669C12.0114 11.2108 11.9675 11.165 11.913 11.165H5.69298ZM8.79775 4.08136L7.91176 6.74169H9.6976L8.8086 4.08136H8.79775Z" fill="white"/>
</svg>
