<svg width="16" height="16" viewBox="0 0 16 16" fill="none" xmlns="http://www.w3.org/2000/svg">
<g clip-path="url(#clip0_957_1295)">
<path d="M8.00003 16.0001C12.4183 16.0001 16.0001 12.4183 16.0001 8.00003C16.0001 3.58173 12.4183 0 8.00003 0C3.58173 0 0 3.58173 0 8.00003C0 12.4183 3.58173 16.0001 8.00003 16.0001Z" fill="#008CE7"/>
<path d="M9.54108 4.00391H5.90307L5.60207 5.68741L8.88308 5.69241C10.4986 5.69241 10.9781 6.27891 10.9626 7.25242C10.9556 7.75142 10.7381 8.59542 10.6461 8.86742C10.3976 9.59743 9.88558 10.4284 7.96657 10.4259L4.77756 10.4239L4.47656 12.1094H8.10508C9.38458 12.1094 9.92958 11.9599 10.5051 11.6944C11.7821 11.1054 12.5426 9.84393 12.8481 8.19742C13.3011 5.74741 12.7361 4.00391 9.54058 4.00391H9.54108Z" fill="white"/>
<path d="M7.90152 7.90094C8.02002 7.40844 8.05752 7.21094 8.05752 7.21094H4.3345C3.3825 7.21094 3.2465 7.83094 3.156 8.20594C3.0375 8.69644 3 8.89644 3 8.89644H6.72351C7.67501 8.89644 7.81102 8.27644 7.90152 7.90094Z" fill="white"/>
</g>
<defs>
<clipPath id="clip0_957_1295">
<rect width="16" height="16" rx="3.62028" fill="white"/>
</clipPath>
</defs>
</svg>
