<svg width="18" height="19" viewBox="0 0 18 19" fill="none" xmlns="http://www.w3.org/2000/svg">
<g clip-path="url(#clip0_435_75883)">
<path fill-rule="evenodd" clip-rule="evenodd" d="M9 1.28906C8.91742 1.28906 8.84695 1.34876 8.83337 1.43022L8.16897 5.41665C8.16347 5.44961 8.15807 5.48212 8.15274 5.51419C8.03367 6.23063 7.95152 6.72495 7.7098 7.13067C7.49708 7.48774 7.19868 7.78614 6.84161 7.99887C6.43588 8.24058 5.94157 8.32273 5.22512 8.4418C5.19306 8.44713 5.16055 8.45253 5.12758 8.45803L1.14116 9.12243C1.0597 9.13601 1 9.20648 1 9.28906C1 9.37164 1.0597 9.44212 1.14116 9.45569L5.12758 10.1201C5.16056 10.1256 5.19307 10.131 5.22514 10.1363C5.94158 10.2554 6.43589 10.3375 6.84161 10.5793C7.19868 10.792 7.49708 11.0904 7.7098 11.4475C7.95152 11.8532 8.03367 12.3475 8.15274 13.0639C8.15807 13.096 8.16347 13.1285 8.16897 13.1615L8.83337 17.1479C8.84695 17.2294 8.91742 17.2891 9 17.2891C9.08258 17.2891 9.15305 17.2294 9.16663 17.1479L9.83103 13.1615C9.83653 13.1285 9.84193 13.096 9.84726 13.0639C9.96633 12.3475 10.0485 11.8532 10.2902 11.4475C10.5029 11.0904 10.8013 10.792 11.1584 10.5793C11.5641 10.3375 12.0584 10.2554 12.7749 10.1363C12.8069 10.131 12.8394 10.1256 12.8724 10.1201L16.8588 9.45569C16.9403 9.44212 17 9.37164 17 9.28906C17 9.20648 16.9403 9.13601 16.8588 9.12243L12.8724 8.45803C12.8394 8.45253 12.8069 8.44713 12.7749 8.4418C12.0584 8.32273 11.5641 8.24058 11.1584 7.99887C10.8013 7.78614 10.5029 7.48774 10.2902 7.13067C10.0485 6.72495 9.96633 6.23064 9.84726 5.5142C9.84193 5.48213 9.83653 5.44962 9.83103 5.41665L9.16663 1.43022C9.15305 1.34876 9.08258 1.28906 9 1.28906ZM9 0.289062C9.57142 0.289062 10.0591 0.702177 10.153 1.26582L10.8174 5.25225C10.9596 6.10517 11.0164 6.39583 11.1493 6.61886C11.2769 6.8331 11.456 7.01214 11.6702 7.13977C11.8932 7.27264 12.1839 7.32948 13.0368 7.47163L17.0232 8.13604C17.5869 8.22998 18 8.71765 18 9.28906C18 9.86048 17.5869 10.3481 17.0232 10.4421L13.0368 11.1065C12.1839 11.2486 11.8932 11.3055 11.6702 11.4384C11.456 11.566 11.2769 11.745 11.1493 11.9593C11.0164 12.1823 10.9596 12.473 10.8174 13.3259L10.153 17.3123C10.0591 17.8759 9.57142 18.2891 9 18.2891C8.42858 18.2891 7.94092 17.8759 7.84698 17.3123L7.18257 13.3259C7.04042 12.473 6.98358 12.1823 6.85071 11.9593C6.72307 11.745 6.54403 11.566 6.32979 11.4384C6.10677 11.3055 5.81611 11.2486 4.96319 11.1065L0.976757 10.4421C0.413114 10.3481 0 9.86048 0 9.28906C0 8.71765 0.413114 8.22998 0.976757 8.13604L4.96319 7.47163C5.81611 7.32948 6.10677 7.27264 6.32979 7.13977C6.54403 7.01214 6.72307 6.8331 6.85071 6.61886C6.98358 6.39583 7.04042 6.10517 7.18257 5.25225L7.84698 1.26582C7.94092 0.702176 8.42858 0.289062 9 0.289062Z" fill="black"/>
<path fill-rule="evenodd" clip-rule="evenodd" d="M15 0.789062C15.2761 0.789062 15.5 1.01292 15.5 1.28906V5.28906C15.5 5.56521 15.2761 5.78906 15 5.78906C14.7239 5.78906 14.5 5.56521 14.5 5.28906V1.28906C14.5 1.01292 14.7239 0.789062 15 0.789062Z" fill="black"/>
<path fill-rule="evenodd" clip-rule="evenodd" d="M12.5 3.28906C12.5 3.01292 12.7239 2.78906 13 2.78906L17 2.78906C17.2761 2.78906 17.5 3.01292 17.5 3.28906C17.5 3.5652 17.2761 3.78906 17 3.78906L13 3.78906C12.7239 3.78906 12.5 3.5652 12.5 3.28906Z" fill="black"/>
<path d="M4 15.2891C4 15.8413 3.55228 16.2891 3 16.2891C2.44772 16.2891 2 15.8413 2 15.2891C2 14.7368 2.44772 14.2891 3 14.2891C3.55228 14.2891 4 14.7368 4 15.2891Z" fill="black"/>
</g>
<defs>
<clipPath id="clip0_435_75883">
<rect width="18" height="18" fill="white" transform="translate(0 0.289062)"/>
</clipPath>
</defs>
</svg>
