<svg width="410" height="192" viewBox="0 0 410 192" fill="none" xmlns="http://www.w3.org/2000/svg">
<path d="M80 59C80 48.5066 88.5066 40 99 40H379.6C390.241 40 395.561 40 399.626 42.0709C403.201 43.8925 406.108 46.7991 407.929 50.3742C410 54.4385 410 59.759 410 70.4V78H99C88.5066 78 80 69.4934 80 59Z" fill="#0030BF"/>
<path d="M96.54 65H97.836L99.15 61.346H104.658L105.972 65H107.34L102.66 52.4H101.22L96.54 65ZM99.564 60.194L101.904 53.75H101.94L104.244 60.194H99.564ZM117.333 65.126C119.727 65.126 121.293 63.56 121.293 60.806V60.194C121.293 57.422 119.745 55.874 117.333 55.874C114.939 55.874 113.373 57.44 113.373 60.194V60.806C113.373 63.578 114.921 65.126 117.333 65.126ZM117.333 64.046C115.713 64.046 114.597 62.93 114.597 60.806V60.194C114.597 58.052 115.695 56.954 117.333 56.954C118.953 56.954 120.069 58.07 120.069 60.194V60.806C120.069 62.948 118.971 64.046 117.333 64.046ZM125.294 65H126.482V57.08H129.488V56H122.288V57.08H125.294V65ZM131.385 65H132.573V60.86H134.193L137.145 65H138.585L135.147 60.284L138.225 56H136.821L134.193 59.78H132.573V56H131.385V65ZM142.033 68.6H143.257L148.117 56H146.893L144.067 63.524H144.031L140.953 56H139.657L143.419 65L142.033 68.6ZM148.374 67.34H149.526V65H156.492V67.34H157.644V63.92H156.474V56H150.354V58.7C150.354 61.598 150.138 62.714 149.364 63.92H148.374V67.34ZM150.696 63.92V63.884C151.344 62.516 151.506 61.292 151.506 58.7V57.08H155.286V63.92H150.696ZM162.132 65.126C163.41 65.126 164.526 64.532 165.246 63.47H165.282L165.426 65H166.362V59.06C166.362 56.972 165.264 55.874 162.942 55.874C160.764 55.874 159.612 57.026 159.522 58.34H160.746C160.836 57.548 161.484 56.99 162.942 56.99C164.526 56.99 165.174 57.638 165.174 59.06V59.726H162.852C160.278 59.726 159.162 60.806 159.162 62.516C159.162 64.136 160.152 65.126 162.132 65.126ZM162.222 64.01C160.962 64.01 160.386 63.434 160.386 62.516C160.386 61.436 161.088 60.734 162.942 60.734H165.174V61.22C165.174 62.858 163.95 64.01 162.222 64.01ZM173.837 68.6H175.025V63.74H175.061C175.691 64.658 176.663 65.126 177.959 65.126C180.029 65.126 181.577 63.578 181.577 60.806V60.194C181.577 57.386 180.065 55.874 177.959 55.874C176.663 55.874 175.745 56.324 174.953 57.35H174.917L174.773 56H173.837V68.6ZM177.689 64.046C176.141 64.046 175.025 62.93 175.025 60.806V60.194C175.025 58.034 176.105 56.954 177.689 56.954C179.237 56.954 180.353 58.07 180.353 60.194V60.806C180.353 62.966 179.273 64.046 177.689 64.046ZM185.135 68.6H186.359L191.219 56H189.995L187.169 63.524H187.133L184.055 56H182.759L186.521 65L185.135 68.6ZM196.718 65.126C199.076 65.126 200.66 63.542 200.66 60.896V60.284C200.66 57.62 199.094 56.054 196.934 56.054C195.602 56.054 194.54 56.612 193.928 57.62H193.892C194.036 55.928 194.45 54.902 195.332 54.326C196.484 53.588 198.14 54.038 199.94 53.372V52.274C197.636 52.994 196.286 52.49 194.792 53.372C193.136 54.362 192.74 56.558 192.74 59.294V60.266C192.74 63.596 194.27 65.126 196.718 65.126ZM196.718 64.046C195.08 64.046 193.964 62.93 193.964 60.896V60.284C193.964 58.214 195.044 57.134 196.718 57.134C198.338 57.134 199.436 58.232 199.436 60.284V60.896C199.436 62.948 198.338 64.046 196.718 64.046ZM201.829 65.126H202.099C204.781 65.126 204.817 62.39 204.817 58.52V57.08H208.561V65H209.749V56H203.629V58.52C203.629 61.94 203.593 64.046 202.099 64.046H201.829V65.126ZM212.807 65H214.463L218.963 57.35H218.999V65H220.187V56H218.531L214.031 63.65H213.995V56H212.807V65ZM227.749 65H228.937V57.08H233.581V65H234.769V56H227.749V65ZM241.241 65.126C243.635 65.126 245.201 63.56 245.201 60.806V60.194C245.201 57.422 243.653 55.874 241.241 55.874C238.847 55.874 237.281 57.44 237.281 60.194V60.806C237.281 63.578 238.829 65.126 241.241 65.126ZM241.241 64.046C239.621 64.046 238.505 62.93 238.505 60.806V60.194C238.505 58.052 239.603 56.954 241.241 56.954C242.861 56.954 243.977 58.07 243.977 60.194V60.806C243.977 62.948 242.879 64.046 241.241 64.046ZM250.958 65.126C253.082 65.126 254.288 63.92 254.558 62.3H253.334C253.064 63.362 252.38 64.046 251.048 64.046C249.536 64.046 248.402 62.912 248.402 60.716V60.104C248.402 58.07 249.518 56.954 251.048 56.954C252.38 56.954 253.064 57.638 253.334 58.52H254.558C254.288 57.08 253.082 55.874 250.958 55.874C248.726 55.874 247.178 57.422 247.178 60.104V60.716C247.178 63.614 248.69 65.126 250.958 65.126ZM258.641 65H259.829V57.08H262.835V56H255.635V57.08H258.641V65ZM266.381 68.6H267.605L272.465 56H271.241L268.415 63.524H268.379L265.301 56H264.005L267.767 65L266.381 68.6ZM274.436 65H275.624V57.08H280.268V65H281.456V56H274.436V65ZM283.699 65H285.067L286.975 61.634C287.191 61.652 287.425 61.652 287.659 61.652H289.351V65H290.539V56H287.659C285.103 56 284.059 57.044 284.059 58.826C284.059 60.104 284.581 60.986 285.805 61.4L283.699 65ZM285.283 58.826C285.283 57.692 285.895 57.08 287.749 57.08H289.351V60.572H287.749C285.895 60.572 285.283 59.96 285.283 58.826ZM295.432 65H296.62V57.08H299.626V56H292.426V57.08H295.432V65ZM306.024 65H307.212V60.95H312.216V65H313.404V56H312.216V59.87H307.212V56H306.024V65ZM318.806 65.126C320.084 65.126 321.2 64.532 321.92 63.47H321.956L322.1 65H323.036V59.06C323.036 56.972 321.938 55.874 319.616 55.874C317.438 55.874 316.286 57.026 316.196 58.34H317.42C317.51 57.548 318.158 56.99 319.616 56.99C321.2 56.99 321.848 57.638 321.848 59.06V59.726H319.526C316.952 59.726 315.836 60.806 315.836 62.516C315.836 64.136 316.826 65.126 318.806 65.126ZM318.896 64.01C317.636 64.01 317.06 63.434 317.06 62.516C317.06 61.436 317.762 60.734 319.616 60.734H321.848V61.22C321.848 62.858 320.624 64.01 318.896 64.01ZM330.51 65H331.698V60.86H333.318L336.27 65H337.71L334.272 60.284L337.35 56H335.946L333.318 59.78H331.698V56H330.51V65ZM341.85 65.126C343.128 65.126 344.244 64.532 344.964 63.47H345L345.144 65H346.08V59.06C346.08 56.972 344.982 55.874 342.66 55.874C340.482 55.874 339.33 57.026 339.24 58.34H340.464C340.554 57.548 341.202 56.99 342.66 56.99C344.244 56.99 344.892 57.638 344.892 59.06V59.726H342.57C339.996 59.726 338.88 60.806 338.88 62.516C338.88 64.136 339.87 65.126 341.85 65.126ZM341.94 64.01C340.68 64.01 340.104 63.434 340.104 62.516C340.104 61.436 340.806 60.734 342.66 60.734H344.892V61.22C344.892 62.858 343.668 64.01 341.94 64.01ZM349.055 68.6H350.243V63.74H350.279C350.909 64.658 351.881 65.126 353.177 65.126C355.247 65.126 356.795 63.578 356.795 60.806V60.194C356.795 57.386 355.283 55.874 353.177 55.874C351.881 55.874 350.963 56.324 350.171 57.35H350.135L349.991 56H349.055V68.6ZM352.907 64.046C351.359 64.046 350.243 62.93 350.243 60.806V60.194C350.243 58.034 351.323 56.954 352.907 56.954C354.455 56.954 355.571 58.07 355.571 60.194V60.806C355.571 62.966 354.491 64.046 352.907 64.046ZM360.805 65H361.993V57.08H364.999V56H357.799V57.08H360.805V65ZM368.545 68.6H369.769L374.629 56H373.405L370.579 63.524H370.543L367.465 56H366.169L369.931 65L368.545 68.6ZM378.85 61.58H380.11C380.11 58.232 383.35 58.952 383.35 55.64C383.35 53.642 381.982 52.274 379.48 52.274C377.086 52.274 375.7 53.66 375.61 55.82H376.906C376.996 54.362 377.896 53.462 379.48 53.462C381.154 53.462 382.054 54.362 382.054 55.64C382.054 58.268 378.85 57.548 378.85 61.58ZM379.48 65.126C380.056 65.126 380.47 64.694 380.47 64.136C380.47 63.596 380.056 63.146 379.48 63.146C378.904 63.146 378.49 63.596 378.49 64.136C378.49 64.694 378.904 65.126 379.48 65.126Z" fill="white"/>
<path d="M80 19C80 8.50659 88.5066 0 99 0H379.6C390.241 0 395.561 0 399.626 2.07088C403.201 3.89247 406.108 6.7991 407.929 10.3742C410 14.4385 410 19.759 410 30.4V38H99C88.5066 38 80 29.4934 80 19Z" fill="#0030BF"/>
<path d="M101.4 25.126C104.136 25.126 105.63 23.632 105.63 21.49C105.63 20.068 104.928 19.024 103.614 18.502V18.466C104.712 17.944 105.36 16.918 105.36 15.712C105.36 13.678 103.956 12.274 101.4 12.274C98.844 12.274 97.44 13.678 97.26 16H98.556C98.736 14.326 99.636 13.426 101.4 13.426C103.164 13.426 104.064 14.326 104.064 15.712C104.064 17.044 103.164 17.944 101.4 17.944H99.87V19.096H101.4C103.344 19.096 104.334 20.086 104.334 21.49C104.334 22.984 103.344 23.974 101.4 23.974C99.456 23.974 98.466 22.984 98.286 21.22H96.99C97.17 23.632 98.664 25.126 101.4 25.126ZM106.889 27.34H108.041V25H115.007V27.34H116.159V23.92H114.989V16H108.869V18.7C108.869 21.598 108.653 22.714 107.879 23.92H106.889V27.34ZM109.211 23.92V23.884C109.859 22.516 110.021 21.292 110.021 18.7V17.08H113.801V23.92H109.211ZM118.132 28.6H119.32V23.74H119.356C119.986 24.658 120.958 25.126 122.254 25.126C124.324 25.126 125.872 23.578 125.872 20.806V20.194C125.872 17.386 124.36 15.874 122.254 15.874C120.958 15.874 120.04 16.324 119.248 17.35H119.212L119.068 16H118.132V28.6ZM121.984 24.046C120.436 24.046 119.32 22.93 119.32 20.806V20.194C119.32 18.034 120.4 16.954 121.984 16.954C123.532 16.954 124.648 18.07 124.648 20.194V20.806C124.648 22.966 123.568 24.046 121.984 24.046ZM130.737 25.126C132.015 25.126 133.131 24.532 133.851 23.47H133.887L134.031 25H134.967V19.06C134.967 16.972 133.869 15.874 131.547 15.874C129.369 15.874 128.217 17.026 128.127 18.34H129.351C129.441 17.548 130.089 16.99 131.547 16.99C133.131 16.99 133.779 17.638 133.779 19.06V19.726H131.457C128.883 19.726 127.767 20.806 127.767 22.516C127.767 24.136 128.757 25.126 130.737 25.126ZM130.827 24.01C129.567 24.01 128.991 23.434 128.991 22.516C128.991 21.436 129.693 20.734 131.547 20.734H133.779V21.22C133.779 22.858 132.555 24.01 130.827 24.01ZM137.942 25H141.722C143.81 25 144.782 24.028 144.782 22.426C144.782 21.472 144.26 20.716 143.288 20.338V20.302C144.008 19.942 144.422 19.258 144.422 18.466C144.422 16.972 143.45 16 141.362 16H137.942V25ZM143.198 18.484C143.198 19.384 142.676 19.906 141.272 19.906H139.13V17.08H141.272C142.676 17.08 143.198 17.602 143.198 18.484ZM143.558 22.408C143.558 23.398 143.036 23.92 141.632 23.92H139.13V20.914H141.632C143.036 20.914 143.558 21.436 143.558 22.408ZM150.534 25.126C152.658 25.126 153.864 23.92 154.134 22.3H152.91C152.64 23.362 151.956 24.046 150.624 24.046C149.112 24.046 147.978 22.912 147.978 20.716V20.104C147.978 18.07 149.094 16.954 150.624 16.954C151.956 16.954 152.64 17.638 152.91 18.52H154.134C153.864 17.08 152.658 15.874 150.534 15.874C148.302 15.874 146.754 17.422 146.754 20.104V20.716C146.754 23.614 148.266 25.126 150.534 25.126ZM158.218 25H159.406V17.08H162.412V16H155.212V17.08H158.218V25ZM164.309 25H168.089C170.177 25 171.149 24.028 171.149 22.426C171.149 21.472 170.627 20.716 169.655 20.338V20.302C170.375 19.942 170.789 19.258 170.789 18.466C170.789 16.972 169.817 16 167.729 16H164.309V25ZM169.565 18.484C169.565 19.384 169.043 19.906 167.639 19.906H165.497V17.08H167.639C169.043 17.08 169.565 17.602 169.565 18.484ZM169.925 22.408C169.925 23.398 169.403 23.92 167.999 23.92H165.497V20.914H167.999C169.403 20.914 169.925 21.436 169.925 22.408ZM174.605 28.6H175.829L180.689 16H179.465L176.639 23.524H176.603L173.525 16H172.229L175.991 25L174.605 28.6ZM182.661 25H184.317L188.817 17.35H188.853V25H190.041V16H188.385L183.885 23.65H183.849V16H182.661V25ZM186.351 14.866C187.863 14.866 188.781 13.948 188.781 12.4H187.629C187.629 13.462 187.161 13.93 186.351 13.93C185.541 13.93 185.073 13.462 185.073 12.4H183.921C183.921 13.948 184.839 14.866 186.351 14.866ZM194.938 25H196.126V17.08H199.132V16H191.932V17.08H194.938V25ZM204.008 25.126C206.024 25.126 207.356 24.19 207.788 22.48H206.564C206.15 23.524 205.304 24.046 204.008 24.046C202.316 24.046 201.362 22.894 201.362 20.824H207.878V20.284C207.878 17.422 206.33 15.874 204.008 15.874C201.704 15.874 200.138 17.44 200.138 20.194V20.806C200.138 23.578 201.686 25.126 204.008 25.126ZM204.008 16.954C205.52 16.954 206.546 17.89 206.654 19.816H201.362C201.47 17.962 202.478 16.954 204.008 16.954Z" fill="white"/>
<path d="M0 118.4C0 107.759 0 102.439 2.07088 98.3742C3.89247 94.7991 6.7991 91.8925 10.3742 90.0709C14.4385 88 19.759 88 30.4 88H299.6C310.241 88 315.561 88 319.626 90.0709C323.201 91.8925 326.108 94.7991 327.929 98.3742C330 102.439 330 107.759 330 118.4V161.6C330 172.241 330 177.561 327.929 181.626C326.108 185.201 323.201 188.108 319.626 189.929C315.561 192 310.241 192 299.6 192H0V118.4Z" fill="#F0F3F3"/>
<path d="M21.4 113.126C24.136 113.126 25.63 111.632 25.63 109.49C25.63 108.068 24.928 107.024 23.614 106.502V106.466C24.712 105.944 25.36 104.918 25.36 103.712C25.36 101.678 23.956 100.274 21.4 100.274C18.844 100.274 17.44 101.678 17.26 104H18.556C18.736 102.326 19.636 101.426 21.4 101.426C23.164 101.426 24.064 102.326 24.064 103.712C24.064 105.044 23.164 105.944 21.4 105.944H19.87V107.096H21.4C23.344 107.096 24.334 108.086 24.334 109.49C24.334 110.984 23.344 111.974 21.4 111.974C19.456 111.974 18.466 110.984 18.286 109.22H16.99C17.17 111.632 18.664 113.126 21.4 113.126ZM26.8893 115.34H28.0413V113H35.0073V115.34H36.1593V111.92H34.9893V104H28.8693V106.7C28.8693 109.598 28.6533 110.714 27.8793 111.92H26.8893V115.34ZM29.2113 111.92V111.884C29.8593 110.516 30.0213 109.292 30.0213 106.7V105.08H33.8013V111.92H29.2113ZM38.1316 116.6H39.3196V111.74H39.3556C39.9856 112.658 40.9576 113.126 42.2536 113.126C44.3236 113.126 45.8716 111.578 45.8716 108.806V108.194C45.8716 105.386 44.3596 103.874 42.2536 103.874C40.9576 103.874 40.0396 104.324 39.2476 105.35H39.2116L39.0676 104H38.1316V116.6ZM41.9836 112.046C40.4356 112.046 39.3196 110.93 39.3196 108.806V108.194C39.3196 106.034 40.3996 104.954 41.9836 104.954C43.5316 104.954 44.6476 106.07 44.6476 108.194V108.806C44.6476 110.966 43.5676 112.046 41.9836 112.046ZM50.7372 113.126C52.0152 113.126 53.1312 112.532 53.8512 111.47H53.8872L54.0312 113H54.9672V107.06C54.9672 104.972 53.8692 103.874 51.5472 103.874C49.3692 103.874 48.2172 105.026 48.1272 106.34H49.3512C49.4412 105.548 50.0892 104.99 51.5472 104.99C53.1312 104.99 53.7792 105.638 53.7792 107.06V107.726H51.4572C48.8832 107.726 47.7672 108.806 47.7672 110.516C47.7672 112.136 48.7572 113.126 50.7372 113.126ZM50.8272 112.01C49.5672 112.01 48.9912 111.434 48.9912 110.516C48.9912 109.436 49.6932 108.734 51.5472 108.734H53.7792V109.22C53.7792 110.858 52.5552 112.01 50.8272 112.01ZM57.9421 113H61.7221C63.8101 113 64.7821 112.028 64.7821 110.426C64.7821 109.472 64.2601 108.716 63.2881 108.338V108.302C64.0081 107.942 64.4221 107.258 64.4221 106.466C64.4221 104.972 63.4501 104 61.3621 104H57.9421V113ZM63.1981 106.484C63.1981 107.384 62.6761 107.906 61.2721 107.906H59.1301V105.08H61.2721C62.6761 105.08 63.1981 105.602 63.1981 106.484ZM63.5581 110.408C63.5581 111.398 63.0361 111.92 61.6321 111.92H59.1301V108.914H61.6321C63.0361 108.914 63.5581 109.436 63.5581 110.408ZM70.5337 113.126C72.6577 113.126 73.8637 111.92 74.1337 110.3H72.9097C72.6397 111.362 71.9557 112.046 70.6237 112.046C69.1117 112.046 67.9777 110.912 67.9777 108.716V108.104C67.9777 106.07 69.0937 104.954 70.6237 104.954C71.9557 104.954 72.6397 105.638 72.9097 106.52H74.1337C73.8637 105.08 72.6577 103.874 70.5337 103.874C68.3017 103.874 66.7537 105.422 66.7537 108.104V108.716C66.7537 111.614 68.2657 113.126 70.5337 113.126ZM78.2176 113H79.4056V105.08H82.4116V104H75.2116V105.08H78.2176V113ZM84.3093 113H88.0893C90.1773 113 91.1493 112.028 91.1493 110.426C91.1493 109.472 90.6273 108.716 89.6553 108.338V108.302C90.3753 107.942 90.7893 107.258 90.7893 106.466C90.7893 104.972 89.8173 104 87.7293 104H84.3093V113ZM89.5653 106.484C89.5653 107.384 89.0433 107.906 87.6393 107.906H85.4973V105.08H87.6393C89.0433 105.08 89.5653 105.602 89.5653 106.484ZM89.9253 110.408C89.9253 111.398 89.4033 111.92 87.9993 111.92H85.4973V108.914H87.9993C89.4033 108.914 89.9253 109.436 89.9253 110.408ZM94.6053 116.6H95.8293L100.689 104H99.4653L96.6393 111.524H96.6033L93.5253 104H92.2293L95.9913 113L94.6053 116.6ZM102.661 113H104.317L108.817 105.35H108.853V113H110.041V104H108.385L103.885 111.65H103.849V104H102.661V113ZM106.351 102.866C107.863 102.866 108.781 101.948 108.781 100.4H107.629C107.629 101.462 107.161 101.93 106.351 101.93C105.541 101.93 105.073 101.462 105.073 100.4H103.921C103.921 101.948 104.839 102.866 106.351 102.866ZM114.938 113H116.126V105.08H119.132V104H111.932V105.08H114.938V113ZM124.008 113.126C126.024 113.126 127.356 112.19 127.788 110.48H126.564C126.15 111.524 125.304 112.046 124.008 112.046C122.316 112.046 121.362 110.894 121.362 108.824H127.878V108.284C127.878 105.422 126.33 103.874 124.008 103.874C121.704 103.874 120.138 105.44 120.138 108.194V108.806C120.138 111.578 121.686 113.126 124.008 113.126ZM124.008 104.954C125.52 104.954 126.546 105.89 126.654 107.816H121.362C121.47 105.962 122.478 104.954 124.008 104.954ZM130.939 109.4H132.199V100.4H130.939V109.4ZM131.569 113.126C132.145 113.126 132.559 112.694 132.559 112.136C132.559 111.596 132.145 111.146 131.569 111.146C130.993 111.146 130.579 111.596 130.579 112.136C130.579 112.694 130.993 113.126 131.569 113.126ZM17.62 157H18.88V152.212H21.67C24.604 152.212 26.08 150.736 26.08 148.306C26.08 145.84 24.64 144.4 21.67 144.4H17.62V157ZM21.58 145.552C23.812 145.552 24.784 146.524 24.784 148.306C24.784 150.124 23.848 151.06 21.58 151.06H18.88V145.552H21.58ZM29.9705 160.6H31.1945L36.0545 148H34.8305L32.0045 155.524H31.9685L28.8905 148H27.5945L31.3565 157L29.9705 160.6ZM41.5541 157.126C43.9121 157.126 45.4961 155.542 45.4961 152.896V152.284C45.4961 149.62 43.9301 148.054 41.7701 148.054C40.4381 148.054 39.3761 148.612 38.7641 149.62H38.7281C38.8721 147.928 39.2861 146.902 40.1681 146.326C41.3201 145.588 42.9761 146.038 44.7761 145.372V144.274C42.4721 144.994 41.1221 144.49 39.6281 145.372C37.9721 146.362 37.5761 148.558 37.5761 151.294V152.266C37.5761 155.596 39.1061 157.126 41.5541 157.126ZM41.5541 156.046C39.9161 156.046 38.8001 154.93 38.8001 152.896V152.284C38.8001 150.214 39.8801 149.134 41.5541 149.134C43.1741 149.134 44.2721 150.232 44.2721 152.284V152.896C44.2721 154.948 43.1741 156.046 41.5541 156.046ZM46.6647 157.126H46.9347C49.6167 157.126 49.6527 154.39 49.6527 150.52V149.08H53.3967V157H54.5847V148H48.4647V150.52C48.4647 153.94 48.4287 156.046 46.9347 156.046H46.6647V157.126ZM57.6433 157H59.2993L63.7993 149.35H63.8353V157H65.0233V148H63.3673L58.8673 155.65H58.8313V148H57.6433V157ZM72.5847 157H73.7727V149.08H78.4167V157H79.6047V148H72.5847V157ZM86.077 157.126C88.471 157.126 90.037 155.56 90.037 152.806V152.194C90.037 149.422 88.489 147.874 86.077 147.874C83.683 147.874 82.117 149.44 82.117 152.194V152.806C82.117 155.578 83.665 157.126 86.077 157.126ZM86.077 156.046C84.457 156.046 83.341 154.93 83.341 152.806V152.194C83.341 150.052 84.439 148.954 86.077 148.954C87.697 148.954 88.813 150.07 88.813 152.194V152.806C88.813 154.948 87.715 156.046 86.077 156.046ZM95.7934 157.126C97.9174 157.126 99.1234 155.92 99.3934 154.3H98.1694C97.8994 155.362 97.2154 156.046 95.8834 156.046C94.3714 156.046 93.2374 154.912 93.2374 152.716V152.104C93.2374 150.07 94.3534 148.954 95.8834 148.954C97.2154 148.954 97.8994 149.638 98.1694 150.52H99.3934C99.1234 149.08 97.9174 147.874 95.7934 147.874C93.5614 147.874 92.0134 149.422 92.0134 152.104V152.716C92.0134 155.614 93.5254 157.126 95.7934 157.126ZM103.477 157H104.665V149.08H107.671V148H100.471V149.08H103.477V157ZM111.217 160.6H112.441L117.301 148H116.077L113.251 155.524H113.215L110.137 148H108.841L112.603 157L111.217 160.6ZM119.272 157H120.46V149.08H125.104V157H126.292V148H119.272V157ZM128.534 157H129.902L131.81 153.634C132.026 153.652 132.26 153.652 132.494 153.652H134.186V157H135.374V148H132.494C129.938 148 128.894 149.044 128.894 150.826C128.894 152.104 129.416 152.986 130.64 153.4L128.534 157ZM130.118 150.826C130.118 149.692 130.73 149.08 132.584 149.08H134.186V152.572H132.584C130.73 152.572 130.118 151.96 130.118 150.826ZM140.268 157H141.456V149.08H144.462V148H137.262V149.08H140.268V157ZM154.1 157.126C156.224 157.126 157.43 155.92 157.7 154.3H156.476C156.206 155.362 155.522 156.046 154.19 156.046C152.678 156.046 151.544 154.912 151.544 152.716V152.104C151.544 150.07 152.66 148.954 154.19 148.954C155.522 148.954 156.206 149.638 156.476 150.52H157.7C157.43 149.08 156.224 147.874 154.1 147.874C151.868 147.874 150.32 149.422 150.32 152.104V152.716C150.32 155.614 151.832 157.126 154.1 157.126ZM167.976 157.126C170.334 157.126 171.918 155.542 171.918 152.896V152.284C171.918 149.62 170.352 148.054 168.192 148.054C166.86 148.054 165.798 148.612 165.186 149.62H165.15C165.294 147.928 165.708 146.902 166.59 146.326C167.742 145.588 169.398 146.038 171.198 145.372V144.274C168.894 144.994 167.544 144.49 166.05 145.372C164.394 146.362 163.998 148.558 163.998 151.294V152.266C163.998 155.596 165.528 157.126 167.976 157.126ZM167.976 156.046C166.338 156.046 165.222 154.93 165.222 152.896V152.284C165.222 150.214 166.302 149.134 167.976 149.134C169.596 149.134 170.694 150.232 170.694 152.284V152.896C170.694 154.948 169.596 156.046 167.976 156.046ZM176.772 157.126C178.05 157.126 179.166 156.532 179.886 155.47H179.922L180.066 157H181.002V151.06C181.002 148.972 179.904 147.874 177.582 147.874C175.404 147.874 174.252 149.026 174.162 150.34H175.386C175.476 149.548 176.124 148.99 177.582 148.99C179.166 148.99 179.814 149.638 179.814 151.06V151.726H177.492C174.918 151.726 173.802 152.806 173.802 154.516C173.802 156.136 174.792 157.126 176.772 157.126ZM176.862 156.01C175.602 156.01 175.026 155.434 175.026 154.516C175.026 153.436 175.728 152.734 177.582 152.734H179.814V153.22C179.814 154.858 178.59 156.01 176.862 156.01ZM183.977 157H185.165V152.95H190.169V157H191.357V148H190.169V151.87H185.165V148H183.977V157ZM194.419 157H195.607V152.86H197.227L200.179 157H201.619L198.181 152.284L201.259 148H199.855L197.227 151.78H195.607V148H194.419V157ZM206.751 157.126C209.145 157.126 210.711 155.56 210.711 152.806V152.194C210.711 149.422 209.163 147.874 206.751 147.874C204.357 147.874 202.791 149.44 202.791 152.194V152.806C202.791 155.578 204.339 157.126 206.751 157.126ZM206.751 156.046C205.131 156.046 204.015 154.93 204.015 152.806V152.194C204.015 150.052 205.113 148.954 206.751 148.954C208.371 148.954 209.487 150.07 209.487 152.194V152.806C209.487 154.948 208.389 156.046 206.751 156.046ZM213.227 157H217.007C219.095 157 220.067 156.028 220.067 154.426C220.067 153.472 219.545 152.716 218.573 152.338V152.302C219.293 151.942 219.707 151.258 219.707 150.466C219.707 148.972 218.735 148 216.647 148H213.227V157ZM218.483 150.484C218.483 151.384 217.961 151.906 216.557 151.906H214.415V149.08H216.557C217.961 149.08 218.483 149.602 218.483 150.484ZM218.843 154.408C218.843 155.398 218.321 155.92 216.917 155.92H214.415V152.914H216.917C218.321 152.914 218.843 153.436 218.843 154.408ZM225.819 157.126C227.943 157.126 229.149 155.92 229.419 154.3H228.195C227.925 155.362 227.241 156.046 225.909 156.046C224.397 156.046 223.263 154.912 223.263 152.716V152.104C223.263 150.07 224.379 148.954 225.909 148.954C227.241 148.954 227.925 149.638 228.195 150.52H229.419C229.149 149.08 227.943 147.874 225.819 147.874C223.587 147.874 222.039 149.422 222.039 152.104V152.716C222.039 155.614 223.551 157.126 225.819 157.126ZM231.667 157H232.855V152.86H234.475L237.427 157H238.867L235.429 152.284L238.507 148H237.103L234.475 151.78H232.855V148H231.667V157ZM243.999 157.126C246.393 157.126 247.959 155.56 247.959 152.806V152.194C247.959 149.422 246.411 147.874 243.999 147.874C241.605 147.874 240.039 149.44 240.039 152.194V152.806C240.039 155.578 241.587 157.126 243.999 157.126ZM243.999 156.046C242.379 156.046 241.263 154.93 241.263 152.806V152.194C241.263 150.052 242.361 148.954 243.999 148.954C245.619 148.954 246.735 150.07 246.735 152.194V152.806C246.735 154.948 245.637 156.046 243.999 156.046ZM250.475 157H252.131L256.631 149.35H256.667V157H257.855V148H256.199L251.699 155.65H251.663V148H250.475V157ZM254.165 146.866C255.677 146.866 256.595 145.948 256.595 144.4H255.443C255.443 145.462 254.975 145.93 254.165 145.93C253.355 145.93 252.887 145.462 252.887 144.4H251.735C251.735 145.948 252.653 146.866 254.165 146.866ZM17.53 179H18.718V174.86H20.338L23.29 179H24.73L21.292 174.284L24.37 170H22.966L20.338 173.78H18.718V170H17.53V179ZM28.87 179.126C30.148 179.126 31.264 178.532 31.984 177.47H32.02L32.164 179H33.1V173.06C33.1 170.972 32.002 169.874 29.68 169.874C27.502 169.874 26.35 171.026 26.26 172.34H27.484C27.574 171.548 28.222 170.99 29.68 170.99C31.264 170.99 31.912 171.638 31.912 173.06V173.726H29.59C27.016 173.726 25.9 174.806 25.9 176.516C25.9 178.136 26.89 179.126 28.87 179.126ZM28.96 178.01C27.7 178.01 27.124 177.434 27.124 176.516C27.124 175.436 27.826 174.734 29.68 174.734H31.912V175.22C31.912 176.858 30.688 178.01 28.96 178.01ZM36.0749 182.6H37.2629V177.74H37.2989C37.9289 178.658 38.9009 179.126 40.1969 179.126C42.2669 179.126 43.8149 177.578 43.8149 174.806V174.194C43.8149 171.386 42.3029 169.874 40.1969 169.874C38.9009 169.874 37.9829 170.324 37.1909 171.35H37.1549L37.0109 170H36.0749V182.6ZM39.9269 178.046C38.3789 178.046 37.2629 176.93 37.2629 174.806V174.194C37.2629 172.034 38.3429 170.954 39.9269 170.954C41.4749 170.954 42.5909 172.07 42.5909 174.194V174.806C42.5909 176.966 41.5109 178.046 39.9269 178.046ZM47.825 179H49.013V171.08H52.019V170H44.819V171.08H47.825V179ZM62.4487 179H63.6367V170H62.4487V179ZM53.9167 179H57.1567C59.4427 179 60.5767 177.866 60.5767 176.12C60.5767 174.356 59.4607 173.24 57.1567 173.24H55.1047V170H53.9167V179ZM57.0667 174.32C58.6867 174.32 59.3527 174.986 59.3527 176.12C59.3527 177.272 58.7047 177.92 57.0667 177.92H55.1047V174.32H57.0667ZM67.866 179.126C68.442 179.126 68.856 178.712 68.856 178.136C68.856 177.56 68.442 177.146 67.866 177.146C67.29 177.146 66.876 177.56 66.876 178.136C66.876 178.712 67.29 179.126 67.866 179.126ZM85.1965 179.9H86.6725L85.0165 177.776C86.0605 176.75 86.6725 175.184 86.6725 173.096V172.124C86.6725 168.398 84.5485 166.274 81.4525 166.274C78.3745 166.274 76.2325 168.416 76.2325 172.124V173.096C76.2325 177.002 78.3565 179.126 81.4525 179.126C82.4425 179.126 83.3245 178.91 84.0805 178.478L85.1965 179.9ZM81.4525 177.974C79.2025 177.974 77.5285 176.3 77.5285 173.096V172.124C77.5285 169.064 79.1665 167.426 81.4525 167.426C83.7025 167.426 85.3765 169.1 85.3765 172.124V173.096C85.3765 174.752 84.9625 175.976 84.2425 176.786L82.9285 175.13H81.4525L83.3245 177.524C82.7845 177.83 82.1545 177.974 81.4525 177.974ZM89.6418 179H90.9018V166.4H89.6418V179ZM96.9054 179H98.5614L101.405 167.84H101.441L104.465 179H106.121L109.433 166.4H108.173L105.311 177.56H105.275L102.251 166.4H100.595L97.7514 177.56H97.7154L94.7094 166.4H93.4134L96.9054 179ZM111.948 179H113.208V166.4H111.948V179ZM121.03 179H122.218V174.95H127.222V179H128.41V170H127.222V173.87H122.218V170H121.03V179ZM134.801 179.126C136.817 179.126 138.149 178.19 138.581 176.48H137.357C136.943 177.524 136.097 178.046 134.801 178.046C133.109 178.046 132.155 176.894 132.155 174.824H138.671V174.284C138.671 171.422 137.123 169.874 134.801 169.874C132.497 169.874 130.931 171.44 130.931 174.194V174.806C130.931 177.578 132.479 179.126 134.801 179.126ZM134.801 170.954C136.313 170.954 137.339 171.89 137.447 173.816H132.155C132.263 171.962 133.271 170.954 134.801 170.954ZM145.692 179H146.88V171.08H151.524V179H152.712V170H145.692V179ZM159.184 179.126C161.578 179.126 163.144 177.56 163.144 174.806V174.194C163.144 171.422 161.596 169.874 159.184 169.874C156.79 169.874 155.224 171.44 155.224 174.194V174.806C155.224 177.578 156.772 179.126 159.184 179.126ZM159.184 178.046C157.564 178.046 156.448 176.93 156.448 174.806V174.194C156.448 172.052 157.546 170.954 159.184 170.954C160.804 170.954 161.92 172.07 161.92 174.194V174.806C161.92 176.948 160.822 178.046 159.184 178.046ZM164.315 181.34H165.467V179H172.433V181.34H173.585V177.92H172.415V170H166.295V172.7C166.295 175.598 166.079 176.714 165.305 177.92H164.315V181.34ZM166.637 177.92V177.884C167.285 176.516 167.447 175.292 167.447 172.7V171.08H171.227V177.92H166.637ZM174.932 181.34H176.084V179H183.05V181.34H184.202V177.92H183.032V170H176.912V172.7C176.912 175.598 176.696 176.714 175.922 177.92H174.932V181.34ZM177.254 177.92V177.884C177.902 176.516 178.064 175.292 178.064 172.7V171.08H181.844V177.92H177.254ZM189.505 179.126C191.521 179.126 192.853 178.19 193.285 176.48H192.061C191.647 177.524 190.801 178.046 189.505 178.046C187.813 178.046 186.859 176.894 186.859 174.824H193.375V174.284C193.375 171.422 191.827 169.874 189.505 169.874C187.201 169.874 185.635 171.44 185.635 174.194V174.806C185.635 177.578 187.183 179.126 189.505 179.126ZM189.505 170.954C191.017 170.954 192.043 171.89 192.151 173.816H186.859C186.967 171.962 187.975 170.954 189.505 170.954ZM195.895 182.6H197.083V177.74H197.119C197.749 178.658 198.721 179.126 200.017 179.126C202.087 179.126 203.635 177.578 203.635 174.806V174.194C203.635 171.386 202.123 169.874 200.017 169.874C198.721 169.874 197.803 170.324 197.011 171.35H196.975L196.831 170H195.895V182.6ZM199.747 178.046C198.199 178.046 197.083 176.93 197.083 174.806V174.194C197.083 172.034 198.163 170.954 199.747 170.954C201.295 170.954 202.411 172.07 202.411 174.194V174.806C202.411 176.966 201.331 178.046 199.747 178.046ZM204.817 179H206.185L208.543 174.86H210.163V179H211.351V174.86H212.971L215.329 179H216.697L213.925 174.266L216.517 170H215.185L212.971 173.78H211.351V170H210.163V173.78H208.543L206.329 170H204.997L207.589 174.266L204.817 179ZM218.676 179H220.332L224.832 171.35H224.868V179H226.056V170H224.4L219.9 177.65H219.864V170H218.676V179ZM229.118 179H232.898C234.986 179 235.958 178.028 235.958 176.426C235.958 175.472 235.436 174.716 234.464 174.338V174.302C235.184 173.942 235.598 173.258 235.598 172.466C235.598 170.972 234.626 170 232.538 170H229.118V179ZM234.374 172.484C234.374 173.384 233.852 173.906 232.448 173.906H230.306V171.08H232.448C233.852 171.08 234.374 171.602 234.374 172.484ZM234.734 176.408C234.734 177.398 234.212 177.92 232.808 177.92H230.306V174.914H232.808C234.212 174.914 234.734 175.436 234.734 176.408ZM240.809 179.126C242.087 179.126 243.203 178.532 243.923 177.47H243.959L244.103 179H245.039V173.06C245.039 170.972 243.941 169.874 241.619 169.874C239.441 169.874 238.289 171.026 238.199 172.34H239.423C239.513 171.548 240.161 170.99 241.619 170.99C243.203 170.99 243.851 171.638 243.851 173.06V173.726H241.529C238.955 173.726 237.839 174.806 237.839 176.516C237.839 178.136 238.829 179.126 240.809 179.126ZM240.899 178.01C239.639 178.01 239.063 177.434 239.063 176.516C239.063 175.436 239.765 174.734 241.619 174.734H243.851V175.22C243.851 176.858 242.627 178.01 240.899 178.01ZM251.344 179.126C253.36 179.126 254.692 178.19 255.124 176.48H253.9C253.486 177.524 252.64 178.046 251.344 178.046C249.652 178.046 248.698 176.894 248.698 174.824H255.214V174.284C255.214 171.422 253.666 169.874 251.344 169.874C249.04 169.874 247.474 171.44 247.474 174.194V174.806C247.474 177.578 249.022 179.126 251.344 179.126ZM251.344 170.954C252.856 170.954 253.882 171.89 253.99 173.816H248.698C248.806 171.962 249.814 170.954 251.344 170.954ZM257.735 179H258.923V171.53H258.959L261.731 176.84H262.919L265.691 171.53H265.727V179H266.915V170H265.259L262.379 175.544H262.343L259.463 170H257.735V179ZM271.139 179.126C271.715 179.126 272.129 178.712 272.129 178.136C272.129 177.56 271.715 177.146 271.139 177.146C270.563 177.146 270.149 177.56 270.149 178.136C270.149 178.712 270.563 179.126 271.139 179.126Z" fill="black"/>
</svg>
