<svg width="24" height="24" viewBox="0 0 24 24" fill="none" xmlns="http://www.w3.org/2000/svg">
<path d="M18.3635 14.668H10.9789C10.0726 14.668 9.33789 13.9333 9.33789 13.0269V5.64233C9.33789 4.73601 10.0726 4.0013 10.9789 4.0013H18.3635C19.2698 4.0013 20.0046 4.73601 20.0046 5.64233V13.0269C20.0046 13.9333 19.2698 14.668 18.3635 14.668Z" stroke="black" stroke-linecap="round" stroke-linejoin="round"/>
<path d="M5.64298 9.33333C5.20775 9.33333 4.79035 9.50623 4.4826 9.81398C4.17485 10.1217 4.00195 10.5391 4.00195 10.9744V18.359C4.00195 18.7942 4.17485 19.2116 4.4826 19.5194C4.79035 19.8271 5.20775 20 5.64298 20H13.0276C13.4628 20 13.8802 19.8271 14.188 19.5194C14.4957 19.2116 14.6686 18.7942 14.6686 18.359" stroke="black" stroke-linecap="square" stroke-linejoin="round"/>
</svg>
