<svg width="36" height="36" viewBox="0 0 36 36" fill="none" xmlns="http://www.w3.org/2000/svg">
<path d="M36 18C36 21.6244 34.489 24.5625 32.625 24.5625C30.761 24.5625 29.25 21.6244 29.25 18C29.25 14.3756 30.761 11.4375 32.625 11.4375C34.489 11.4375 36 14.3756 36 18Z" fill="black"/>
<path d="M6.75 18C6.75 21.6244 5.23896 24.5625 3.375 24.5625C1.51104 24.5625 0 21.6244 0 18C0 14.3756 1.51104 11.4375 3.375 11.4375C5.23896 11.4375 6.75 14.3756 6.75 18Z" fill="black"/>
<path d="M27.295 11.4375H18.5625C16.6985 11.4375 15.1875 14.3756 15.1875 18C15.1875 21.6244 16.6985 24.5625 18.5625 24.5625H27.295C25.929 31.2583 22.5341 36 18.5625 36C13.3848 36 9.1875 27.9412 9.1875 18C9.1875 8.05884 13.3848 0 18.5625 0C22.5341 0 25.929 4.7417 27.295 11.4375Z" fill="black"/>
</svg>
