<svg width="19" height="18" viewBox="0 0 19 18" fill="none" xmlns="http://www.w3.org/2000/svg">
<path d="M8.39524 3.44071L2.92316 12.6674C2.81033 12.8648 2.75064 13.0885 2.75001 13.3164C2.74937 13.5442 2.80783 13.7683 2.91955 13.9663C3.03128 14.1643 3.19238 14.3292 3.38683 14.4448C3.58129 14.5604 3.80231 14.6225 4.02791 14.625H14.9721C15.1977 14.6225 15.4187 14.5604 15.6132 14.4448C15.8076 14.3292 15.9687 14.1643 16.0804 13.9663C16.1922 13.7683 16.2506 13.5442 16.25 13.3164C16.2494 13.0885 16.1897 12.8648 16.0768 12.6674L10.6048 3.44071C10.4896 3.24894 10.3274 3.09039 10.1339 2.98035C9.9404 2.87031 9.72207 2.8125 9.5 2.8125C9.27793 2.8125 9.0596 2.87031 8.86609 2.98035C8.67258 3.09039 8.51042 3.24894 8.39524 3.44071V3.44071Z" stroke="#FF5533" stroke-linecap="round" stroke-linejoin="round"/>
<path d="M9.5 6.19922V10.1992" stroke="#FF5533" stroke-linecap="round"/>
<path d="M9.5 12.3008L9.5 12.3009" stroke="#FF5533" stroke-width="1.5" stroke-linecap="round"/>
</svg>
