<svg width="369" height="192" viewBox="0 0 369 192" fill="none" xmlns="http://www.w3.org/2000/svg">
<rect width="369" height="192" fill="#F2FF66"/>
<path d="M93 21V171" stroke="black" stroke-width="2"/>
<path d="M18 96L168 96" stroke="black" stroke-width="2"/>
<path d="M220.2 106H276.6V93.28H239.04L257.88 76.12C270.72 64.36 276.6 56.08 276.6 46.6C276.6 31.36 266.04 20.8 248.4 20.8C230.88 20.8 220.2 31.36 220.2 47.8H235.32C235.32 39.16 240.24 34.24 248.4 34.24C256.56 34.24 261.48 39.16 261.48 46.6C261.48 52.24 258 57.04 247.32 67.24L220.2 93.28V106ZM313.777 107.2C332.257 107.2 343.777 95.68 343.777 67.12V60.88C343.777 32.08 332.497 20.8 313.777 20.8C295.297 20.8 283.777 32.32 283.777 60.88V67.12C283.777 95.92 295.177 107.2 313.777 107.2ZM313.777 93.76C304.657 93.76 298.897 88 298.897 67.12V60.88C298.897 39.76 304.417 34.24 313.777 34.24C322.777 34.24 328.657 40 328.657 60.88V67.12C328.657 88.24 323.017 93.76 313.777 93.76Z" fill="black"/>
<path d="M233.56 169.288C240.904 169.288 245.56 164.632 245.56 156.28V135.4H243.352V156.04C243.352 163.576 239.656 167.272 233.56 167.272C227.512 167.272 223.768 163.528 223.768 156.04V135.4H221.56V156.28C221.56 164.68 226.168 169.288 233.56 169.288ZM267.181 169.288C274.333 169.288 277.981 165.64 277.981 160.36C277.981 148.168 258.205 153.736 258.205 143.8C258.205 139.816 260.893 137.128 266.461 137.128C272.125 137.128 274.909 139.912 275.437 144.52H277.741C277.261 138.808 273.565 135.112 266.461 135.112C259.693 135.112 255.901 138.856 255.901 143.8C255.901 155.656 275.677 150.712 275.677 160.36C275.677 164.632 273.085 167.272 267.181 167.272C261.229 167.272 258.205 164.248 257.725 159.4H255.421C255.901 165.4 259.789 169.288 267.181 169.288ZM288.077 169H297.917C306.941 169 312.317 163.624 312.317 153.352V150.568C312.317 140.728 306.989 135.4 297.917 135.4H288.077V169ZM290.285 166.984V137.416H297.677C305.549 137.416 310.013 141.88 310.013 150.568V153.352C310.013 162.568 305.597 166.984 297.677 166.984H290.285ZM329.185 169H331.393V137.416H342.769V135.4H317.809V137.416H329.185V169Z" fill="black"/>
</svg>
